<?xml version="1.0" encoding="us-ascii" standalone="no"?><svg xmlns="http://www.w3.org/2000/svg" xmlns:xlink="http://www.w3.org/1999/xlink" contentStyleType="text/css" height="480px" preserveAspectRatio="none" style="width:611px;height:480px;background:#FFFFFF;" version="1.1" viewBox="0 0 611 480" width="611px" zoomAndPan="magnify"><defs/><g><text fill="#000000" font-family="sans-serif" font-size="14" font-weight="bold" lengthAdjust="spacing" textLength="452" x="72.5" y="22.9951">Enterprise Loan Management System - Core Architecture</text><!--cluster Client Applications--><g id="cluster_Client Applications"><path d="M24.5,43.2969 L171.5,43.2969 A3.75,3.75 0 0 1 174,45.7969 L181,65.5938 L464.5,65.5938 A2.5,2.5 0 0 1 467,68.0938 L467,128.0969 A2.5,2.5 0 0 1 464.5,130.5969 L24.5,130.5969 A2.5,2.5 0 0 1 22,128.0969 L22,45.7969 A2.5,2.5 0 0 1 24.5,43.2969 " fill="none" style="stroke:#000000;stroke-width:1.5;"/><line style="stroke:#000000;stroke-width:1.5;" x1="22" x2="181" y1="65.5938" y2="65.5938"/><text fill="#000000" font-family="sans-serif" font-size="14" font-weight="bold" lengthAdjust="spacing" textLength="146" x="26" y="58.292">Client Applications</text></g><!--cluster API Gateway--><g id="cluster_API Gateway"><path d="M147.5,154.5969 L247.5,154.5969 A3.75,3.75 0 0 1 250,157.0969 L257,176.8938 L601.5,176.8938 A2.5,2.5 0 0 1 604,179.3938 L604,239.3969 A2.5,2.5 0 0 1 601.5,241.8969 L147.5,241.8969 A2.5,2.5 0 0 1 145,239.3969 L145,157.0969 A2.5,2.5 0 0 1 147.5,154.5969 " fill="none" style="stroke:#000000;stroke-width:1.5;"/><line style="stroke:#000000;stroke-width:1.5;" x1="145" x2="257" y1="176.8938" y2="176.8938"/><text fill="#000000" font-family="sans-serif" font-size="14" font-weight="bold" lengthAdjust="spacing" textLength="99" x="149" y="169.592">API Gateway</text></g><!--cluster Core Services--><g id="cluster_Core Services"><path d="M8.5,265.8969 L120.5,265.8969 A3.75,3.75 0 0 1 123,268.3969 L130,288.1938 L487.5,288.1938 A2.5,2.5 0 0 1 490,290.6938 L490,350.6869 A2.5,2.5 0 0 1 487.5,353.1869 L8.5,353.1869 A2.5,2.5 0 0 1 6,350.6869 L6,268.3969 A2.5,2.5 0 0 1 8.5,265.8969 " fill="none" style="stroke:#000000;stroke-width:1.5;"/><line style="stroke:#000000;stroke-width:1.5;" x1="6" x2="130" y1="288.1938" y2="288.1938"/><text fill="#000000" font-family="sans-serif" font-size="14" font-weight="bold" lengthAdjust="spacing" textLength="111" x="10" y="280.892">Core Services</text></g><!--cluster Data Layer--><g id="cluster_Data Layer"><path d="M40.5,377.1869 L125.5,377.1869 A3.75,3.75 0 0 1 128,379.6869 L135,399.4838 L435.5,399.4838 A2.5,2.5 0 0 1 438,401.9838 L438,470.9869 A2.5,2.5 0 0 1 435.5,473.4869 L40.5,473.4869 A2.5,2.5 0 0 1 38,470.9869 L38,379.6869 A2.5,2.5 0 0 1 40.5,377.1869 " fill="none" style="stroke:#000000;stroke-width:1.5;"/><line style="stroke:#000000;stroke-width:1.5;" x1="38" x2="135" y1="399.4838" y2="399.4838"/><text fill="#000000" font-family="sans-serif" font-size="14" font-weight="bold" lengthAdjust="spacing" textLength="84" x="42" y="392.182">Data Layer</text></g><!--entity WebApp--><g id="elem_WebApp"><rect fill="#F1F1F1" height="36.2969" rx="2.5" ry="2.5" style="stroke:#181818;stroke-width:0.5;" width="94" x="38" y="78.2969"/><text fill="#000000" font-family="sans-serif" font-size="14" lengthAdjust="spacing" textLength="74" x="48" y="101.292">Web Portal</text></g><!--entity MobileApp--><g id="elem_MobileApp"><rect fill="#F1F1F1" height="36.2969" rx="2.5" ry="2.5" style="stroke:#181818;stroke-width:0.5;" width="125" x="167.5" y="78.2969"/><text fill="#000000" font-family="sans-serif" font-size="14" lengthAdjust="spacing" textLength="105" x="177.5" y="101.292">Mobile Banking</text></g><!--entity AdminApp--><g id="elem_AdminApp"><rect fill="#F1F1F1" height="36.2969" rx="2.5" ry="2.5" style="stroke:#181818;stroke-width:0.5;" width="124" x="327" y="78.2969"/><text fill="#000000" font-family="sans-serif" font-size="14" lengthAdjust="spacing" textLength="104" x="337" y="101.292">Admin Console</text></g><!--entity Gateway--><g id="elem_Gateway"><rect fill="#F1F1F1" height="36.2969" rx="2.5" ry="2.5" style="stroke:#181818;stroke-width:0.5;" width="138" x="161" y="189.5969"/><text fill="#000000" font-family="sans-serif" font-size="14" lengthAdjust="spacing" textLength="118" x="171" y="212.592">Security Gateway</text></g><!--entity RateLimit--><g id="elem_RateLimit"><rect fill="#F1F1F1" height="36.2969" rx="2.5" ry="2.5" style="stroke:#181818;stroke-width:0.5;" width="101" x="334.5" y="189.5969"/><text fill="#000000" font-family="sans-serif" font-size="14" lengthAdjust="spacing" textLength="81" x="344.5" y="212.592">Rate Limiter</text></g><!--entity LoadBalancer--><g id="elem_LoadBalancer"><rect fill="#F1F1F1" height="36.2969" rx="2.5" ry="2.5" style="stroke:#181818;stroke-width:0.5;" width="117" x="470.5" y="189.5969"/><text fill="#000000" font-family="sans-serif" font-size="14" lengthAdjust="spacing" textLength="97" x="480.5" y="212.592">Load Balancer</text></g><!--entity CustomerSvc--><g id="elem_CustomerSvc"><rect fill="#F1F1F1" height="36.2969" rx="2.5" ry="2.5" style="stroke:#181818;stroke-width:0.5;" width="142" x="332" y="300.8969"/><text fill="#000000" font-family="sans-serif" font-size="14" lengthAdjust="spacing" textLength="122" x="342" y="323.892">Customer Service</text></g><!--entity LoanSvc--><g id="elem_LoanSvc"><rect fill="#F1F1F1" height="36.2969" rx="2.5" ry="2.5" style="stroke:#181818;stroke-width:0.5;" width="107" x="21.5" y="300.8969"/><text fill="#000000" font-family="sans-serif" font-size="14" lengthAdjust="spacing" textLength="87" x="31.5" y="323.892">Loan Service</text></g><!--entity PaymentSvc--><g id="elem_PaymentSvc"><rect fill="#F1F1F1" height="36.2969" rx="2.5" ry="2.5" style="stroke:#181818;stroke-width:0.5;" width="134" x="163" y="300.8969"/><text fill="#000000" font-family="sans-serif" font-size="14" lengthAdjust="spacing" textLength="114" x="173" y="323.892">Payment Service</text></g><!--entity DB--><g id="elem_DB"><path d="M179.5,422.1869 C179.5,412.1869 230,412.1869 230,412.1869 C230,412.1869 280.5,412.1869 280.5,422.1869 L280.5,447.4838 C280.5,457.4838 230,457.4838 230,457.4838 C230,457.4838 179.5,457.4838 179.5,447.4838 L179.5,422.1869 " fill="#F1F1F1" style="stroke:#181818;stroke-width:0.5;"/><path d="M179.5,422.1869 C179.5,432.1869 230,432.1869 230,432.1869 C230,432.1869 280.5,432.1869 280.5,422.1869 " fill="none" style="stroke:#181818;stroke-width:0.5;"/><text fill="#000000" font-family="sans-serif" font-size="14" lengthAdjust="spacing" textLength="81" x="189.5" y="449.182">PostgreSQL</text></g><!--entity Cache--><g id="elem_Cache"><rect fill="#F1F1F1" height="36.2969" rx="35" ry="35" style="stroke:#181818;stroke-width:0.5;" width="107" x="315.5" y="416.6869"/><text fill="#000000" font-family="sans-serif" font-size="14" lengthAdjust="spacing" textLength="87" x="325.5" y="439.682">Redis Cache</text></g><!--entity Events--><g id="elem_Events"><path d="M59,421.6869 L139,421.6869 C144,421.6869 144,434.8353 144,434.8353 C144,434.8353 144,447.9838 139,447.9838 L59,447.9838 C54,447.9838 54,434.8353 54,434.8353 C54,434.8353 54,421.6869 59,421.6869 " fill="#F1F1F1" style="stroke:#181818;stroke-width:0.5;"/><path d="M139,421.6869 C134,421.6869 134,434.8353 134,434.8353 C134,447.9838 139,447.9838 139,447.9838 " fill="none" style="stroke:#181818;stroke-width:0.5;"/><text fill="#000000" font-family="sans-serif" font-size="14" lengthAdjust="spacing" textLength="70" x="59" y="439.682">Event Bus</text></g><!--link WebApp to Gateway--><g id="link_WebApp_Gateway"><path d="M108.3,115.0069 C135.36,135.4069 174.9392,165.2347 201.9692,185.6147 " fill="none" id="WebApp-to-Gateway" style="stroke:#181818;stroke-width:1.0;"/><polygon fill="#181818" points="206.76,189.2269,201.9819,180.6147,202.7676,186.2167,197.1656,187.0025,206.76,189.2269" style="stroke:#181818;stroke-width:1.0;"/></g><!--link MobileApp to Gateway--><g id="link_MobileApp_Gateway"><path d="M230,115.0069 C230,135.4069 230,162.8469 230,183.2269 " fill="none" id="MobileApp-to-Gateway" style="stroke:#181818;stroke-width:1.0;"/><polygon fill="#181818" points="230,189.2269,234,180.2269,230,184.2269,226,180.2269,230,189.2269" style="stroke:#181818;stroke-width:1.0;"/></g><!--link AdminApp to Gateway--><g id="link_AdminApp_Gateway"><path d="M363.32,114.9269 C349.56,124.2969 332.34,136.0569 317,146.5969 C296.11,160.9469 277.3916,173.8894 260.0316,185.9194 " fill="none" id="AdminApp-to-Gateway" style="stroke:#181818;stroke-width:1.0;"/><polygon fill="#181818" points="255.1,189.3369,264.7757,187.4984,259.2097,186.489,260.2191,180.9229,255.1,189.3369" style="stroke:#181818;stroke-width:1.0;"/></g><!--link Gateway to CustomerSvc--><g id="link_Gateway_CustomerSvc"><path d="M261.01,226.2469 C276.99,235.4269 296.7,246.9969 314,257.8969 C335.94,271.7069 355.3568,284.8316 373.0368,297.0716 " fill="none" id="Gateway-to-CustomerSvc" style="stroke:#181818;stroke-width:1.0;"/><polygon fill="#181818" points="377.97,300.4869,372.8471,292.0752,373.859,297.6408,368.2934,298.6528,377.97,300.4869" style="stroke:#181818;stroke-width:1.0;"/></g><!--link Gateway to LoanSvc--><g id="link_Gateway_LoanSvc"><path d="M196.87,226.3769 C181.07,235.2169 162.13,246.4669 146,257.8969 C127.41,271.0569 112.215,283.9478 98.315,296.4878 " fill="none" id="Gateway-to-LoanSvc" style="stroke:#181818;stroke-width:1.0;"/><polygon fill="#181818" points="93.86,300.5069,103.2219,297.4482,97.5725,297.1576,97.8631,291.5082,93.86,300.5069" style="stroke:#181818;stroke-width:1.0;"/></g><!--link Gateway to PaymentSvc--><g id="link_Gateway_PaymentSvc"><path d="M230,226.3069 C230,246.6969 230,274.1469 230,294.5269 " fill="none" id="Gateway-to-PaymentSvc" style="stroke:#181818;stroke-width:1.0;"/><polygon fill="#181818" points="230,300.5269,234,291.5269,230,295.5269,226,291.5269,230,300.5269" style="stroke:#181818;stroke-width:1.0;"/></g><!--link CustomerSvc to DB--><g id="link_CustomerSvc_DB"><path d="M364.64,337.6469 C335.92,350.8869 301.09,367.0869 298,369.1869 C280.11,381.4069 266.585,394.0292 253.755,407.5192 " fill="none" id="CustomerSvc-to-DB" style="stroke:#181818;stroke-width:1.0;"/><polygon fill="#181818" points="249.62,411.8669,258.7209,408.102,253.0658,408.2438,252.924,402.5887,249.62,411.8669" style="stroke:#181818;stroke-width:1.0;"/></g><!--link LoanSvc to DB--><g id="link_LoanSvc_DB"><path d="M104.58,337.4969 C117.27,344.9069 132.3,353.5769 146,361.1869 C152.6,364.8669 154.86,364.7869 161,369.1869 C178.62,381.8069 192.1996,394.3222 205.3096,407.6322 " fill="none" id="LoanSvc-to-DB" style="stroke:#181818;stroke-width:1.0;"/><polygon fill="#181818" points="209.52,411.9069,206.0542,402.688,206.0113,408.3447,200.3546,408.3019,209.52,411.9069" style="stroke:#181818;stroke-width:1.0;"/></g><!--link PaymentSvc to DB--><g id="link_PaymentSvc_DB"><path d="M230,337.3269 C230,357.2169 230,383.9469 230,405.6969 " fill="none" id="PaymentSvc-to-DB" style="stroke:#181818;stroke-width:1.0;"/><polygon fill="#181818" points="230,411.6969,234,402.6969,230,406.6969,226,402.6969,230,411.6969" style="stroke:#181818;stroke-width:1.0;"/></g><!--link CustomerSvc to Cache--><g id="link_CustomerSvc_Cache"><path d="M397.84,337.3269 C391.45,358.7169 382.3489,389.1784 375.9289,410.6484 " fill="none" id="CustomerSvc-to-Cache" style="stroke:#181818;stroke-width:1.0;"/><polygon fill="#181818" points="374.21,416.3969,380.6207,408.9201,375.6424,411.6065,372.9561,406.6282,374.21,416.3969" style="stroke:#181818;stroke-width:1.0;"/></g><!--link LoanSvc to Cache--><g id="link_LoanSvc_Cache"><path d="M98.66,337.5669 C111.88,346.3469 129.07,356.1569 146,361.1869 C178.42,370.8269 266.79,356.1569 298,369.1869 C321.84,379.1469 339.0074,396.1305 351.8674,411.6205 " fill="none" id="LoanSvc-to-Cache" style="stroke:#181818;stroke-width:1.0;"/><polygon fill="#181818" points="355.7,416.2369,353.0287,406.7572,352.5062,412.3899,346.8735,411.8673,355.7,416.2369" style="stroke:#181818;stroke-width:1.0;"/></g><!--link PaymentSvc to Cache--><g id="link_PaymentSvc_Cache"><path d="M255.7,337.5869 C268.64,346.6769 284.43,358.1669 298,369.1869 C316.63,384.3269 332.4204,398.754 346.4704,412.104 " fill="none" id="PaymentSvc-to-Cache" style="stroke:#181818;stroke-width:1.0;"/><polygon fill="#181818" points="350.82,416.2369,347.0509,407.1378,347.1953,412.7928,341.5403,412.9373,350.82,416.2369" style="stroke:#181818;stroke-width:1.0;"/></g><!--link CustomerSvc to Events--><g id="link_CustomerSvc_Events"><path d="M372.76,337.5269 C356.01,346.2969 334.49,356.1169 314,361.1869 C281.17,369.3269 192.81,355.2269 162,369.1869 C137.3,380.3769 120.5816,400.997 110.1516,416.417 " fill="none" id="CustomerSvc-to-Events" style="stroke:#181818;stroke-width:1.0;"/><polygon fill="#181818" points="106.79,421.3869,115.1456,416.1731,109.5913,417.2453,108.5191,411.691,106.79,421.3869" style="stroke:#181818;stroke-width:1.0;"/></g><!--link LoanSvc to Events--><g id="link_LoanSvc_Events"><path d="M78.65,337.3269 C83.52,360.4569 90.8225,395.0559 95.1225,415.4559 " fill="none" id="LoanSvc-to-Events" style="stroke:#181818;stroke-width:1.0;"/><polygon fill="#181818" points="96.36,421.3269,98.4177,411.6954,95.3287,416.4344,90.5897,413.3454,96.36,421.3269" style="stroke:#181818;stroke-width:1.0;"/></g><!--link PaymentSvc to Events--><g id="link_PaymentSvc_Events"><path d="M203.69,337.4769 C190.74,346.4469 175.12,357.8669 162,369.1869 C142.54,385.9869 126.172,403.3355 114.032,416.8355 " fill="none" id="PaymentSvc-to-Events" style="stroke:#181818;stroke-width:1.0;"/><polygon fill="#181818" points="110.02,421.2969,119.0122,417.2794,113.3633,417.579,113.0637,411.9301,110.02,421.2969" style="stroke:#181818;stroke-width:1.0;"/></g><!--SRC=[RP9DJiCm44RtESMeh7i5fBRy2Ab8XInO81PJPnGi4ZlOJb64k3lZILpSaApiv_VPut7yXpOTEcpXYEgZThOtrSusri7LdNo5FnlAjfqrP48PXeR0aGfeweQA8kZ0uDO4SftJdc1lqS0Z6gofvG2KWm_KmXfsrX5id7hNWUEzut371xC7grsZexlfkaOh3DeQluBl0lWx7mslBtI4WtK1cpT03ppbm5nwj4VD5MtHSFMrY2DQS3TLgmqNPhnjI5GXqVp9gjiS7k0U0ttXi51LIQftEWn9aNscyTnzPWnxtN8Bd7WHo7nkSXihlaI3Harg90bSb2UDBScTjAAbjkrw7snBBZcoMuBbIIqSRIxS21Qy0mxZ2sVgnAATbtY30M6F0xbKNyNaYFo_h0xMXzfH-RHVnHrkjhBErJc9FbEbkLnKxoJhCXBbiwUUXTjJB6BRUrcMcO-7Zxy7hDVNvzSu_mWNDBtv1IocWS2yMJbFZSbPre4YoyaQtssAfEcVdSY_q7ZXF3UIMNI4_z9JF_BuX6RvYVu2]--></g></svg>