<svg xmlns="http://www.w3.org/2000/svg" xmlns:xlink="http://www.w3.org/1999/xlink" contentStyleType="text/css" data-diagram-type="DESCRIPTION" height="833px" preserveAspectRatio="none" style="width:1347px;height:833px;background:#FFFFFF;" version="1.1" viewBox="0 0 1347 833" width="1347px" zoomAndPan="magnify"><title>OAuth2.1 Authentication &amp; Authorization Architecture</title><defs/><g><g class="title" data-source-line="3"><text fill="#000000" font-family="Verdana" font-size="22" font-weight="bold" lengthAdjust="spacing" textLength="668.7764" x="334.8522" y="37.1182">OAuth2.1 Authentication &amp; Authorization Architecture</text><text fill="#000000" font-family="Verdana" font-size="22" font-weight="bold" lengthAdjust="spacing" textLength="334.1787" x="502.151" y="63.8555">Enterprise Banking System</text></g><!--cluster Client Applications--><g class="cluster" data-entity="Client Applications" data-source-line="5" data-uid="ent0002" id="cluster_Client Applications"><path d="M184.5,85.4746 L332.2949,85.4746 A3.75,3.75 0 0 1 334.7949,87.9746 L341.7949,108.4893 L719.5,108.4893 A2.5,2.5 0 0 1 722,110.9893 L722,181.9946 A2.5,2.5 0 0 1 719.5,184.4946 L184.5,184.4946 A2.5,2.5 0 0 1 182,181.9946 L182,87.9746 A2.5,2.5 0 0 1 184.5,85.4746" fill="#FFFFFF" style="stroke:#000000;stroke-width:1;"/><line style="stroke:#000000;stroke-width:1;" x1="182" x2="341.7949" y1="108.4893" y2="108.4893"/><text fill="#000000" font-family="Verdana" font-size="14" font-weight="bold" lengthAdjust="spacing" textLength="146.7949" x="186" y="101.5498">Client Applications</text></g><!--cluster OAuth2.1 Identity Layer--><g class="cluster" data-entity="OAuth2.1 Identity Layer" data-source-line="11" data-uid="ent0006" id="cluster_OAuth2.1 Identity Layer"><path d="M419.5,386.3946 L611.127,386.3946 A3.75,3.75 0 0 1 613.627,388.8946 L620.627,409.4093 L1129.5,409.4093 A2.5,2.5 0 0 1 1132,411.9093 L1132,656.8046 A2.5,2.5 0 0 1 1129.5,659.3046 L419.5,659.3046 A2.5,2.5 0 0 1 417,656.8046 L417,388.8946 A2.5,2.5 0 0 1 419.5,386.3946" fill="#FFFFFF" style="stroke:#000000;stroke-width:1;"/><line style="stroke:#000000;stroke-width:1;" x1="417" x2="620.627" y1="409.4093" y2="409.4093"/><text fill="#000000" font-family="Verdana" font-size="14" font-weight="bold" lengthAdjust="spacing" textLength="190.627" x="421" y="402.4698">OAuth2.1 Identity Layer</text></g><!--cluster Banking Application--><g class="cluster" data-entity="Banking Application" data-source-line="17" data-uid="ent0010" id="cluster_Banking Application"><path d="M13.5,233.4946 L171.5693,233.4946 A3.75,3.75 0 0 1 174.0693,235.9946 L181.0693,256.5093 L390.5,256.5093 A2.5,2.5 0 0 1 393,259.0093 L393,656.8046 A2.5,2.5 0 0 1 390.5,659.3046 L13.5,659.3046 A2.5,2.5 0 0 1 11,656.8046 L11,235.9946 A2.5,2.5 0 0 1 13.5,233.4946" fill="#FFFFFF" style="stroke:#000000;stroke-width:1;"/><line style="stroke:#000000;stroke-width:1;" x1="11" x2="181.0693" y1="256.5093" y2="256.5093"/><text fill="#000000" font-family="Verdana" font-size="14" font-weight="bold" lengthAdjust="spacing" textLength="157.0693" x="15" y="249.5698">Banking Application</text></g><!--cluster Data Layer--><g class="cluster" data-entity="Data Layer" data-source-line="23" data-uid="ent0014" id="cluster_Data Layer"><path d="M86.5,727.3046 L172.6279,727.3046 A3.75,3.75 0 0 1 175.1279,729.8046 L182.1279,750.3193 L375.5,750.3193 A2.5,2.5 0 0 1 378,752.8193 L378,823.8146 A2.5,2.5 0 0 1 375.5,826.3146 L86.5,826.3146 A2.5,2.5 0 0 1 84,823.8146 L84,729.8046 A2.5,2.5 0 0 1 86.5,727.3046" fill="#FFFFFF" style="stroke:#000000;stroke-width:1;"/><line style="stroke:#000000;stroke-width:1;" x1="84" x2="182.1279" y1="750.3193" y2="750.3193"/><text fill="#000000" font-family="Verdana" font-size="14" font-weight="bold" lengthAdjust="spacing" textLength="85.1279" x="88" y="743.3798">Data Layer</text></g><!--entity WEB--><g class="entity" data-entity="WEB" data-source-line="6" data-uid="ent0003" id="entity_WEB"><rect fill="#FFFFFF" height="47.0146" rx="2.5" ry="2.5" style="stroke:#000000;stroke-width:1;" width="164.3389" x="197.83" y="121.4746"/><rect fill="#FFFFFF" height="10" style="stroke:#000000;stroke-width:1;" width="15" x="342.1689" y="126.4746"/><rect fill="#FFFFFF" height="2" style="stroke:#000000;stroke-width:1;" width="4" x="340.1689" y="128.4746"/><rect fill="#FFFFFF" height="2" style="stroke:#000000;stroke-width:1;" width="4" x="340.1689" y="132.4746"/><text fill="#000000" font-family="Verdana" font-size="14" lengthAdjust="spacing" textLength="124.3389" x="212.83" y="155.5498">Web Banking App</text></g><!--entity MOBILE--><g class="entity" data-entity="MOBILE" data-source-line="7" data-uid="ent0004" id="entity_MOBILE"><rect fill="#FFFFFF" height="47.0146" rx="2.5" ry="2.5" style="stroke:#000000;stroke-width:1;" width="116.9795" x="397.51" y="121.4746"/><rect fill="#FFFFFF" height="10" style="stroke:#000000;stroke-width:1;" width="15" x="494.4895" y="126.4746"/><rect fill="#FFFFFF" height="2" style="stroke:#000000;stroke-width:1;" width="4" x="492.4895" y="128.4746"/><rect fill="#FFFFFF" height="2" style="stroke:#000000;stroke-width:1;" width="4" x="492.4895" y="132.4746"/><text fill="#000000" font-family="Verdana" font-size="14" lengthAdjust="spacing" textLength="76.9795" x="412.51" y="155.5498">Mobile App</text></g><!--entity THIRD_PARTY--><g class="entity" data-entity="THIRD_PARTY" data-source-line="8" data-uid="ent0005" id="entity_THIRD_PARTY"><rect fill="#FFFFFF" height="47.0146" rx="2.5" ry="2.5" style="stroke:#000000;stroke-width:1;" width="156.8057" x="549.6" y="121.4746"/><rect fill="#FFFFFF" height="10" style="stroke:#000000;stroke-width:1;" width="15" x="686.4057" y="126.4746"/><rect fill="#FFFFFF" height="2" style="stroke:#000000;stroke-width:1;" width="4" x="684.4057" y="128.4746"/><rect fill="#FFFFFF" height="2" style="stroke:#000000;stroke-width:1;" width="4" x="684.4057" y="132.4746"/><text fill="#000000" font-family="Verdana" font-size="14" lengthAdjust="spacing" textLength="116.8057" x="564.6" y="155.5498">Third Party Apps</text></g><!--entity KEYCLOAK--><g class="entity" data-entity="KEYCLOAK" data-source-line="12" data-uid="ent0007" id="entity_KEYCLOAK"><rect fill="#FFFFFF" height="47.0146" rx="2.5" ry="2.5" style="stroke:#000000;stroke-width:1;" width="225.6982" x="543.15" y="422.3946"/><rect fill="#FFFFFF" height="10" style="stroke:#000000;stroke-width:1;" width="15" x="748.8482" y="427.3946"/><rect fill="#FFFFFF" height="2" style="stroke:#000000;stroke-width:1;" width="4" x="746.8482" y="429.3946"/><rect fill="#FFFFFF" height="2" style="stroke:#000000;stroke-width:1;" width="4" x="746.8482" y="433.3946"/><text fill="#000000" font-family="Verdana" font-size="14" lengthAdjust="spacing" textLength="185.6982" x="558.15" y="456.4698">Keycloak OAuth2.1 Server</text></g><!--entity LDAP--><g class="entity" data-entity="LDAP" data-source-line="13" data-uid="ent0008" id="entity_LDAP"><rect fill="#FFFFFF" height="47.0146" rx="2.5" ry="2.5" style="stroke:#000000;stroke-width:1;" width="199.4893" x="511.26" y="596.2946"/><rect fill="#FFFFFF" height="10" style="stroke:#000000;stroke-width:1;" width="15" x="690.7493" y="601.2946"/><rect fill="#FFFFFF" height="2" style="stroke:#000000;stroke-width:1;" width="4" x="688.7493" y="603.2946"/><rect fill="#FFFFFF" height="2" style="stroke:#000000;stroke-width:1;" width="4" x="688.7493" y="607.2946"/><text fill="#000000" font-family="Verdana" font-size="14" lengthAdjust="spacing" textLength="159.4893" x="526.26" y="630.3698">LDAP Identity Provider</text></g><!--entity PARTY_DB--><g class="entity" data-entity="PARTY_DB" data-source-line="14" data-uid="ent0009" id="entity_PARTY_DB"><rect fill="#FFFFFF" height="47.0146" rx="2.5" ry="2.5" style="stroke:#000000;stroke-width:1;" width="210.4609" x="778.77" y="596.2946"/><rect fill="#FFFFFF" height="10" style="stroke:#000000;stroke-width:1;" width="15" x="969.2309" y="601.2946"/><rect fill="#FFFFFF" height="2" style="stroke:#000000;stroke-width:1;" width="4" x="967.2309" y="603.2946"/><rect fill="#FFFFFF" height="2" style="stroke:#000000;stroke-width:1;" width="4" x="967.2309" y="607.2946"/><text fill="#000000" font-family="Verdana" font-size="14" lengthAdjust="spacing" textLength="170.4609" x="793.77" y="630.3698">Party Data Management</text></g><!--entity GATEWAY--><g class="entity" data-entity="GATEWAY" data-source-line="18" data-uid="ent0011" id="entity_GATEWAY"><rect fill="#FFFFFF" height="47.0146" rx="2.5" ry="2.5" style="stroke:#000000;stroke-width:1;" width="130.0977" x="214.95" y="269.4946"/><rect fill="#FFFFFF" height="10" style="stroke:#000000;stroke-width:1;" width="15" x="325.0477" y="274.4946"/><rect fill="#FFFFFF" height="2" style="stroke:#000000;stroke-width:1;" width="4" x="323.0477" y="276.4946"/><rect fill="#FFFFFF" height="2" style="stroke:#000000;stroke-width:1;" width="4" x="323.0477" y="280.4946"/><text fill="#000000" font-family="Verdana" font-size="14" lengthAdjust="spacing" textLength="90.0977" x="229.95" y="303.5698">API Gateway</text></g><!--entity BANKING--><g class="entity" data-entity="BANKING" data-source-line="19" data-uid="ent0012" id="entity_BANKING"><rect fill="#FFFFFF" height="47.0146" rx="2.5" ry="2.5" style="stroke:#000000;stroke-width:1;" width="160.4355" x="48.78" y="596.2946"/><rect fill="#FFFFFF" height="10" style="stroke:#000000;stroke-width:1;" width="15" x="189.2155" y="601.2946"/><rect fill="#FFFFFF" height="2" style="stroke:#000000;stroke-width:1;" width="4" x="187.2155" y="603.2946"/><rect fill="#FFFFFF" height="2" style="stroke:#000000;stroke-width:1;" width="4" x="187.2155" y="607.2946"/><text fill="#000000" font-family="Verdana" font-size="14" lengthAdjust="spacing" textLength="120.4355" x="63.78" y="630.3698">Banking Services</text></g><!--entity AUTH_SERVICE--><g class="entity" data-entity="AUTH_SERVICE" data-source-line="20" data-uid="ent0013" id="entity_AUTH_SERVICE"><rect fill="#FFFFFF" height="47.0146" rx="2.5" ry="2.5" style="stroke:#000000;stroke-width:1;" width="190.165" x="186.92" y="422.3946"/><rect fill="#FFFFFF" height="10" style="stroke:#000000;stroke-width:1;" width="15" x="357.085" y="427.3946"/><rect fill="#FFFFFF" height="2" style="stroke:#000000;stroke-width:1;" width="4" x="355.085" y="429.3946"/><rect fill="#FFFFFF" height="2" style="stroke:#000000;stroke-width:1;" width="4" x="355.085" y="433.3946"/><text fill="#000000" font-family="Verdana" font-size="14" lengthAdjust="spacing" textLength="150.165" x="201.92" y="456.4698">Authorization Service</text></g><!--entity DB--><g class="entity" data-entity="DB" data-source-line="24" data-uid="ent0015" id="entity_DB"><path d="M100.42,773.8046 C100.42,763.8046 151.005,763.8046 151.005,763.8046 C151.005,763.8046 201.5899,763.8046 201.5899,773.8046 L201.5899,799.8193 C201.5899,809.8193 151.005,809.8193 151.005,809.8193 C151.005,809.8193 100.42,809.8193 100.42,799.8193 L100.42,773.8046" fill="#FFFFFF" style="stroke:#000000;stroke-width:1;"/><path d="M100.42,773.8046 C100.42,783.8046 151.005,783.8046 151.005,783.8046 C151.005,783.8046 201.5899,783.8046 201.5899,773.8046" fill="none" style="stroke:#000000;stroke-width:1;"/><text fill="#000000" font-family="Verdana" font-size="14" lengthAdjust="spacing" textLength="81.1699" x="110.42" y="801.8798">PostgreSQL</text></g><!--entity REDIS--><g class="entity" data-entity="REDIS" data-source-line="25" data-uid="ent0016" id="entity_REDIS"><rect fill="#FFFFFF" height="47.0146" rx="2.5" ry="2.5" style="stroke:#000000;stroke-width:1;" width="125.5313" x="236.23" y="763.3046"/><rect fill="#FFFFFF" height="10" style="stroke:#000000;stroke-width:1;" width="15" x="341.7613" y="768.3046"/><rect fill="#FFFFFF" height="2" style="stroke:#000000;stroke-width:1;" width="4" x="339.7613" y="770.3046"/><rect fill="#FFFFFF" height="2" style="stroke:#000000;stroke-width:1;" width="4" x="339.7613" y="774.3046"/><text fill="#000000" font-family="Verdana" font-size="14" lengthAdjust="spacing" textLength="85.5313" x="251.23" y="797.3798">Redis Cache</text></g><g class="entity" data-entity="GMN31" data-source-line="47" data-uid="ent0032" id="entity_GMN31"><path d="M1147.86,393.5046 L1147.86,441.9046 L769.26,445.9046 L1147.86,449.9046 L1147.86,498.3005 A0,0 0 0 0 1147.86,498.3005 L1318.1442,498.3005 A0,0 0 0 0 1318.1442,498.3005 L1318.1442,403.5046 L1308.1442,393.5046 L1147.86,393.5046 A0,0 0 0 0 1147.86,393.5046" fill="#FFFFFF" style="stroke:#000000;stroke-width:1;"/><path d="M1308.1442,393.5046 L1308.1442,403.5046 L1318.1442,403.5046 L1308.1442,393.5046" fill="#FFFFFF" style="stroke:#000000;stroke-width:1;"/><text fill="#000000" font-family="Verdana" font-size="13" lengthAdjust="spacing" textLength="128.8638" x="1153.86" y="411.5744">OAuth2.1 Features:</text><text fill="#000000" font-family="Verdana" font-size="13" lengthAdjust="spacing" textLength="78.7554" x="1153.86" y="427.3738">- PKCE Flow</text><text fill="#000000" font-family="Verdana" font-size="13" lengthAdjust="spacing" textLength="108.3799" x="1153.86" y="443.1731">- Banking Realm</text><text fill="#000000" font-family="Verdana" font-size="13" lengthAdjust="spacing" textLength="147.2529" x="1153.86" y="458.9724">- JWT Tokens (RS256)</text><text fill="#000000" font-family="Verdana" font-size="13" lengthAdjust="spacing" textLength="149.2842" x="1153.86" y="474.7717">- Session Management</text><text fill="#000000" font-family="Verdana" font-size="13" lengthAdjust="spacing" textLength="100.166" x="1153.86" y="490.571">- Audit Logging</text></g><g class="entity" data-entity="GMN34" data-source-line="56" data-uid="ent0035" id="entity_GMN34"><path d="M1147.51,575.3046 L1147.51,615.8046 L989.47,619.8046 L1147.51,623.8046 L1147.51,664.3012 A0,0 0 0 0 1147.51,664.3012 L1340.4807,664.3012 A0,0 0 0 0 1340.4807,664.3012 L1340.4807,585.3046 L1330.4807,575.3046 L1147.51,575.3046 A0,0 0 0 0 1147.51,575.3046" fill="#FFFFFF" style="stroke:#000000;stroke-width:1;"/><path d="M1330.4807,575.3046 L1330.4807,585.3046 L1340.4807,585.3046 L1330.4807,575.3046" fill="#FFFFFF" style="stroke:#000000;stroke-width:1;"/><text fill="#000000" font-family="Verdana" font-size="13" lengthAdjust="spacing" textLength="130.0127" x="1153.51" y="593.3744">Authoritative Roles:</text><text fill="#000000" font-family="Verdana" font-size="13" lengthAdjust="spacing" textLength="171.9707" x="1153.51" y="609.1738">- Temporal Access Control</text><text fill="#000000" font-family="Verdana" font-size="13" lengthAdjust="spacing" textLength="114.9434" x="1153.51" y="624.9731">- Monetary Limits</text><text fill="#000000" font-family="Verdana" font-size="13" lengthAdjust="spacing" textLength="142.4351" x="1153.51" y="640.7724">- Business Unit Scope</text><text fill="#000000" font-family="Verdana" font-size="13" lengthAdjust="spacing" textLength="146.1675" x="1153.51" y="656.5717">- Compliance Tracking</text></g><!--link WEB to GATEWAY--><g class="link" data-entity-1="WEB" data-entity-2="GATEWAY" data-source-line="29" data-uid="lnk17" id="link_WEB_GATEWAY"><path d="M228.12,168.9146 C215.72,177.0146 204.04,187.4446 197,200.4946 C182.69,227.0146 204.0392,248.7459 230.7692,265.8859" fill="none" id="WEB-to-GATEWAY" style="stroke:#000000;stroke-width:1;"/><polygon fill="#000000" points="235.82,269.1246,230.4029,260.8993,231.611,266.4257,226.0846,267.6337,235.82,269.1246" style="stroke:#000000;stroke-width:1;"/><text fill="#000000" font-family="Verdana" font-size="13" lengthAdjust="spacing" textLength="118.606" x="198" y="214.5644">1. Access Request</text></g><!--link GATEWAY to WEB--><g class="link" data-entity-1="GATEWAY" data-entity-2="WEB" data-source-line="40" data-uid="lnk28" id="link_GATEWAY_WEB"><path d="M300.67,269.1846 C314.59,250.9746 329.05,224.5946 321,200.4946 C317.17,189.0346 313.6824,182.7041 306.2924,173.6441" fill="none" id="GATEWAY-to-WEB" style="stroke:#000000;stroke-width:1;"/><polygon fill="#000000" points="302.5,168.9946,305.089,178.4971,305.6604,172.8692,311.2883,173.4405,302.5,168.9946" style="stroke:#000000;stroke-width:1;"/><text fill="#000000" font-family="Verdana" font-size="13" lengthAdjust="spacing" textLength="137.6108" x="324.31" y="214.5644">12. Secure Response</text></g><!--link GATEWAY to KEYCLOAK--><g class="link" data-entity-1="GATEWAY" data-entity-2="KEYCLOAK" data-source-line="30" data-uid="lnk18" id="link_GATEWAY_KEYCLOAK"><path d="M345.53,293.8746 C406.95,296.4246 499.48,307.3246 569,346.5046 C601.18,364.6446 624.192,394.2092 639.162,417.1592" fill="none" id="GATEWAY-to-KEYCLOAK" style="stroke:#000000;stroke-width:1;"/><polygon fill="#000000" points="642.44,422.1846,640.8733,412.4612,639.7083,417.9968,634.1727,416.8318,642.44,422.1846" style="stroke:#000000;stroke-width:1;"/><text fill="#000000" font-family="Verdana" font-size="13" lengthAdjust="spacing" textLength="137.7251" x="593.19" y="360.5744">2. OAuth2.1 Redirect</text></g><!--link KEYCLOAK to GATEWAY--><g class="link" data-entity-1="KEYCLOAK" data-entity-2="GATEWAY" data-source-line="35" data-uid="lnk23" id="link_KEYCLOAK_GATEWAY"><path d="M601.57,422.0546 C553.23,401.8646 480.59,371.7846 417,346.5046 C392.15,336.6346 370.2362,328.1625 346.4262,319.0825" fill="none" id="KEYCLOAK-to-GATEWAY" style="stroke:#000000;stroke-width:1;"/><polygon fill="#000000" points="340.82,316.9446,347.804,323.889,345.4918,318.7262,350.6546,316.4141,340.82,316.9446" style="stroke:#000000;stroke-width:1;"/><text fill="#000000" font-family="Verdana" font-size="13" lengthAdjust="spacing" textLength="88.4736" x="457.26" y="360.5744">7. JWT Token</text></g><!--link KEYCLOAK to LDAP--><g class="link" data-entity-1="KEYCLOAK" data-entity-2="LDAP" data-source-line="31" data-uid="lnk19" id="link_KEYCLOAK_LDAP"><path d="M544.78,469.8646 C513.74,481.9446 483.48,500.3346 465,528.3046 C444.69,559.0346 472.33,579.1002 512.2,593.7902" fill="none" id="KEYCLOAK-to-LDAP" style="stroke:#000000;stroke-width:1;"/><polygon fill="#000000" points="517.83,595.8646,510.7679,588.9997,513.1383,594.136,508.0021,596.5064,517.83,595.8646" style="stroke:#000000;stroke-width:1;"/><text fill="#000000" font-family="Verdana" font-size="13" lengthAdjust="spacing" textLength="146.4531" x="466" y="542.3744">3. Identity Verification</text></g><!--link LDAP to KEYCLOAK--><g class="link" data-entity-1="LDAP" data-entity-2="KEYCLOAK" data-source-line="32" data-uid="lnk20" id="link_LDAP_KEYCLOAK"><path d="M617,595.8846 C625.62,562.9546 639.9013,508.4092 648.5013,475.5392" fill="none" id="LDAP-to-KEYCLOAK" style="stroke:#000000;stroke-width:1;"/><polygon fill="#000000" points="650.02,469.7346,643.8722,477.4291,648.7544,474.5718,651.6117,479.454,650.02,469.7346" style="stroke:#000000;stroke-width:1;"/><text fill="#000000" font-family="Verdana" font-size="13" lengthAdjust="spacing" textLength="142.3843" x="634.5" y="542.3744">4. User Authenticated</text></g><!--link KEYCLOAK to PARTY_DB--><g class="link" data-entity-1="KEYCLOAK" data-entity-2="PARTY_DB" data-source-line="33" data-uid="lnk21" id="link_KEYCLOAK_PARTY_DB"><path d="M769.21,463.0046 C844.53,476.3046 933.76,497.9446 957,528.3046 C974.85,551.6246 953.7376,574.2227 927.9476,592.3627" fill="none" id="KEYCLOAK-to-PARTY_DB" style="stroke:#000000;stroke-width:1;"/><polygon fill="#000000" points="923.04,595.8146,932.7027,593.9085,927.1297,592.938,928.1002,587.3651,923.04,595.8146" style="stroke:#000000;stroke-width:1;"/><text fill="#000000" font-family="Verdana" font-size="13" lengthAdjust="spacing" textLength="118.4219" x="963.86" y="542.3744">5. Role Resolution</text></g><!--link PARTY_DB to KEYCLOAK--><g class="link" data-entity-1="PARTY_DB" data-entity-2="KEYCLOAK" data-source-line="34" data-uid="lnk22" id="link_PARTY_DB_KEYCLOAK"><path d="M861.7,595.9546 C842.5,576.8446 813.6,549.3946 786,528.3046 C757.54,506.5546 728.2784,488.2252 701.9984,472.8452" fill="none" id="PARTY_DB-to-KEYCLOAK" style="stroke:#000000;stroke-width:1;"/><polygon fill="#000000" points="696.82,469.8146,702.5672,477.8127,701.1353,472.3401,706.608,470.9082,696.82,469.8146" style="stroke:#000000;stroke-width:1;"/><text fill="#000000" font-family="Verdana" font-size="13" lengthAdjust="spacing" textLength="114.1436" x="806.86" y="542.3744">6. Business Roles</text></g><!--link GATEWAY to AUTH_SERVICE--><g class="link" data-entity-1="GATEWAY" data-entity-2="AUTH_SERVICE" data-source-line="36" data-uid="lnk24" id="link_GATEWAY_AUTH_SERVICE"><path d="M280.3,316.9146 C280.68,345.4446 281.2397,387.8651 281.6197,416.2651" fill="none" id="GATEWAY-to-AUTH_SERVICE" style="stroke:#000000;stroke-width:1;"/><polygon fill="#000000" points="281.7,422.2646,285.5792,413.2119,281.6331,417.2651,277.5799,413.3189,281.7,422.2646" style="stroke:#000000;stroke-width:1;"/><text fill="#000000" font-family="Verdana" font-size="13" lengthAdjust="spacing" textLength="126.2422" x="281.88" y="360.5744">8. Token Validation</text></g><!--link AUTH_SERVICE to BANKING--><g class="link" data-entity-1="AUTH_SERVICE" data-entity-2="BANKING" data-source-line="37" data-uid="lnk25" id="link_AUTH_SERVICE_BANKING"><path d="M223.85,469.7446 C184.34,486.5746 137.28,509.6946 126,528.3046 C113.7,548.6046 115.5273,570.6157 120.2673,590.0357" fill="none" id="AUTH_SERVICE-to-BANKING" style="stroke:#000000;stroke-width:1;"/><polygon fill="#000000" points="121.69,595.8646,123.4419,586.1728,120.5044,591.0072,115.67,588.0697,121.69,595.8646" style="stroke:#000000;stroke-width:1;"/><text fill="#000000" font-family="Verdana" font-size="13" lengthAdjust="spacing" textLength="145.0249" x="127" y="542.3744">9. Authorized Request</text></g><!--link BANKING to DB--><g class="link" data-entity-1="BANKING" data-entity-2="DB" data-source-line="38" data-uid="lnk26" id="link_BANKING_DB"><path d="M132.06,643.7446 C136.27,675.3546 143.0275,726.0072 147.2075,757.3772" fill="none" id="BANKING-to-DB" style="stroke:#000000;stroke-width:1;"/><polygon fill="#000000" points="148,763.3246,150.7762,753.8751,147.3396,758.3684,142.8463,754.9318,148,763.3246" style="stroke:#000000;stroke-width:1;"/><text fill="#000000" font-family="Verdana" font-size="13" lengthAdjust="spacing" textLength="120.9609" x="141.66" y="708.3744">10. Business Logic</text></g><!--link BANKING to GATEWAY--><g class="link" data-entity-1="BANKING" data-entity-2="GATEWAY" data-source-line="39" data-uid="lnk27" id="link_BANKING_GATEWAY"><path d="M113.78,595.8046 C85.81,550.3446 33.1,447.4546 79,378.3946 C108.96,333.3246 162.2996,313.5149 208.7296,303.7049" fill="none" id="BANKING-to-GATEWAY" style="stroke:#000000;stroke-width:1;"/><polygon fill="#000000" points="214.6,302.4646,204.9675,300.4115,209.708,303.4982,206.6213,308.2387,214.6,302.4646" style="stroke:#000000;stroke-width:1;"/><text fill="#000000" font-family="Verdana" font-size="13" lengthAdjust="spacing" textLength="88.1182" x="80" y="451.4744">11. Response</text></g><!--link AUTH_SERVICE to REDIS--><g class="link" data-entity-1="AUTH_SERVICE" data-entity-2="REDIS" data-source-line="43" data-uid="lnk29" id="link_AUTH_SERVICE_REDIS"><path d="M283.14,469.6646 C286.24,531.4046 294.4695,695.5321 297.5595,757.1521" fill="none" id="AUTH_SERVICE-to-REDIS" style="stroke:#000000;stroke-width:1;"/><polygon fill="#000000" points="297.86,763.1446,301.4042,753.9556,297.6096,758.1509,293.4143,754.3562,297.86,763.1446" style="stroke:#000000;stroke-width:1;"/><text fill="#000000" font-family="Verdana" font-size="13" lengthAdjust="spacing" textLength="83.7637" x="294.02" y="625.3744">Token Cache</text></g><!--link PARTY_DB to REDIS--><g class="link" data-entity-1="PARTY_DB" data-entity-2="REDIS" data-source-line="44" data-uid="lnk30" id="link_PARTY_DB_REDIS"><path d="M808.31,643.7046 C782.83,651.3246 754.21,659.7846 728,667.3046 C598.22,704.5746 451.5118,744.6178 367.7818,767.2678" fill="none" id="PARTY_DB-to-REDIS" style="stroke:#000000;stroke-width:1;"/><polygon fill="#000000" points="361.99,768.8346,371.7222,770.3457,366.8165,767.529,369.6332,762.6233,361.99,768.8346" style="stroke:#000000;stroke-width:1;"/><text fill="#000000" font-family="Verdana" font-size="13" lengthAdjust="spacing" textLength="72.4395" x="623.27" y="708.3744">Role Cache</text></g><!--SRC=[PLHDRzD04BtxLmmvy76eHGijq0EIaxWb96c3xJQg05LRUvgiuko6tKshWFZlpEx6No6No3Dlnc_clV4BiyGrmgPaN0I1uQP4k8wsPdaI7eFzHs5upWoN0bwwW5Jyjt-ELBxa1dEpLVX3nCAWsYYk4VfChBXOGBhJ1jT1i67vYYqGUeEIKp-8DfjotrJtu4y0zFi-nuUwa00_WMcOntsVdCe7Jiog-FIwFvh4FfKjkIfWnfJPsRnsWEpBA1dUpw8akml-jWZKeuqAEnYLJDWELKrYZBkyb6pLx215zOJADHt7TuF9TJJsqCamcZLjPae-yM8Fj2aFyhI6p32OCa4KreHt6CVjVjZlq6lDNosefXRDHd3933wpdMjm6MNnFBhpoNhZn9Rdw9VGZwx6ewlBVNb7kZtEmQARxCjz6YUteq7SOUDeT_PJKEI1aS8pgSr2OVfjOZiClKgvN6-ai0Bt4YouXW7BbzYpY2GUZbBR_DMXgIvA-HoGpd1qzBcQ2SxXE8Gefq6e57zjKPkWobbSfGG1Jy96A_jMHNuCwhm5Ew7EuLtOg7MBYZ_k6GGkVz3rVGWt6bMRB1RTjfM0X3uD8P5apmIrBBUkQPqzQ7mMGd-hkN2JKOtkDcqMy264h_CCChb2qPczBHVXFeOU0xUiv8MVg0EnDNid4FnJM1yn5lLkgxp5kecEtxPuJkI2vnrCIoSIYiOctJLsQ5f9AKtof9ZJ1w91aGUiCSYk_nDrFg4wFvBpJtUL5S3js-S38Gs2uekb0VdOljBQ61V8x4TAdrFm26PZUflpdNsgJYT1LgvTfDwxXjT9Ud9wziQ5Kzg5TMnpo2uSRGjkx8uMTY8K1LW-XwpgSuTg_uQqUa9l0iyhGxeVnShA-GCfZ9Aboqtfi0nJzBtYQswqPru9T2E8GPhB3RhuWEwmv4pa29cYO-xm-WS0]--></g></svg>