<svg xmlns="http://www.w3.org/2000/svg" xmlns:xlink="http://www.w3.org/1999/xlink" contentStyleType="text/css" data-diagram-type="SEQUENCE" height="513px" preserveAspectRatio="none" style="width:726px;height:513px;background:#FFFFFF;" version="1.1" viewBox="0 0 726 513" width="726px" zoomAndPan="magnify"><title>Loan Application Process Flow</title><defs/><g><text fill="#000000" font-family="sans-serif" font-size="14" font-weight="bold" lengthAdjust="spacing" textLength="219.3516" x="252.6887" y="28.5352">Loan Application Process Flow</text><g><title>Bank Customer</title><rect fill="#000000" fill-opacity="0.00000" height="313.1055" width="8" x="55.5156" y="118.9766"/><line style="stroke:#181818;stroke-width:0.5;stroke-dasharray:5.0,5.0;" x1="59" x2="59" y1="118.9766" y2="432.082"/></g><g><title>Web Portal</title><rect fill="#000000" fill-opacity="0.00000" height="313.1055" width="8" x="233.2749" y="118.9766"/><line style="stroke:#181818;stroke-width:0.5;stroke-dasharray:5.0,5.0;" x1="237.2256" x2="237.2256" y1="118.9766" y2="432.082"/></g><g><title>Loan Service</title><rect fill="#000000" fill-opacity="0.00000" height="313.1055" width="8" x="393.54" y="118.9766"/><line style="stroke:#181818;stroke-width:0.5;stroke-dasharray:5.0,5.0;" x1="397.417" x2="397.417" y1="118.9766" y2="432.082"/></g><g><title>Customer Service</title><rect fill="#000000" fill-opacity="0.00000" height="313.1055" width="8" x="535.0415" y="118.9766"/><line style="stroke:#181818;stroke-width:0.5;stroke-dasharray:5.0,5.0;" x1="538.1875" x2="538.1875" y1="118.9766" y2="432.082"/></g><g><title>Database</title><rect fill="#000000" fill-opacity="0.00000" height="313.1055" width="8" x="678.3965" y="118.9766"/><line style="stroke:#181818;stroke-width:0.5;stroke-dasharray:5.0,5.0;" x1="682.064" x2="682.064" y1="118.9766" y2="432.082"/></g><g class="participant participant-head" data-participant="Customer"><text fill="#000000" font-family="sans-serif" font-size="14" lengthAdjust="spacing" textLength="103.0313" x="5" y="116.0234">Bank Customer</text><ellipse cx="59.5156" cy="50.9883" fill="#E2E2F0" rx="8" ry="8" style="stroke:#181818;stroke-width:0.5;"/><path d="M59.5156,58.9883 L59.5156,85.9883 M46.5156,66.9883 L72.5156,66.9883 M59.5156,85.9883 L46.5156,100.9883 M59.5156,85.9883 L72.5156,100.9883" fill="none" style="stroke:#181818;stroke-width:0.5;"/></g><g class="participant participant-tail" data-participant="Customer"><text fill="#000000" font-family="sans-serif" font-size="14" lengthAdjust="spacing" textLength="103.0313" x="5" y="444.6172">Bank Customer</text><ellipse cx="59.5156" cy="456.0703" fill="#E2E2F0" rx="8" ry="8" style="stroke:#181818;stroke-width:0.5;"/><path d="M59.5156,464.0703 L59.5156,491.0703 M46.5156,472.0703 L72.5156,472.0703 M59.5156,491.0703 L46.5156,506.0703 M59.5156,491.0703 L72.5156,506.0703" fill="none" style="stroke:#181818;stroke-width:0.5;"/></g><g class="participant participant-head" data-participant="Portal"><rect fill="#E2E2F0" height="30.4883" rx="2.5" ry="2.5" style="stroke:#181818;stroke-width:0.5;" width="86.0986" x="194.2256" y="87.4883"/><text fill="#000000" font-family="sans-serif" font-size="14" lengthAdjust="spacing" textLength="72.0986" x="201.2256" y="108.0234">Web Portal</text></g><g class="participant participant-tail" data-participant="Portal"><rect fill="#E2E2F0" height="30.4883" rx="2.5" ry="2.5" style="stroke:#181818;stroke-width:0.5;" width="86.0986" x="194.2256" y="431.082"/><text fill="#000000" font-family="sans-serif" font-size="14" lengthAdjust="spacing" textLength="72.0986" x="201.2256" y="451.6172">Web Portal</text></g><g class="participant participant-head" data-participant="LoanSvc"><rect fill="#E2E2F0" height="30.4883" rx="2.5" ry="2.5" style="stroke:#181818;stroke-width:0.5;" width="98.2461" x="348.417" y="87.4883"/><text fill="#000000" font-family="sans-serif" font-size="14" lengthAdjust="spacing" textLength="84.2461" x="355.417" y="108.0234">Loan Service</text></g><g class="participant participant-tail" data-participant="LoanSvc"><rect fill="#E2E2F0" height="30.4883" rx="2.5" ry="2.5" style="stroke:#181818;stroke-width:0.5;" width="98.2461" x="348.417" y="431.082"/><text fill="#000000" font-family="sans-serif" font-size="14" lengthAdjust="spacing" textLength="84.2461" x="355.417" y="451.6172">Loan Service</text></g><g class="participant participant-head" data-participant="CustomerSvc"><rect fill="#E2E2F0" height="30.4883" rx="2.5" ry="2.5" style="stroke:#181818;stroke-width:0.5;" width="131.708" x="473.1875" y="87.4883"/><text fill="#000000" font-family="sans-serif" font-size="14" lengthAdjust="spacing" textLength="117.708" x="480.1875" y="108.0234">Customer Service</text></g><g class="participant participant-tail" data-participant="CustomerSvc"><rect fill="#E2E2F0" height="30.4883" rx="2.5" ry="2.5" style="stroke:#181818;stroke-width:0.5;" width="131.708" x="473.1875" y="431.082"/><text fill="#000000" font-family="sans-serif" font-size="14" lengthAdjust="spacing" textLength="117.708" x="480.1875" y="451.6172">Customer Service</text></g><g class="participant participant-head" data-participant="DB"><rect fill="#E2E2F0" height="30.4883" rx="2.5" ry="2.5" style="stroke:#181818;stroke-width:0.5;" width="76.665" x="644.064" y="87.4883"/><text fill="#000000" font-family="sans-serif" font-size="14" lengthAdjust="spacing" textLength="62.665" x="651.064" y="108.0234">Database</text></g><g class="participant participant-tail" data-participant="DB"><rect fill="#E2E2F0" height="30.4883" rx="2.5" ry="2.5" style="stroke:#181818;stroke-width:0.5;" width="76.665" x="644.064" y="431.082"/><text fill="#000000" font-family="sans-serif" font-size="14" lengthAdjust="spacing" textLength="62.665" x="651.064" y="451.6172">Database</text></g><g class="message" data-participant-1="Customer" data-participant-2="Portal"><polygon fill="#181818" points="225.2749,146.2871,235.2749,150.2871,225.2749,154.2871,229.2749,150.2871" style="stroke:#181818;stroke-width:1;"/><line style="stroke:#181818;stroke-width:1;" x1="59.5156" x2="231.2749" y1="150.2871" y2="150.2871"/><text fill="#000000" font-family="sans-serif" font-size="13" lengthAdjust="spacing" textLength="153.7593" x="66.5156" y="145.5449">Submit Loan Application</text></g><g class="message" data-participant-1="Portal" data-participant-2="LoanSvc"><polygon fill="#181818" points="385.54,175.5977,395.54,179.5977,385.54,183.5977,389.54,179.5977" style="stroke:#181818;stroke-width:1;"/><line style="stroke:#181818;stroke-width:1;" x1="237.2749" x2="391.54" y1="179.5977" y2="179.5977"/><text fill="#000000" font-family="sans-serif" font-size="13" lengthAdjust="spacing" textLength="123.1191" x="244.2749" y="174.8555">Process Application</text></g><g class="message" data-participant-1="LoanSvc" data-participant-2="CustomerSvc"><polygon fill="#181818" points="527.0415,204.9082,537.0415,208.9082,527.0415,212.9082,531.0415,208.9082" style="stroke:#181818;stroke-width:1;"/><line style="stroke:#181818;stroke-width:1;" x1="397.54" x2="533.0415" y1="208.9082" y2="208.9082"/><text fill="#000000" font-family="sans-serif" font-size="13" lengthAdjust="spacing" textLength="116.0098" x="404.54" y="204.166">Validate Customer</text></g><g class="message" data-participant-1="CustomerSvc" data-participant-2="DB"><polygon fill="#181818" points="670.3965,234.2188,680.3965,238.2188,670.3965,242.2188,674.3965,238.2188" style="stroke:#181818;stroke-width:1;"/><line style="stroke:#181818;stroke-width:1;" x1="539.0415" x2="676.3965" y1="238.2188" y2="238.2188"/><text fill="#000000" font-family="sans-serif" font-size="13" lengthAdjust="spacing" textLength="119.355" x="546.0415" y="233.4766">Check Credit Score</text></g><g class="message" data-participant-1="DB" data-participant-2="CustomerSvc"><polygon fill="#181818" points="550.0415,263.5293,540.0415,267.5293,550.0415,271.5293,546.0415,267.5293" style="stroke:#181818;stroke-width:1;"/><line style="stroke:#181818;stroke-width:1;" x1="544.0415" x2="681.3965" y1="267.5293" y2="267.5293"/><text fill="#000000" font-family="sans-serif" font-size="13" lengthAdjust="spacing" textLength="117.3237" x="556.0415" y="262.7871">Return Credit Data</text></g><g class="message" data-participant-1="CustomerSvc" data-participant-2="LoanSvc"><polygon fill="#181818" points="408.54,292.8398,398.54,296.8398,408.54,300.8398,404.54,296.8398" style="stroke:#181818;stroke-width:1;"/><line style="stroke:#181818;stroke-width:1;" x1="402.54" x2="538.0415" y1="296.8398" y2="296.8398"/><text fill="#000000" font-family="sans-serif" font-size="13" lengthAdjust="spacing" textLength="117.5015" x="414.54" y="292.0977">Credit Assessment</text></g><g class="message" data-participant-1="LoanSvc" data-participant-2="DB"><polygon fill="#181818" points="670.3965,322.1504,680.3965,326.1504,670.3965,330.1504,674.3965,326.1504" style="stroke:#181818;stroke-width:1;"/><line style="stroke:#181818;stroke-width:1;" x1="397.54" x2="676.3965" y1="326.1504" y2="326.1504"/><text fill="#000000" font-family="sans-serif" font-size="13" lengthAdjust="spacing" textLength="122.8398" x="404.54" y="321.4082">Create Loan Record</text></g><g class="message" data-participant-1="DB" data-participant-2="LoanSvc"><polygon fill="#181818" points="408.54,351.4609,398.54,355.4609,408.54,359.4609,404.54,355.4609" style="stroke:#181818;stroke-width:1;"/><line style="stroke:#181818;stroke-width:1;" x1="402.54" x2="681.3965" y1="355.4609" y2="355.4609"/><text fill="#000000" font-family="sans-serif" font-size="13" lengthAdjust="spacing" textLength="83.3003" x="414.54" y="350.7188">Loan Created</text></g><g class="message" data-participant-1="LoanSvc" data-participant-2="Portal"><polygon fill="#181818" points="248.2749,380.7715,238.2749,384.7715,248.2749,388.7715,244.2749,384.7715" style="stroke:#181818;stroke-width:1;"/><line style="stroke:#181818;stroke-width:1;" x1="242.2749" x2="396.54" y1="384.7715" y2="384.7715"/><text fill="#000000" font-family="sans-serif" font-size="13" lengthAdjust="spacing" textLength="136.2651" x="254.2749" y="380.0293">Application Approved</text></g><g class="message" data-participant-1="Portal" data-participant-2="Customer"><polygon fill="#181818" points="70.5156,410.082,60.5156,414.082,70.5156,418.082,66.5156,414.082" style="stroke:#181818;stroke-width:1;"/><line style="stroke:#181818;stroke-width:1;" x1="64.5156" x2="236.2749" y1="414.082" y2="414.082"/><text fill="#000000" font-family="sans-serif" font-size="13" lengthAdjust="spacing" textLength="117.1714" x="76.5156" y="409.3398">Loan Confirmation</text></g><!--SRC=[PP9DReGm38NtEKKqNVS2NLGQGBFgOZH8qxK9RXi12N8ClNvD-0ibgyJ-R3y_9JJMzK3GwGfCyqr-S7NkMq_wvHQFKcovHVtXmUbhtxVM05llz9symH3qhVM_Ie5XgRbau1gT3u5zXtJH4BQ7aYbiZUt1iRvyOgNldXZQ2CtN8n87baYZDHYXAL2EvaYjxG_a6ZpH1J1K46Qgo9JQob_V5n7wJPT3rLa-RQmMGD15Yh2h2octPWLCb0ZyXDRMmBYRakO5BpAXyXyqOY9XBI9AumcLn4_D7iW3kPMRDllVRLUvGDSGH6k7ZbEDyr32ILZS-O4oj5w6xarYRkRgj7xpBVqTSYS_2hYRjdczjlBkor8tU_O7]--></g></svg>