<svg xmlns="http://www.w3.org/2000/svg" xmlns:xlink="http://www.w3.org/1999/xlink" contentStyleType="text/css" height="479px" preserveAspectRatio="none" style="width:632px;height:479px;background:#FFFFFF;" version="1.1" viewBox="0 0 632 479" width="632px" zoomAndPan="magnify"><title>Enterprise Loan Management System - Core Architecture</title><defs/><g><text fill="#000000" font-family="sans-serif" font-size="14" font-weight="bold" lengthAdjust="spacing" textLength="411.3867" x="103.3066" y="23.5352">Enterprise Loan Management System - Core Architecture</text><!--cluster Client Applications--><g id="cluster_Client Applications"><path d="M140.5,43.4883 L278.1914,43.4883 A3.75,3.75 0 0 1 280.6914,45.9883 L287.6914,65.9766 L577.5,65.9766 A2.5,2.5 0 0 1 580,68.4766 L580,127.9883 A2.5,2.5 0 0 1 577.5,130.4883 L140.5,130.4883 A2.5,2.5 0 0 1 138,127.9883 L138,45.9883 A2.5,2.5 0 0 1 140.5,43.4883 " fill="none" style="stroke:#000000;stroke-width:1.5;"/><line style="stroke:#000000;stroke-width:1.5;" x1="138" x2="287.6914" y1="65.9766" y2="65.9766"/><text fill="#000000" font-family="sans-serif" font-size="14" font-weight="bold" lengthAdjust="spacing" textLength="136.6914" x="142" y="59.0234">Client Applications</text></g><!--cluster API Gateway--><g id="cluster_API Gateway"><path d="M8.5,154.4883 L98.668,154.4883 A3.75,3.75 0 0 1 101.168,156.9883 L108.168,176.9766 L456.5,176.9766 A2.5,2.5 0 0 1 459,179.4766 L459,238.9883 A2.5,2.5 0 0 1 456.5,241.4883 L8.5,241.4883 A2.5,2.5 0 0 1 6,238.9883 L6,156.9883 A2.5,2.5 0 0 1 8.5,154.4883 " fill="none" style="stroke:#000000;stroke-width:1.5;"/><line style="stroke:#000000;stroke-width:1.5;" x1="6" x2="108.168" y1="176.9766" y2="176.9766"/><text fill="#000000" font-family="sans-serif" font-size="14" font-weight="bold" lengthAdjust="spacing" textLength="89.168" x="10" y="170.0234">API Gateway</text></g><!--cluster Core Services--><g id="cluster_Core Services"><path d="M153.5,265.4883 L251.5908,265.4883 A3.75,3.75 0 0 1 254.0908,267.9883 L261.0908,287.9766 L622.5,287.9766 A2.5,2.5 0 0 1 625,290.4766 L625,349.9883 A2.5,2.5 0 0 1 622.5,352.4883 L153.5,352.4883 A2.5,2.5 0 0 1 151,349.9883 L151,267.9883 A2.5,2.5 0 0 1 153.5,265.4883 " fill="none" style="stroke:#000000;stroke-width:1.5;"/><line style="stroke:#000000;stroke-width:1.5;" x1="151" x2="261.0908" y1="287.9766" y2="287.9766"/><text fill="#000000" font-family="sans-serif" font-size="14" font-weight="bold" lengthAdjust="spacing" textLength="97.0908" x="155" y="281.0234">Core Services</text></g><!--cluster Data Layer--><g id="cluster_Data Layer"><path d="M186.5,376.4883 L264.4521,376.4883 A3.75,3.75 0 0 1 266.9521,378.9883 L273.9521,398.9766 L568.5,398.9766 A2.5,2.5 0 0 1 571,401.4766 L571,469.9883 A2.5,2.5 0 0 1 568.5,472.4883 L186.5,472.4883 A2.5,2.5 0 0 1 184,469.9883 L184,378.9883 A2.5,2.5 0 0 1 186.5,376.4883 " fill="none" style="stroke:#000000;stroke-width:1.5;"/><line style="stroke:#000000;stroke-width:1.5;" x1="184" x2="273.9521" y1="398.9766" y2="398.9766"/><text fill="#000000" font-family="sans-serif" font-size="14" font-weight="bold" lengthAdjust="spacing" textLength="76.9521" x="188" y="392.0234">Data Layer</text></g><!--entity WebApp--><g id="elem_WebApp"><rect fill="#F1F1F1" height="36.4883" rx="2.5" ry="2.5" style="stroke:#181818;stroke-width:0.5;" width="92.0986" x="472" y="78.4883"/><text fill="#000000" font-family="sans-serif" font-size="14" lengthAdjust="spacing" textLength="72.0986" x="482" y="102.0234">Web Portal</text></g><!--entity MobileApp--><g id="elem_MobileApp"><rect fill="#F1F1F1" height="36.4883" rx="2.5" ry="2.5" style="stroke:#181818;stroke-width:0.5;" width="123.9131" x="313" y="78.4883"/><text fill="#000000" font-family="sans-serif" font-size="14" lengthAdjust="spacing" textLength="103.9131" x="323" y="102.0234">Mobile Banking</text></g><!--entity AdminApp--><g id="elem_AdminApp"><rect fill="#F1F1F1" height="36.4883" rx="2.5" ry="2.5" style="stroke:#181818;stroke-width:0.5;" width="123.2637" x="154.5" y="78.4883"/><text fill="#000000" font-family="sans-serif" font-size="14" lengthAdjust="spacing" textLength="103.2637" x="164.5" y="102.0234">Admin Console</text></g><!--entity Gateway--><g id="elem_Gateway"><rect fill="#F1F1F1" height="36.4883" rx="2.5" ry="2.5" style="stroke:#181818;stroke-width:0.5;" width="134.6729" x="307.5" y="189.4883"/><text fill="#000000" font-family="sans-serif" font-size="14" lengthAdjust="spacing" textLength="114.6729" x="317.5" y="213.0234">Security Gateway</text></g><!--entity RateLimit--><g id="elem_RateLimit"><rect fill="#F1F1F1" height="36.4883" rx="2.5" ry="2.5" style="stroke:#181818;stroke-width:0.5;" width="101.4434" x="171.5" y="189.4883"/><text fill="#000000" font-family="sans-serif" font-size="14" lengthAdjust="spacing" textLength="81.4434" x="181.5" y="213.0234">Rate Limiter</text></g><!--entity LoadBalancer--><g id="elem_LoadBalancer"><rect fill="#F1F1F1" height="36.4883" rx="2.5" ry="2.5" style="stroke:#181818;stroke-width:0.5;" width="113.9873" x="22" y="189.4883"/><text fill="#000000" font-family="sans-serif" font-size="14" lengthAdjust="spacing" textLength="93.9873" x="32" y="213.0234">Load Balancer</text></g><!--entity CustomerSvc--><g id="elem_CustomerSvc"><rect fill="#F1F1F1" height="36.4883" rx="2.5" ry="2.5" style="stroke:#181818;stroke-width:0.5;" width="137.708" x="306" y="300.4883"/><text fill="#000000" font-family="sans-serif" font-size="14" lengthAdjust="spacing" textLength="117.708" x="316" y="324.0234">Customer Service</text></g><!--entity LoanSvc--><g id="elem_LoanSvc"><rect fill="#F1F1F1" height="36.4883" rx="2.5" ry="2.5" style="stroke:#181818;stroke-width:0.5;" width="104.2461" x="167" y="300.4883"/><text fill="#000000" font-family="sans-serif" font-size="14" lengthAdjust="spacing" textLength="84.2461" x="177" y="324.0234">Loan Service</text></g><!--entity PaymentSvc--><g id="elem_PaymentSvc"><rect fill="#F1F1F1" height="36.4883" rx="2.5" ry="2.5" style="stroke:#181818;stroke-width:0.5;" width="129.3408" x="479.5" y="300.4883"/><text fill="#000000" font-family="sans-serif" font-size="14" lengthAdjust="spacing" textLength="109.3408" x="489.5" y="324.0234">Payment Service</text></g><!--entity DB--><g id="elem_DB"><path d="M200.5,421.4883 C200.5,411.4883 248.9248,411.4883 248.9248,411.4883 C248.9248,411.4883 297.3496,411.4883 297.3496,421.4883 L297.3496,446.9766 C297.3496,456.9766 248.9248,456.9766 248.9248,456.9766 C248.9248,456.9766 200.5,456.9766 200.5,446.9766 L200.5,421.4883 " fill="#F1F1F1" style="stroke:#181818;stroke-width:0.5;"/><path d="M200.5,421.4883 C200.5,431.4883 248.9248,431.4883 248.9248,431.4883 C248.9248,431.4883 297.3496,431.4883 297.3496,421.4883 " fill="none" style="stroke:#181818;stroke-width:0.5;"/><text fill="#000000" font-family="sans-serif" font-size="14" lengthAdjust="spacing" textLength="76.8496" x="210.5" y="449.0234">PostgreSQL</text></g><!--entity Cache--><g id="elem_Cache"><rect fill="#F1F1F1" height="36.4883" rx="35" ry="35" style="stroke:#181818;stroke-width:0.5;" width="102.1543" x="453" y="415.9883"/><text fill="#000000" font-family="sans-serif" font-size="14" lengthAdjust="spacing" textLength="82.1543" x="463" y="439.5234">Redis Cache</text></g><!--entity Events--><g id="elem_Events"><path d="M337.5,420.9883 L412.3662,420.9883 C417.3662,420.9883 417.3662,434.2324 417.3662,434.2324 C417.3662,434.2324 417.3662,447.4766 412.3662,447.4766 L337.5,447.4766 C332.5,447.4766 332.5,434.2324 332.5,434.2324 C332.5,434.2324 332.5,420.9883 337.5,420.9883 " fill="#F1F1F1" style="stroke:#181818;stroke-width:0.5;"/><path d="M412.3662,420.9883 C407.3662,420.9883 407.3662,434.2324 407.3662,434.2324 C407.3662,447.4766 412.3662,447.4766 412.3662,447.4766 " fill="none" style="stroke:#181818;stroke-width:0.5;"/><text fill="#000000" font-family="sans-serif" font-size="14" lengthAdjust="spacing" textLength="64.8662" x="337.5" y="439.5234">Event Bus</text></g><!--link WebApp to Gateway--><g id="link_WebApp_Gateway"><path d="M495.34,114.7583 C468.56,135.1683 429.0514,165.2804 402.3214,185.6604 " fill="none" id="WebApp-to-Gateway" style="stroke:#181818;stroke-width:1.0;"/><polygon fill="#181818" points="397.55,189.2983,407.1323,187.0224,401.5261,186.2667,402.2818,180.6606,397.55,189.2983" style="stroke:#181818;stroke-width:1.0;"/></g><!--link MobileApp to Gateway--><g id="link_MobileApp_Gateway"><path d="M375,114.5183 C375,134.8783 375,162.7583 375,183.2183 " fill="none" id="MobileApp-to-Gateway" style="stroke:#181818;stroke-width:1.0;"/><polygon fill="#181818" points="375,189.2183,379,180.2183,375,184.2183,371,180.2183,375,189.2183" style="stroke:#181818;stroke-width:1.0;"/></g><!--link AdminApp to Gateway--><g id="link_AdminApp_Gateway"><path d="M242.85,114.9883 C256.95,124.2483 274.48,135.8783 290,146.4883 C310.73,160.6583 329.1166,173.6422 346.0666,185.7422 " fill="none" id="AdminApp-to-Gateway" style="stroke:#181818;stroke-width:1.0;"/><polygon fill="#181818" points="350.95,189.2283,345.949,180.7436,346.8805,186.3232,341.3009,187.2548,350.95,189.2283" style="stroke:#181818;stroke-width:1.0;"/></g><!--link Gateway to CustomerSvc--><g id="link_Gateway_CustomerSvc"><path d="M375,225.5183 C375,245.8783 375,273.7583 375,294.2183 " fill="none" id="Gateway-to-CustomerSvc" style="stroke:#181818;stroke-width:1.0;"/><polygon fill="#181818" points="375,300.2183,379,291.2183,375,295.2183,371,291.2183,375,300.2183" style="stroke:#181818;stroke-width:1.0;"/></g><!--link Gateway to LoanSvc--><g id="link_Gateway_LoanSvc"><path d="M341.01,225.9083 C324.82,234.6883 305.44,245.9183 289,257.4883 C270.41,270.5683 255.3296,283.5403 241.6396,296.1103 " fill="none" id="Gateway-to-LoanSvc" style="stroke:#181818;stroke-width:1.0;"/><polygon fill="#181818" points="237.22,300.1683,246.5547,297.0277,240.903,296.7866,241.144,291.1349,237.22,300.1683" style="stroke:#181818;stroke-width:1.0;"/></g><!--link Gateway to PaymentSvc--><g id="link_Gateway_PaymentSvc"><path d="M408.18,225.9683 C424.64,234.9383 444.66,246.3183 462,257.4883 C482.91,270.9583 500.8948,284.1424 517.1148,296.5524 " fill="none" id="Gateway-to-PaymentSvc" style="stroke:#181818;stroke-width:1.0;"/><polygon fill="#181818" points="521.88,300.1983,517.1628,291.5526,517.909,297.16,512.3016,297.9063,521.88,300.1983" style="stroke:#181818;stroke-width:1.0;"/></g><!--link CustomerSvc to DB--><g id="link_CustomerSvc_DB"><path d="M352.66,336.9483 C341.2,346.1083 327.13,357.6483 315,368.4883 C299.59,382.2583 287.1843,394.2773 274.4743,407.0373 " fill="none" id="CustomerSvc-to-DB" style="stroke:#181818;stroke-width:1.0;"/><polygon fill="#181818" points="270.24,411.2883,279.4254,407.7347,273.7686,407.7458,273.7575,402.089,270.24,411.2883" style="stroke:#181818;stroke-width:1.0;"/></g><!--link LoanSvc to DB--><g id="link_LoanSvc_DB"><path d="M223.56,336.7283 C228.83,356.6983 236.0075,383.8173 241.7375,405.5073 " fill="none" id="LoanSvc-to-DB" style="stroke:#181818;stroke-width:1.0;"/><polygon fill="#181818" points="243.27,411.3083,244.8386,401.5851,241.9929,406.4741,237.1039,403.6285,243.27,411.3083" style="stroke:#181818;stroke-width:1.0;"/></g><!--link PaymentSvc to DB--><g id="link_PaymentSvc_DB"><path d="M516.3,336.9183 C500.91,345.6583 481.08,355.4383 462,360.4883 C430.38,368.8683 344.95,355.3283 315,368.4883 C294.32,377.5783 280.147,391.5321 268.217,406.4521 " fill="none" id="PaymentSvc-to-DB" style="stroke:#181818;stroke-width:1.0;"/><polygon fill="#181818" points="264.47,411.1383,273.2146,406.6071,267.5925,407.2332,266.9664,401.6111,264.47,411.1383" style="stroke:#181818;stroke-width:1.0;"/></g><!--link CustomerSvc to Cache--><g id="link_CustomerSvc_Cache"><path d="M396.95,336.8383 C408.44,346.0583 422.65,357.6883 435,368.4883 C452.78,384.0283 468.0585,398.3464 481.8085,411.5264 " fill="none" id="CustomerSvc-to-Cache" style="stroke:#181818;stroke-width:1.0;"/><polygon fill="#181818" points="486.14,415.6783,482.4107,406.5628,482.5304,412.2184,476.8749,412.3381,486.14,415.6783" style="stroke:#181818;stroke-width:1.0;"/></g><!--link LoanSvc to Cache--><g id="link_LoanSvc_Cache"><path d="M242.3,336.9383 C255.33,345.6783 272.28,355.4583 289,360.4883 C320.11,369.8483 405.11,355.7383 435,368.4883 C458.53,378.5283 475.2456,395.5981 487.6556,411.0681 " fill="none" id="LoanSvc-to-Cache" style="stroke:#181818;stroke-width:1.0;"/><polygon fill="#181818" points="491.41,415.7483,488.8985,406.225,488.2813,411.8481,482.6582,411.231,491.41,415.7483" style="stroke:#181818;stroke-width:1.0;"/></g><!--link PaymentSvc to Cache--><g id="link_PaymentSvc_Cache"><path d="M537.92,336.7283 C530.41,358.0583 519.6754,388.5198 512.1254,409.9298 " fill="none" id="PaymentSvc-to-Cache" style="stroke:#181818;stroke-width:1.0;"/><polygon fill="#181818" points="510.13,415.5883,516.8954,408.4308,511.7928,410.8729,509.3508,405.7703,510.13,415.5883" style="stroke:#181818;stroke-width:1.0;"/></g><!--link CustomerSvc to Events--><g id="link_CustomerSvc_Events"><path d="M375,336.7283 C375,359.7983 375,394.1583 375,414.5083 " fill="none" id="CustomerSvc-to-Events" style="stroke:#181818;stroke-width:1.0;"/><polygon fill="#181818" points="375,420.5083,379,411.5083,375,415.5083,371,411.5083,375,420.5083" style="stroke:#181818;stroke-width:1.0;"/></g><!--link LoanSvc to Events--><g id="link_LoanSvc_Events"><path d="M245.49,336.9683 C258.27,344.8783 274.04,353.9183 289,360.4883 C300.07,365.3583 304.76,362.0683 315,368.4883 C337.03,382.2983 352.758,401.3363 363.188,415.8463 " fill="none" id="LoanSvc-to-Events" style="stroke:#181818;stroke-width:1.0;"/><polygon fill="#181818" points="366.69,420.7183,364.6849,411.0757,363.7716,416.6583,358.189,415.745,366.69,420.7183" style="stroke:#181818;stroke-width:1.0;"/></g><!--link PaymentSvc to Events--><g id="link_PaymentSvc_Events"><path d="M512.24,336.9083 C497.26,344.7183 478.99,353.6783 462,360.4883 C450.78,364.9883 446.27,362.1083 436,368.4883 C413.74,382.3183 397.704,401.3841 387.044,415.8841 " fill="none" id="PaymentSvc-to-Events" style="stroke:#181818;stroke-width:1.0;"/><polygon fill="#181818" points="383.49,420.7183,392.0437,415.8363,386.4516,416.6898,385.5981,411.0977,383.49,420.7183" style="stroke:#181818;stroke-width:1.0;"/></g><!--SRC=[RP9DJiCm44RtESMeh7i5fBRy2Ab8XInO81PJPnGi4ZlOJb64k3lZILpSaApiv_VPut7yXpOTEcpXYEgZThOtrSusri7LdNo5FnlAjfqrP48PXeR0aGfeweQA8kZ0uDO4SftJdc1lqS0Z6gofvG2KWm_KmXfsrX5id7hNWUEzut371xC7grsZexlfkaOh3DeQluBl0lWx7mslBtI4WtK1cpT03ppbm5nwj4VD5MtHSFMrY2DQS3TLgmqNPhnjI5GXqVp9gjiS7k0U0ttXi51LIQftEWn9aNscyTnzPWnxtN8Bd7WHo7nkSXihlaI3Harg90bSb2UDBScTjAAbjkrw7snBBZcoMuBbIIqSRIxS21Qy0mxZ2sVgnAATbtY30M6F0xbKNyNaYFo_h0xMXzfH-RHVnHrkjhBErJc9FbEbkLnKxoJhCXBbiwUUXTjJB6BRUrcMcO-7Zxy7hDVNvzSu_mWNDBtv1IocWS2yMJbFZSbPre4YoyaQtssAfEcVdSY_q7ZXF3UIMNI4_z9JF_BuX6RvYVu2]--></g></svg>