<svg xmlns="http://www.w3.org/2000/svg" xmlns:xlink="http://www.w3.org/1999/xlink" contentStyleType="text/css" data-diagram-type="SEQUENCE" height="1609px" preserveAspectRatio="none" style="width:996px;height:1609px;background:#FFFFFF;" version="1.1" viewBox="0 0 996 1609" width="996px" zoomAndPan="magnify"><title>Multi-Platform Consent Management Flow</title><defs/><g><text fill="#000000" font-family="sans-serif" font-size="14" font-weight="bold" lengthAdjust="spacing" textLength="306.3525" x="341.0313" y="28.5352">Multi-Platform Consent Management Flow</text><rect fill="none" height="197.1738" style="stroke:#000000;stroke-width:1.5;" width="712.0483" x="267.3667" y="899.3613"/><rect fill="none" height="197.1738" style="stroke:#000000;stroke-width:1.5;" width="712.0483" x="267.3667" y="1270.0879"/><g><title>Customer</title><rect fill="#000000" fill-opacity="0.00000" height="1409.9063" width="8" x="36.9731" y="118.9766"/><line style="stroke:#181818;stroke-width:0.5;stroke-dasharray:5.0,5.0;" x1="40" x2="40" y1="118.9766" y2="1528.8828"/></g><g><title>Third Party</title><rect fill="#000000" fill-opacity="0.00000" height="1409.9063" width="8" x="127.0996" y="118.9766"/><line style="stroke:#181818;stroke-width:0.5;stroke-dasharray:5.0,5.0;" x1="130.9463" x2="130.9463" y1="118.9766" y2="1528.8828"/></g><g><title>Open Finance</title><rect fill="#000000" fill-opacity="0.00000" height="1409.9063" width="8" x="326.4854" y="118.9766"/><line style="stroke:#181818;stroke-width:0.5;stroke-dasharray:5.0,5.0;" x1="330.3667" x2="330.3667" y1="118.9766" y2="1528.8828"/></g><g><title>Consent</title><rect fill="#000000" fill-opacity="0.00000" height="1409.9063" width="8" x="543.3716" y="118.9766"/><line style="stroke:#181818;stroke-width:0.5;stroke-dasharray:5.0,5.0;" x1="546.4536" x2="546.4536" y1="118.9766" y2="1528.8828"/></g><g><title>Enterprise</title><rect fill="#000000" fill-opacity="0.00000" height="1409.9063" width="8" x="733.877" y="118.9766"/><line style="stroke:#181818;stroke-width:0.5;stroke-dasharray:5.0,5.0;" x1="737.5947" x2="737.5947" y1="118.9766" y2="1528.8828"/></g><g><title>AmanahFi</title><rect fill="#000000" fill-opacity="0.00000" height="1409.9063" width="8" x="825.7202" y="118.9766"/><line style="stroke:#181818;stroke-width:0.5;stroke-dasharray:5.0,5.0;" x1="829.1592" x2="829.1592" y1="118.9766" y2="1528.8828"/></g><g><title>Masrufi</title><rect fill="#000000" fill-opacity="0.00000" height="1409.9063" width="8" x="920.8481" y="118.9766"/><line style="stroke:#181818;stroke-width:0.5;stroke-dasharray:5.0,5.0;" x1="924.2813" x2="924.2813" y1="118.9766" y2="1528.8828"/></g><g class="participant participant-head" data-participant="Customer"><text fill="#000000" font-family="sans-serif" font-size="14" lengthAdjust="spacing" textLength="65.9463" x="5" y="116.0234">Customer</text><ellipse cx="40.9731" cy="50.9883" fill="#E2E2F0" rx="8" ry="8" style="stroke:#181818;stroke-width:0.5;"/><path d="M40.9731,58.9883 L40.9731,85.9883 M27.9731,66.9883 L53.9731,66.9883 M40.9731,85.9883 L27.9731,100.9883 M40.9731,85.9883 L53.9731,100.9883" fill="none" style="stroke:#181818;stroke-width:0.5;"/></g><g class="participant participant-tail" data-participant="Customer"><text fill="#000000" font-family="sans-serif" font-size="14" lengthAdjust="spacing" textLength="65.9463" x="5" y="1541.418">Customer</text><ellipse cx="40.9731" cy="1552.8711" fill="#E2E2F0" rx="8" ry="8" style="stroke:#181818;stroke-width:0.5;"/><path d="M40.9731,1560.8711 L40.9731,1587.8711 M27.9731,1568.8711 L53.9731,1568.8711 M40.9731,1587.8711 L27.9731,1602.8711 M40.9731,1587.8711 L53.9731,1602.8711" fill="none" style="stroke:#181818;stroke-width:0.5;"/></g><g class="participant participant-head" data-participant="TPP"><rect fill="#E2E2F0" height="46.9766" rx="2.5" ry="2.5" style="stroke:#181818;stroke-width:0.5;" width="88.3066" x="86.9463" y="71"/><text fill="#000000" font-family="sans-serif" font-size="14" lengthAdjust="spacing" textLength="74.3066" x="93.9463" y="91.5352">Third Party</text><text fill="#000000" font-family="sans-serif" font-size="14" lengthAdjust="spacing" textLength="27.2822" x="117.4585" y="108.0234">App</text></g><g class="participant participant-tail" data-participant="TPP"><rect fill="#E2E2F0" height="46.9766" rx="2.5" ry="2.5" style="stroke:#181818;stroke-width:0.5;" width="88.3066" x="86.9463" y="1527.8828"/><text fill="#000000" font-family="sans-serif" font-size="14" lengthAdjust="spacing" textLength="74.3066" x="93.9463" y="1548.418">Third Party</text><text fill="#000000" font-family="sans-serif" font-size="14" lengthAdjust="spacing" textLength="27.2822" x="117.4585" y="1564.9063">App</text></g><g class="participant participant-head" data-participant="Hub"><rect fill="#E2E2F0" height="46.9766" rx="2.5" ry="2.5" style="stroke:#181818;stroke-width:0.5;" width="106.2373" x="277.3667" y="71"/><text fill="#000000" font-family="sans-serif" font-size="14" lengthAdjust="spacing" textLength="92.2373" x="284.3667" y="91.5352">Open Finance</text><text fill="#000000" font-family="sans-serif" font-size="14" lengthAdjust="spacing" textLength="27.7881" x="316.5913" y="108.0234">Hub</text></g><g class="participant participant-tail" data-participant="Hub"><rect fill="#E2E2F0" height="46.9766" rx="2.5" ry="2.5" style="stroke:#181818;stroke-width:0.5;" width="106.2373" x="277.3667" y="1527.8828"/><text fill="#000000" font-family="sans-serif" font-size="14" lengthAdjust="spacing" textLength="92.2373" x="284.3667" y="1548.418">Open Finance</text><text fill="#000000" font-family="sans-serif" font-size="14" lengthAdjust="spacing" textLength="27.7881" x="316.5913" y="1564.9063">Hub</text></g><g class="participant participant-head" data-participant="Consent"><rect fill="#E2E2F0" height="46.9766" rx="2.5" ry="2.5" style="stroke:#181818;stroke-width:0.5;" width="69.8359" x="512.4536" y="71"/><text fill="#000000" font-family="sans-serif" font-size="14" lengthAdjust="spacing" textLength="55.8359" x="519.4536" y="91.5352">Consent</text><text fill="#000000" font-family="sans-serif" font-size="14" lengthAdjust="spacing" textLength="47.332" x="523.7056" y="108.0234">Service</text></g><g class="participant participant-tail" data-participant="Consent"><rect fill="#E2E2F0" height="46.9766" rx="2.5" ry="2.5" style="stroke:#181818;stroke-width:0.5;" width="69.8359" x="512.4536" y="1527.8828"/><text fill="#000000" font-family="sans-serif" font-size="14" lengthAdjust="spacing" textLength="55.8359" x="519.4536" y="1548.418">Consent</text><text fill="#000000" font-family="sans-serif" font-size="14" lengthAdjust="spacing" textLength="47.332" x="523.7056" y="1564.9063">Service</text></g><g class="participant participant-head" data-participant="Loans"><rect fill="#E2E2F0" height="46.9766" rx="2.5" ry="2.5" style="stroke:#181818;stroke-width:0.5;" width="82.5645" x="696.5947" y="71"/><text fill="#000000" font-family="sans-serif" font-size="14" lengthAdjust="spacing" textLength="68.5645" x="703.5947" y="91.5352">Enterprise</text><text fill="#000000" font-family="sans-serif" font-size="14" lengthAdjust="spacing" textLength="39.6211" x="718.0664" y="108.0234">Loans</text></g><g class="participant participant-tail" data-participant="Loans"><rect fill="#E2E2F0" height="46.9766" rx="2.5" ry="2.5" style="stroke:#181818;stroke-width:0.5;" width="82.5645" x="696.5947" y="1527.8828"/><text fill="#000000" font-family="sans-serif" font-size="14" lengthAdjust="spacing" textLength="68.5645" x="703.5947" y="1548.418">Enterprise</text><text fill="#000000" font-family="sans-serif" font-size="14" lengthAdjust="spacing" textLength="39.6211" x="718.0664" y="1564.9063">Loans</text></g><g class="participant participant-head" data-participant="Islamic"><rect fill="#E2E2F0" height="46.9766" rx="2.5" ry="2.5" style="stroke:#181818;stroke-width:0.5;" width="81.1221" x="789.1592" y="71"/><text fill="#000000" font-family="sans-serif" font-size="14" lengthAdjust="spacing" textLength="67.1221" x="796.1592" y="91.5352">AmanahFi</text><text fill="#000000" font-family="sans-serif" font-size="14" lengthAdjust="spacing" textLength="57.2988" x="801.0708" y="108.0234">Platform</text></g><g class="participant participant-tail" data-participant="Islamic"><rect fill="#E2E2F0" height="46.9766" rx="2.5" ry="2.5" style="stroke:#181818;stroke-width:0.5;" width="81.1221" x="789.1592" y="1527.8828"/><text fill="#000000" font-family="sans-serif" font-size="14" lengthAdjust="spacing" textLength="67.1221" x="796.1592" y="1548.418">AmanahFi</text><text fill="#000000" font-family="sans-serif" font-size="14" lengthAdjust="spacing" textLength="57.2988" x="801.0708" y="1564.9063">Platform</text></g><g class="participant participant-head" data-participant="Expense"><rect fill="#E2E2F0" height="46.9766" rx="2.5" ry="2.5" style="stroke:#181818;stroke-width:0.5;" width="89.1338" x="880.2813" y="71"/><text fill="#000000" font-family="sans-serif" font-size="14" lengthAdjust="spacing" textLength="50.5381" x="899.5791" y="91.5352">Masrufi</text><text fill="#000000" font-family="sans-serif" font-size="14" lengthAdjust="spacing" textLength="75.1338" x="887.2813" y="108.0234">Framework</text></g><g class="participant participant-tail" data-participant="Expense"><rect fill="#E2E2F0" height="46.9766" rx="2.5" ry="2.5" style="stroke:#181818;stroke-width:0.5;" width="89.1338" x="880.2813" y="1527.8828"/><text fill="#000000" font-family="sans-serif" font-size="14" lengthAdjust="spacing" textLength="50.5381" x="899.5791" y="1548.418">Masrufi</text><text fill="#000000" font-family="sans-serif" font-size="14" lengthAdjust="spacing" textLength="75.1338" x="887.2813" y="1564.9063">Framework</text></g><rect fill="#EEEEEE" height="3" style="stroke:#EEEEEE;stroke-width:1;" width="989.415" x="0" y="149.6318"/><line style="stroke:#000000;stroke-width:1;" x1="0" x2="989.415" y1="149.6318" y2="149.6318"/><line style="stroke:#000000;stroke-width:1;" x1="0" x2="989.415" y1="152.6318" y2="152.6318"/><rect fill="#EEEEEE" height="23.3105" style="stroke:#000000;stroke-width:2;" width="137.9951" x="425.71" y="138.9766"/><text fill="#000000" font-family="sans-serif" font-size="13" font-weight="bold" lengthAdjust="spacing" textLength="119.7104" x="431.71" y="155.5449">Consent Initiation</text><g class="message" data-participant-1="TPP" data-participant-2="Hub"><polygon fill="#181818" points="318.4854,204.9082,328.4854,208.9082,318.4854,212.9082,322.4854,208.9082" style="stroke:#181818;stroke-width:1;"/><line style="stroke:#181818;stroke-width:1;" x1="131.0996" x2="324.4854" y1="208.9082" y2="208.9082"/><text fill="#000000" font-family="sans-serif" font-size="13" lengthAdjust="spacing" textLength="149.5" x="138.0996" y="188.8555">Request cross-platform</text><text fill="#000000" font-family="sans-serif" font-size="13" lengthAdjust="spacing" textLength="72.5093" x="138.0996" y="204.166">data access</text></g><g class="message" data-participant-1="Hub" data-participant-2="Consent"><polygon fill="#181818" points="535.3716,249.5293,545.3716,253.5293,535.3716,257.5293,539.3716,253.5293" style="stroke:#181818;stroke-width:1;"/><line style="stroke:#181818;stroke-width:1;" x1="330.4854" x2="541.3716" y1="253.5293" y2="253.5293"/><text fill="#000000" font-family="sans-serif" font-size="13" lengthAdjust="spacing" textLength="113.6675" x="337.4854" y="233.4766">Validate scope for</text><text fill="#000000" font-family="sans-serif" font-size="13" lengthAdjust="spacing" textLength="91.9712" x="337.4854" y="248.7871">all 3 platforms</text></g><g class="message" data-participant-1="Consent" data-participant-2="Hub"><polygon fill="#181818" points="341.4854,278.8398,331.4854,282.8398,341.4854,286.8398,337.4854,282.8398" style="stroke:#181818;stroke-width:1;"/><line style="stroke:#181818;stroke-width:1;" x1="335.4854" x2="546.3716" y1="282.8398" y2="282.8398"/><text fill="#000000" font-family="sans-serif" font-size="13" lengthAdjust="spacing" textLength="154.3052" x="347.4854" y="278.0977">Consent request created</text></g><rect fill="#EEEEEE" height="3" style="stroke:#EEEEEE;stroke-width:1;" width="989.415" x="0" y="311.4951"/><line style="stroke:#000000;stroke-width:1;" x1="0" x2="989.415" y1="311.4951" y2="311.4951"/><line style="stroke:#000000;stroke-width:1;" x1="0" x2="989.415" y1="314.4951" y2="314.4951"/><rect fill="#EEEEEE" height="23.3105" style="stroke:#000000;stroke-width:2;" width="179.439" x="404.988" y="300.8398"/><text fill="#000000" font-family="sans-serif" font-size="13" font-weight="bold" lengthAdjust="spacing" textLength="161.1543" x="410.988" y="317.4082">Customer Authorization</text><g class="message" data-participant-1="Hub" data-participant-2="Customer"><polygon fill="#181818" points="51.9731,366.7715,41.9731,370.7715,51.9731,374.7715,47.9731,370.7715" style="stroke:#181818;stroke-width:1;"/><line style="stroke:#181818;stroke-width:1;" x1="45.9731" x2="329.4854" y1="370.7715" y2="370.7715"/><text fill="#000000" font-family="sans-serif" font-size="13" lengthAdjust="spacing" textLength="133.9927" x="57.9731" y="350.7188">Display consent form</text><text fill="#000000" font-family="sans-serif" font-size="13" lengthAdjust="spacing" textLength="178.6104" x="57.9731" y="366.0293">(Loans + Islamic + Expense)</text></g><g class="message" data-participant-1="Customer" data-participant-2="Hub"><polygon fill="#181818" points="318.4854,411.3926,328.4854,415.3926,318.4854,419.3926,322.4854,415.3926" style="stroke:#181818;stroke-width:1;"/><line style="stroke:#181818;stroke-width:1;" x1="40.9731" x2="324.4854" y1="415.3926" y2="415.3926"/><text fill="#000000" font-family="sans-serif" font-size="13" lengthAdjust="spacing" textLength="114.6768" x="47.9731" y="395.3398">Approve access to</text><text fill="#000000" font-family="sans-serif" font-size="13" lengthAdjust="spacing" textLength="79.6377" x="47.9731" y="410.6504">all platforms</text></g><g class="message" data-participant-1="Hub" data-participant-2="Consent"><polygon fill="#181818" points="535.3716,440.7031,545.3716,444.7031,535.3716,448.7031,539.3716,444.7031" style="stroke:#181818;stroke-width:1;"/><line style="stroke:#181818;stroke-width:1;" x1="330.4854" x2="541.3716" y1="444.7031" y2="444.7031"/><text fill="#000000" font-family="sans-serif" font-size="13" lengthAdjust="spacing" textLength="192.8862" x="337.4854" y="439.9609">Create multi-platform consent</text></g><rect fill="#EEEEEE" height="3" style="stroke:#EEEEEE;stroke-width:1;" width="989.415" x="0" y="473.3584"/><line style="stroke:#000000;stroke-width:1;" x1="0" x2="989.415" y1="473.3584" y2="473.3584"/><line style="stroke:#000000;stroke-width:1;" x1="0" x2="989.415" y1="476.3584" y2="476.3584"/><rect fill="#EEEEEE" height="23.3105" style="stroke:#000000;stroke-width:2;" width="147.5674" x="420.9238" y="462.7031"/><text fill="#000000" font-family="sans-serif" font-size="13" font-weight="bold" lengthAdjust="spacing" textLength="129.2827" x="426.9238" y="479.2715">Platform Activation</text><g class="message" data-participant-1="Consent" data-participant-2="Loans"><polygon fill="#181818" points="725.877,513.3242,735.877,517.3242,725.877,521.3242,729.877,517.3242" style="stroke:#181818;stroke-width:1;"/><line style="stroke:#181818;stroke-width:1;" x1="547.3716" x2="731.877" y1="517.3242" y2="517.3242"/><text fill="#000000" font-family="sans-serif" font-size="13" lengthAdjust="spacing" textLength="166.5054" x="554.3716" y="512.582">Activate loan data consent</text></g><g class="message" data-participant-1="Consent" data-participant-2="Islamic"><polygon fill="#181818" points="817.7202,542.6348,827.7202,546.6348,817.7202,550.6348,821.7202,546.6348" style="stroke:#181818;stroke-width:1;"/><line style="stroke:#181818;stroke-width:1;" x1="547.3716" x2="823.7202" y1="546.6348" y2="546.6348"/><text fill="#000000" font-family="sans-serif" font-size="13" lengthAdjust="spacing" textLength="201.7285" x="554.3716" y="541.8926">Activate Islamic finance consent</text></g><g class="message" data-participant-1="Consent" data-participant-2="Expense"><polygon fill="#181818" points="912.8481,571.9453,922.8481,575.9453,912.8481,579.9453,916.8481,575.9453" style="stroke:#181818;stroke-width:1;"/><line style="stroke:#181818;stroke-width:1;" x1="547.3716" x2="918.8481" y1="575.9453" y2="575.9453"/><text fill="#000000" font-family="sans-serif" font-size="13" lengthAdjust="spacing" textLength="192.0928" x="554.3716" y="571.2031">Activate expense data consent</text></g><g class="message" data-participant-1="Loans" data-participant-2="Consent"><polygon fill="#181818" points="558.3716,601.2559,548.3716,605.2559,558.3716,609.2559,554.3716,605.2559" style="stroke:#181818;stroke-width:1;"/><line style="stroke:#181818;stroke-width:1;stroke-dasharray:2.0,2.0;" x1="552.3716" x2="736.877" y1="605.2559" y2="605.2559"/><text fill="#000000" font-family="sans-serif" font-size="13" lengthAdjust="spacing" textLength="145.4448" x="564.3716" y="600.5137">&#9989; Loan consent active</text></g><g class="message" data-participant-1="Islamic" data-participant-2="Consent"><polygon fill="#181818" points="558.3716,630.5664,548.3716,634.5664,558.3716,638.5664,554.3716,634.5664" style="stroke:#181818;stroke-width:1;"/><line style="stroke:#181818;stroke-width:1;stroke-dasharray:2.0,2.0;" x1="552.3716" x2="828.7202" y1="634.5664" y2="634.5664"/><text fill="#000000" font-family="sans-serif" font-size="13" lengthAdjust="spacing" textLength="159.1431" x="564.3716" y="629.8242">&#9989; Islamic consent active</text></g><g class="message" data-participant-1="Expense" data-participant-2="Consent"><polygon fill="#181818" points="558.3716,659.877,548.3716,663.877,558.3716,667.877,554.3716,663.877" style="stroke:#181818;stroke-width:1;"/><line style="stroke:#181818;stroke-width:1;stroke-dasharray:2.0,2.0;" x1="552.3716" x2="923.8481" y1="663.877" y2="663.877"/><text fill="#000000" font-family="sans-serif" font-size="13" lengthAdjust="spacing" textLength="167.6616" x="564.3716" y="659.1348">&#9989; Expense consent active</text></g><rect fill="#EEEEEE" height="3" style="stroke:#EEEEEE;stroke-width:1;" width="989.415" x="0" y="692.5322"/><line style="stroke:#000000;stroke-width:1;" x1="0" x2="989.415" y1="692.5322" y2="692.5322"/><line style="stroke:#000000;stroke-width:1;" x1="0" x2="989.415" y1="695.5322" y2="695.5322"/><rect fill="#EEEEEE" height="23.3105" style="stroke:#000000;stroke-width:2;" width="137.5762" x="425.9194" y="681.877"/><text fill="#000000" font-family="sans-serif" font-size="13" font-weight="bold" lengthAdjust="spacing" textLength="119.2915" x="431.9194" y="698.4453">Token Generation</text><g class="message" data-participant-1="Consent" data-participant-2="Hub"><polygon fill="#181818" points="341.4854,747.8086,331.4854,751.8086,341.4854,755.8086,337.4854,751.8086" style="stroke:#181818;stroke-width:1;"/><line style="stroke:#181818;stroke-width:1;" x1="335.4854" x2="546.3716" y1="751.8086" y2="751.8086"/><text fill="#000000" font-family="sans-serif" font-size="13" lengthAdjust="spacing" textLength="141.5273" x="347.4854" y="731.7559">Generate access token</text><text fill="#000000" font-family="sans-serif" font-size="13" lengthAdjust="spacing" textLength="165.9341" x="347.4854" y="747.0664">with multi-platform scope</text></g><g class="message" data-participant-1="Hub" data-participant-2="TPP"><polygon fill="#181818" points="142.0996,792.4297,132.0996,796.4297,142.0996,800.4297,138.0996,796.4297" style="stroke:#181818;stroke-width:1;"/><line style="stroke:#181818;stroke-width:1;stroke-dasharray:2.0,2.0;" x1="136.0996" x2="329.4854" y1="796.4297" y2="796.4297"/><text fill="#000000" font-family="sans-serif" font-size="13" lengthAdjust="spacing" textLength="113.4707" x="148.0996" y="776.377">Access token with</text><text fill="#000000" font-family="sans-serif" font-size="13" lengthAdjust="spacing" textLength="175.3857" x="148.0996" y="791.6875">cross-platform permissions</text></g><rect fill="#EEEEEE" height="3" style="stroke:#EEEEEE;stroke-width:1;" width="989.415" x="0" y="825.085"/><line style="stroke:#000000;stroke-width:1;" x1="0" x2="989.415" y1="825.085" y2="825.085"/><line style="stroke:#000000;stroke-width:1;" x1="0" x2="989.415" y1="828.085" y2="828.085"/><rect fill="#EEEEEE" height="23.3105" style="stroke:#000000;stroke-width:2;" width="99.1602" x="445.1274" y="814.4297"/><text fill="#000000" font-family="sans-serif" font-size="13" font-weight="bold" lengthAdjust="spacing" textLength="80.8755" x="451.1274" y="830.998">Data Access</text><g class="message" data-participant-1="TPP" data-participant-2="Hub"><polygon fill="#181818" points="318.4854,880.3613,328.4854,884.3613,318.4854,888.3613,322.4854,884.3613" style="stroke:#181818;stroke-width:1;"/><line style="stroke:#181818;stroke-width:1;" x1="131.0996" x2="324.4854" y1="884.3613" y2="884.3613"/><text fill="#000000" font-family="sans-serif" font-size="13" lengthAdjust="spacing" textLength="144.9741" x="138.0996" y="864.3086">Request customer data</text><text fill="#000000" font-family="sans-serif" font-size="13" lengthAdjust="spacing" textLength="88.0928" x="138.0996" y="879.6191">(all platforms)</text></g><path d="M267.3667,899.3613 L334.5327,899.3613 L334.5327,906.6719 L324.5327,916.6719 L267.3667,916.6719 L267.3667,899.3613" fill="#EEEEEE" style="stroke:#000000;stroke-width:1.5;"/><rect fill="none" height="197.1738" style="stroke:#000000;stroke-width:1.5;" width="712.0483" x="267.3667" y="899.3613"/><text fill="#000000" font-family="sans-serif" font-size="13" font-weight="bold" lengthAdjust="spacing" textLength="22.166" x="282.3667" y="912.9297">par</text><g class="message" data-participant-1="Hub" data-participant-2="Loans"><polygon fill="#181818" points="725.877,933.9824,735.877,937.9824,725.877,941.9824,729.877,937.9824" style="stroke:#181818;stroke-width:1;"/><line style="stroke:#181818;stroke-width:1;" x1="330.4854" x2="731.877" y1="937.9824" y2="937.9824"/><text fill="#000000" font-family="sans-serif" font-size="13" lengthAdjust="spacing" textLength="84.1191" x="337.4854" y="933.2402">Get loan data</text></g><g class="message" data-participant-1="Loans" data-participant-2="Hub"><polygon fill="#181818" points="341.4854,963.293,331.4854,967.293,341.4854,971.293,337.4854,967.293" style="stroke:#181818;stroke-width:1;"/><line style="stroke:#181818;stroke-width:1;stroke-dasharray:2.0,2.0;" x1="335.4854" x2="736.877" y1="967.293" y2="967.293"/><text fill="#000000" font-family="sans-serif" font-size="13" lengthAdjust="spacing" textLength="108.1768" x="347.4854" y="962.5508">Loan information</text></g><line style="stroke:#000000;stroke-width:1;stroke-dasharray:2.0,2.0;" x1="267.3667" x2="979.415" y1="976.293" y2="976.293"/><g class="message" data-participant-1="Hub" data-participant-2="Islamic"><polygon fill="#181818" points="817.7202,994.6035,827.7202,998.6035,817.7202,1002.6035,821.7202,998.6035" style="stroke:#181818;stroke-width:1;"/><line style="stroke:#181818;stroke-width:1;" x1="330.4854" x2="823.7202" y1="998.6035" y2="998.6035"/><text fill="#000000" font-family="sans-serif" font-size="13" lengthAdjust="spacing" textLength="150.8584" x="337.4854" y="993.8613">Get Islamic finance data</text></g><g class="message" data-participant-1="Islamic" data-participant-2="Hub"><polygon fill="#181818" points="341.4854,1023.9141,331.4854,1027.9141,341.4854,1031.9141,337.4854,1027.9141" style="stroke:#181818;stroke-width:1;"/><line style="stroke:#181818;stroke-width:1;stroke-dasharray:2.0,2.0;" x1="335.4854" x2="828.7202" y1="1027.9141" y2="1027.9141"/><text fill="#000000" font-family="sans-serif" font-size="13" lengthAdjust="spacing" textLength="140.1309" x="347.4854" y="1023.1719">Sharia-compliant data</text></g><line style="stroke:#000000;stroke-width:1;stroke-dasharray:2.0,2.0;" x1="267.3667" x2="979.415" y1="1036.9141" y2="1036.9141"/><g class="message" data-participant-1="Hub" data-participant-2="Expense"><polygon fill="#181818" points="912.8481,1055.2246,922.8481,1059.2246,912.8481,1063.2246,916.8481,1059.2246" style="stroke:#181818;stroke-width:1;"/><line style="stroke:#181818;stroke-width:1;" x1="330.4854" x2="918.8481" y1="1059.2246" y2="1059.2246"/><text fill="#000000" font-family="sans-serif" font-size="13" lengthAdjust="spacing" textLength="109.7065" x="337.4854" y="1054.4824">Get expense data</text></g><g class="message" data-participant-1="Expense" data-participant-2="Hub"><polygon fill="#181818" points="341.4854,1084.5352,331.4854,1088.5352,341.4854,1092.5352,337.4854,1088.5352" style="stroke:#181818;stroke-width:1;"/><line style="stroke:#181818;stroke-width:1;stroke-dasharray:2.0,2.0;" x1="335.4854" x2="923.8481" y1="1088.5352" y2="1088.5352"/><text fill="#000000" font-family="sans-serif" font-size="13" lengthAdjust="spacing" textLength="165.3438" x="347.4854" y="1083.793">Budget and spending data</text></g><g class="message" data-participant-1="Hub" data-participant-2="Hub"><line style="stroke:#181818;stroke-width:1;" x1="330.4854" x2="372.4854" y1="1140.1563" y2="1140.1563"/><line style="stroke:#181818;stroke-width:1;" x1="372.4854" x2="372.4854" y1="1140.1563" y2="1153.1563"/><line style="stroke:#181818;stroke-width:1;" x1="331.4854" x2="372.4854" y1="1153.1563" y2="1153.1563"/><polygon fill="#181818" points="341.4854,1149.1563,331.4854,1153.1563,341.4854,1157.1563,337.4854,1153.1563" style="stroke:#181818;stroke-width:1;"/><text fill="#000000" font-family="sans-serif" font-size="13" lengthAdjust="spacing" textLength="130.9839" x="337.4854" y="1120.1035">Aggregate data from</text><text fill="#000000" font-family="sans-serif" font-size="13" lengthAdjust="spacing" textLength="79.6377" x="337.4854" y="1135.4141">all platforms</text></g><g class="message" data-participant-1="Hub" data-participant-2="TPP"><polygon fill="#181818" points="142.0996,1178.4668,132.0996,1182.4668,142.0996,1186.4668,138.0996,1182.4668" style="stroke:#181818;stroke-width:1;"/><line style="stroke:#181818;stroke-width:1;stroke-dasharray:2.0,2.0;" x1="136.0996" x2="329.4854" y1="1182.4668" y2="1182.4668"/><text fill="#000000" font-family="sans-serif" font-size="13" lengthAdjust="spacing" textLength="161.2495" x="148.0996" y="1177.7246">Unified financial overview</text></g><rect fill="#EEEEEE" height="3" style="stroke:#EEEEEE;stroke-width:1;" width="989.415" x="0" y="1211.1221"/><line style="stroke:#000000;stroke-width:1;" x1="0" x2="989.415" y1="1211.1221" y2="1211.1221"/><line style="stroke:#000000;stroke-width:1;" x1="0" x2="989.415" y1="1214.1221" y2="1214.1221"/><rect fill="#EEEEEE" height="23.3105" style="stroke:#000000;stroke-width:2;" width="150.9443" x="419.2354" y="1200.4668"/><text fill="#000000" font-family="sans-serif" font-size="13" font-weight="bold" lengthAdjust="spacing" textLength="132.6597" x="425.2354" y="1217.0352">Consent Revocation</text><g class="message" data-participant-1="Customer" data-participant-2="Hub"><polygon fill="#181818" points="318.4854,1251.0879,328.4854,1255.0879,318.4854,1259.0879,322.4854,1255.0879" style="stroke:#181818;stroke-width:1;"/><line style="stroke:#181818;stroke-width:1;" x1="40.9731" x2="324.4854" y1="1255.0879" y2="1255.0879"/><text fill="#000000" font-family="sans-serif" font-size="13" lengthAdjust="spacing" textLength="98.6426" x="47.9731" y="1250.3457">Revoke consent</text></g><path d="M267.3667,1270.0879 L334.5327,1270.0879 L334.5327,1277.3984 L324.5327,1287.3984 L267.3667,1287.3984 L267.3667,1270.0879" fill="#EEEEEE" style="stroke:#000000;stroke-width:1.5;"/><rect fill="none" height="197.1738" style="stroke:#000000;stroke-width:1.5;" width="712.0483" x="267.3667" y="1270.0879"/><text fill="#000000" font-family="sans-serif" font-size="13" font-weight="bold" lengthAdjust="spacing" textLength="22.166" x="282.3667" y="1283.6563">par</text><g class="message" data-participant-1="Hub" data-participant-2="Loans"><polygon fill="#181818" points="725.877,1304.709,735.877,1308.709,725.877,1312.709,729.877,1308.709" style="stroke:#181818;stroke-width:1;"/><line style="stroke:#181818;stroke-width:1;" x1="330.4854" x2="731.877" y1="1308.709" y2="1308.709"/><text fill="#000000" font-family="sans-serif" font-size="13" lengthAdjust="spacing" textLength="154.21" x="337.4854" y="1303.9668">Disable loan data access</text></g><g class="message" data-participant-1="Loans" data-participant-2="Hub"><polygon fill="#181818" points="341.4854,1334.0195,331.4854,1338.0195,341.4854,1342.0195,337.4854,1338.0195" style="stroke:#181818;stroke-width:1;"/><line style="stroke:#181818;stroke-width:1;stroke-dasharray:2.0,2.0;" x1="335.4854" x2="736.877" y1="1338.0195" y2="1338.0195"/><text fill="#000000" font-family="sans-serif" font-size="13" lengthAdjust="spacing" textLength="118.3086" x="347.4854" y="1333.2773">&#9989; Access revoked</text></g><line style="stroke:#000000;stroke-width:1;stroke-dasharray:2.0,2.0;" x1="267.3667" x2="979.415" y1="1347.0195" y2="1347.0195"/><g class="message" data-participant-1="Hub" data-participant-2="Islamic"><polygon fill="#181818" points="817.7202,1365.3301,827.7202,1369.3301,817.7202,1373.3301,821.7202,1369.3301" style="stroke:#181818;stroke-width:1;"/><line style="stroke:#181818;stroke-width:1;" x1="330.4854" x2="823.7202" y1="1369.3301" y2="1369.3301"/><text fill="#000000" font-family="sans-serif" font-size="13" lengthAdjust="spacing" textLength="171.082" x="337.4854" y="1364.5879">Disable Islamic data access</text></g><g class="message" data-participant-1="Islamic" data-participant-2="Hub"><polygon fill="#181818" points="341.4854,1394.6406,331.4854,1398.6406,341.4854,1402.6406,337.4854,1398.6406" style="stroke:#181818;stroke-width:1;"/><line style="stroke:#181818;stroke-width:1;stroke-dasharray:2.0,2.0;" x1="335.4854" x2="828.7202" y1="1398.6406" y2="1398.6406"/><text fill="#000000" font-family="sans-serif" font-size="13" lengthAdjust="spacing" textLength="118.3086" x="347.4854" y="1393.8984">&#9989; Access revoked</text></g><line style="stroke:#000000;stroke-width:1;stroke-dasharray:2.0,2.0;" x1="267.3667" x2="979.415" y1="1407.6406" y2="1407.6406"/><g class="message" data-participant-1="Hub" data-participant-2="Expense"><polygon fill="#181818" points="912.8481,1425.9512,922.8481,1429.9512,912.8481,1433.9512,916.8481,1429.9512" style="stroke:#181818;stroke-width:1;"/><line style="stroke:#181818;stroke-width:1;" x1="330.4854" x2="918.8481" y1="1429.9512" y2="1429.9512"/><text fill="#000000" font-family="sans-serif" font-size="13" lengthAdjust="spacing" textLength="179.7974" x="337.4854" y="1425.209">Disable expense data access</text></g><g class="message" data-participant-1="Expense" data-participant-2="Hub"><polygon fill="#181818" points="341.4854,1455.2617,331.4854,1459.2617,341.4854,1463.2617,337.4854,1459.2617" style="stroke:#181818;stroke-width:1;"/><line style="stroke:#181818;stroke-width:1;stroke-dasharray:2.0,2.0;" x1="335.4854" x2="923.8481" y1="1459.2617" y2="1459.2617"/><text fill="#000000" font-family="sans-serif" font-size="13" lengthAdjust="spacing" textLength="118.3086" x="347.4854" y="1454.5195">&#9989; Access revoked</text></g><g class="message" data-participant-1="Hub" data-participant-2="Customer"><polygon fill="#181818" points="51.9731,1506.8828,41.9731,1510.8828,51.9731,1514.8828,47.9731,1510.8828" style="stroke:#181818;stroke-width:1;"/><line style="stroke:#181818;stroke-width:1;stroke-dasharray:2.0,2.0;" x1="45.9731" x2="329.4854" y1="1510.8828" y2="1510.8828"/><text fill="#000000" font-family="sans-serif" font-size="13" lengthAdjust="spacing" textLength="150.7695" x="57.9731" y="1490.8301">Consent revoked across</text><text fill="#000000" font-family="sans-serif" font-size="13" lengthAdjust="spacing" textLength="79.6377" x="57.9731" y="1506.1406">all platforms</text></g><!--SRC=[XLJBRjim4BppAnOvDIXywis02xXEd0PeK2DnUzA5eTOs4ObKISfkUkzVzElw9LrI9FMmWvxquEpiOsRffAiG7jhAoTccucwdJGqhhImg1mzSyJtM_dLTwHDZN3XjODLQfsiqhE76II4RJe2hxK6Q4ZRqwxLGowQv0cvXkzcCKLyRLB2MYYk1XVhSFWSOFG76m5X3ePxG7AN0W8i_nyXRvT0qHbeY_AAviW4QtiR0PKtz7DQoKAdJWBot5Q-b66CVk3NjZg1hmsiyQVCIiBS_gNwBZ2qMUKhtIZh9dTGA5Wj67SFie-ze3e_ueqNhG1XjxQo9IGjLSiU12u7MCjywuIFP7BxpIj8vWXMwGQ20Gl6gWW-GuYrBcLEUz6roFYI6igioYWNBrXsqaRzofIbp1CpXHbhAyGeYqdN5lWkJXFTfJlGMft3DCdcgX7Gt-eYnEN2wAxulVThkAfGATJ1WWgKAGWFPbKlXv35NFvX1A72UpX4g-eOmuyGp0CSk1l3KrwvpPMuVXc6nvK4OTd_6YLWthDcmnRz_VeSICp7t5CXItZDmEfZWOmdd-7GmmVlXRVKBxTiTAZIN9XSqYwS3qIYcK2Vf3bDTWYSx3IcQhExdqGU1ZodKsExGeAcbjPJTXffk_C1Ys5iBatpbXqiM77declbLPG3HIr7-EtIzydJQAn6eWm9IUOOm2OOLxN4coRRmD5D7HCQXO87pwS2Dv3EXwwQI_je8G4zCvidKsJgUUkWQWWmr3PIVsd9FCAvAi7HKIhMFh8hsEJ9sgxRV6znxtO83TqRN5vSj2VLDoPt4CZObUGMqg7IrucbqcptYKOlUAzC5zySlsFlzaX9qZ_3dQhY7yQux4yMxDph11EBoBLaIPz9WG1jcVQRDVwcpB8bwjD2vuZE5BX5dRKRtQNyj1nXn-iMOYlGF]--></g></svg>