<svg xmlns="http://www.w3.org/2000/svg" xmlns:xlink="http://www.w3.org/1999/xlink" contentStyleType="text/css" data-diagram-type="DESCRIPTION" height="787.5px" preserveAspectRatio="none" style="width:2445px;height:787px;background:#FFFFFF;" version="1.1" viewBox="0 0 2445 787" width="2445.8333px" zoomAndPan="magnify"><title>Loan Context - Hexagonal Architecture</title><defs><linearGradient id="g1nsbba89gazn70" x1="50%" x2="50%" y1="0%" y2="100%"><stop offset="0%" stop-color="#B8B8B8"/><stop offset="100%" stop-color="#6B6B6B"/></linearGradient><linearGradient id="g1nsbba89gazn71" x1="50%" x2="50%" y1="0%" y2="100%"><stop offset="0%" stop-color="#7C9AB9"/><stop offset="100%" stop-color="#304D6D"/></linearGradient><linearGradient id="g1nsbba89gazn72" x1="50%" x2="50%" y1="0%" y2="100%"><stop offset="0%" stop-color="#70B8F7"/><stop offset="100%" stop-color="#246BAA"/></linearGradient></defs><g><g class="title" data-source-line="2"><rect fill="none" height="48.2361" rx="4.1667" ry="4.1667" style="stroke:#6B6B6B;stroke-width:1.0417;" width="477.4455" x="979.7753" y="20.8333"/><text fill="#304D6D" font-family="Verdana" font-size="20.8333" font-weight="bold" lengthAdjust="spacing" textLength="454.5288" x="991.2336" y="53.2369">Loan Context - Hexagonal Architecture</text></g><!--cluster ext--><g class="cluster" data-entity="ext" data-source-line="15" data-uid="ent0002" id="cluster_ext"><path d="M67.5104,463.9444 L197.8225,463.9444 A6.25,6.25 0 0 1 201.9892,468.1111 L209.2808,495.8027 L905.0104,495.8027 A4.1667,4.1667 0 0 1 909.1771,499.9694 L909.1771,567.684 A4.1667,4.1667 0 0 1 905.0104,571.8507 L67.5104,571.8507 A4.1667,4.1667 0 0 1 63.3438,567.684 L63.3438,468.1111 A4.1667,4.1667 0 0 1 67.5104,463.9444" fill="url(#g1nsbba89gazn70)" style="stroke:#446E9B;stroke-width:2.0833;"/><line style="stroke:#446E9B;stroke-width:2.0833;" x1="63.3438" x2="209.2808" y1="495.8027" y2="495.8027"/><text fill="#446E9B" font-family="Verdana" font-size="12.5" font-weight="bold" lengthAdjust="spacing" textLength="121.9788" x="72.7188" y="483.8032">External Systems</text></g><!--cluster lc--><g class="cluster" data-entity="lc" data-source-line="23" data-uid="ent0008" id="cluster_lc"><path d="M938.3438,86.7778 L1039.3346,86.7778 A6.25,6.25 0 0 1 1043.5012,90.9444 L1050.7929,118.6361 L1925.8438,118.6361 A4.1667,4.1667 0 0 1 1930.0104,122.8027 L1930.0104,771.0694 A4.1667,4.1667 0 0 1 1925.8438,775.2361 L938.3438,775.2361 A4.1667,4.1667 0 0 1 934.1771,771.0694 L934.1771,90.9444 A4.1667,4.1667 0 0 1 938.3438,86.7778" fill="url(#g1nsbba89gazn70)" style="stroke:#446E9B;stroke-width:2.0833;"/><line style="stroke:#446E9B;stroke-width:2.0833;" x1="934.1771" x2="1050.7929" y1="118.6361" y2="118.6361"/><text fill="#446E9B" font-family="Verdana" font-size="12.5" font-weight="bold" lengthAdjust="spacing" textLength="92.6575" x="943.5521" y="106.6366">Loan Context</text></g><!--cluster app--><g class="cluster" data-entity="app" data-source-line="24" data-uid="ent0009" id="cluster_app"><path d="M969.5938,139.9028 L1100.0523,139.9028 A6.25,6.25 0 0 1 1104.219,144.0694 L1111.5107,171.7611 L1834.1771,171.7611 A4.1667,4.1667 0 0 1 1838.3438,175.9277 L1838.3438,243.6319 A4.1667,4.1667 0 0 1 1834.1771,247.7986 L969.5938,247.7986 A4.1667,4.1667 0 0 1 965.4271,243.6319 L965.4271,144.0694 A4.1667,4.1667 0 0 1 969.5938,139.9028" fill="url(#g1nsbba89gazn70)" style="stroke:#446E9B;stroke-width:2.0833;"/><line style="stroke:#446E9B;stroke-width:2.0833;" x1="965.4271" x2="1111.5107" y1="171.7611" y2="171.7611"/><text fill="#446E9B" font-family="Verdana" font-size="12.5" font-weight="bold" lengthAdjust="spacing" textLength="122.1252" x="974.8021" y="159.7616">Application Layer</text></g><!--cluster domain--><g class="cluster" data-entity="domain" data-source-line="31" data-uid="ent0014" id="cluster_domain"><path d="M971.6771,281.1319 L1076.9587,281.1319 A6.25,6.25 0 0 1 1081.1253,285.2986 L1088.417,312.9902 L1840.4271,312.9902 A4.1667,4.1667 0 0 1 1844.5938,317.1569 L1844.5938,401.5278 A4.1667,4.1667 0 0 1 1840.4271,405.6944 L971.6771,405.6944 A4.1667,4.1667 0 0 1 967.5104,401.5278 L967.5104,285.2986 A4.1667,4.1667 0 0 1 971.6771,281.1319" fill="url(#g1nsbba89gazn70)" style="stroke:#446E9B;stroke-width:2.0833;"/><line style="stroke:#446E9B;stroke-width:2.0833;" x1="967.5104" x2="1088.417" y1="312.9902" y2="312.9902"/><text fill="#446E9B" font-family="Verdana" font-size="12.5" font-weight="bold" lengthAdjust="spacing" textLength="96.9482" x="976.8854" y="300.9907">Domain Layer</text></g><!--cluster infra--><g class="cluster" data-entity="infra" data-source-line="40" data-uid="ent0021" id="cluster_infra"><path d="M1381.0521,455.6111 L1532.8913,455.6111 A6.25,6.25 0 0 1 1537.0579,459.7778 L1544.3496,487.4694 L1892.5104,487.4694 A4.1667,4.1667 0 0 1 1896.6771,491.6361 L1896.6771,737.7361 A4.1667,4.1667 0 0 1 1892.5104,741.9028 L1381.0521,741.9028 A4.1667,4.1667 0 0 1 1376.8854,737.7361 L1376.8854,459.7778 A4.1667,4.1667 0 0 1 1381.0521,455.6111" fill="url(#g1nsbba89gazn70)" style="stroke:#446E9B;stroke-width:2.0833;"/><line style="stroke:#446E9B;stroke-width:2.0833;" x1="1376.8854" x2="1544.3496" y1="487.4694" y2="487.4694"/><text fill="#446E9B" font-family="Verdana" font-size="12.5" font-weight="bold" lengthAdjust="spacing" textLength="143.5059" x="1386.2604" y="475.4699">Infrastructure Layer</text></g><!--cluster inputs--><g class="cluster" data-entity="inputs" data-source-line="49" data-uid="ent0027" id="cluster_inputs"><path d="M1959.1771,605.6632 L2047.9181,605.6632 A6.25,6.25 0 0 1 2052.0848,609.8298 L2059.3765,637.5215 L2371.6771,637.5215 A4.1667,4.1667 0 0 1 2375.8438,641.6882 L2375.8438,740.0382 A4.1667,4.1667 0 0 1 2371.6771,744.2048 L1959.1771,744.2048 A4.1667,4.1667 0 0 1 1955.0104,740.0382 L1955.0104,609.8298 A4.1667,4.1667 0 0 1 1959.1771,605.6632" fill="url(#g1nsbba89gazn70)" style="stroke:#446E9B;stroke-width:2.0833;"/><line style="stroke:#446E9B;stroke-width:2.0833;" x1="1955.0104" x2="2059.3765" y1="637.5215" y2="637.5215"/><text fill="#446E9B" font-family="Verdana" font-size="12.5" font-weight="bold" lengthAdjust="spacing" textLength="80.4077" x="1964.3854" y="625.522">Input Ports</text></g><!--cluster outputs--><g class="cluster" data-entity="outputs" data-source-line="55" data-uid="ent0031" id="cluster_outputs"><path d="M91.4688,274.1423 L189.7069,274.1423 A6.25,6.25 0 0 1 193.8735,278.309 L201.1652,306.0007 L887.3021,306.0007 A4.1667,4.1667 0 0 1 891.4688,310.1673 L891.4688,408.5173 A4.1667,4.1667 0 0 1 887.3021,412.684 L91.4688,412.684 A4.1667,4.1667 0 0 1 87.3021,408.5173 L87.3021,278.309 A4.1667,4.1667 0 0 1 91.4688,274.1423" fill="url(#g1nsbba89gazn70)" style="stroke:#446E9B;stroke-width:2.0833;"/><line style="stroke:#446E9B;stroke-width:2.0833;" x1="87.3021" x2="201.1652" y1="306.0007" y2="306.0007"/><text fill="#446E9B" font-family="Verdana" font-size="12.5" font-weight="bold" lengthAdjust="spacing" textLength="89.9048" x="96.6771" y="294.0011">Output Ports</text></g><!--entity cb--><g class="entity" data-entity="cb" data-source-line="16" data-uid="ent0003" id="entity_cb"><rect fill="#ADD8E6" height="46.4417" rx="4.1667" ry="4.1667" style="stroke:#00008B;stroke-width:1.0417;" width="117.9749" x="80.3958" y="508.7361"/><text fill="#FFFFFF" font-family="Verdana" font-size="12.5" lengthAdjust="spacing" textLength="86.7249" x="96.0208" y="536.9282">Credit Bureau</text></g><!--entity risk--><g class="entity" data-entity="risk" data-source-line="17" data-uid="ent0004" id="entity_risk"><rect fill="#ADD8E6" height="46.4417" rx="4.1667" ry="4.1667" style="stroke:#00008B;stroke-width:1.0417;" width="104.0649" x="235.2708" y="508.7361"/><text fill="#FFFFFF" font-family="Verdana" font-size="12.5" lengthAdjust="spacing" textLength="72.8149" x="250.8958" y="536.9282">Risk Engine</text></g><!--entity pg--><g class="entity" data-entity="pg" data-source-line="18" data-uid="ent0005" id="entity_pg"><rect fill="#ADD8E6" height="46.4417" rx="4.1667" ry="4.1667" style="stroke:#00008B;stroke-width:1.0417;" width="145.2332" x="746.9792" y="508.7361"/><text fill="#FFFFFF" font-family="Verdana" font-size="12.5" lengthAdjust="spacing" textLength="113.9832" x="762.6042" y="536.9282">Payment Gateway</text></g><!--entity docs--><g class="entity" data-entity="docs" data-source-line="19" data-uid="ent0006" id="entity_docs"><rect fill="#ADD8E6" height="46.4417" rx="4.1667" ry="4.1667" style="stroke:#00008B;stroke-width:1.0417;" width="145.8374" x="564.3854" y="508.7361"/><text fill="#FFFFFF" font-family="Verdana" font-size="12.5" lengthAdjust="spacing" textLength="114.5874" x="580.0104" y="536.9282">Document Service</text></g><!--entity notif--><g class="entity" data-entity="notif" data-source-line="20" data-uid="ent0007" id="entity_notif"><rect fill="#ADD8E6" height="46.4417" rx="4.1667" ry="4.1667" style="stroke:#00008B;stroke-width:1.0417;" width="152.7466" x="375.5104" y="508.7361"/><text fill="#FFFFFF" font-family="Verdana" font-size="12.5" lengthAdjust="spacing" textLength="121.4966" x="391.1354" y="536.9282">Notification Service</text></g><!--entity las--><g class="entity" data-entity="las" data-source-line="25" data-uid="ent0010" id="entity_las"><rect fill="#ADD8E6" height="46.4417" rx="4.1667" ry="4.1667" style="stroke:#00008B;stroke-width:1.0417;" width="176.178" x="1208.5938" y="184.6944"/><text fill="#FFFFFF" font-family="Verdana" font-size="12.5" lengthAdjust="spacing" textLength="144.928" x="1224.2188" y="212.8866">LoanApplicationService</text></g><!--entity cas--><g class="entity" data-entity="cas" data-source-line="26" data-uid="ent0011" id="entity_cas"><rect fill="#ADD8E6" height="46.4417" rx="4.1667" ry="4.1667" style="stroke:#00008B;stroke-width:1.0417;" width="189.4958" x="982.1354" y="184.6944"/><text fill="#FFFFFF" font-family="Verdana" font-size="12.5" lengthAdjust="spacing" textLength="158.2458" x="997.7604" y="212.8866">CreditAssessmentService</text></g><!--entity pps--><g class="entity" data-entity="pps" data-source-line="27" data-uid="ent0012" id="entity_pps"><rect fill="#ADD8E6" height="46.4417" rx="4.1667" ry="4.1667" style="stroke:#00008B;stroke-width:1.0417;" width="198.8159" x="1623.3125" y="184.6944"/><text fill="#FFFFFF" font-family="Verdana" font-size="12.5" lengthAdjust="spacing" textLength="167.5659" x="1638.9375" y="212.8866">PaymentProcessingService</text></g><!--entity lss--><g class="entity" data-entity="lss" data-source-line="28" data-uid="ent0013" id="entity_lss"><rect fill="#ADD8E6" height="46.4417" rx="4.1667" ry="4.1667" style="stroke:#00008B;stroke-width:1.0417;" width="165.1184" x="1421.4167" y="184.6944"/><text fill="#FFFFFF" font-family="Verdana" font-size="12.5" lengthAdjust="spacing" textLength="133.8684" x="1437.0417" y="212.8866">LoanServicingService</text></g><!--entity loan--><g class="entity" data-entity="loan" data-source-line="32" data-uid="ent0015" id="entity_loan"><rect fill="#ADD8E6" height="46.4417" rx="4.1667" ry="4.1667" style="stroke:#00008B;stroke-width:1.0417;" width="61.2122" x="1425.4479" y="334.2569"/><text fill="#FFFFFF" font-family="Verdana" font-size="12.5" lengthAdjust="spacing" textLength="29.9622" x="1441.0729" y="362.4491">Loan</text></g><!--entity customer--><g class="entity" data-entity="customer" data-source-line="33" data-uid="ent0016" id="entity_customer"><rect fill="#ADD8E6" height="46.4417" rx="4.1667" ry="4.1667" style="stroke:#00008B;stroke-width:1.0417;" width="91.8518" x="1133.0417" y="334.2569"/><text fill="#FFFFFF" font-family="Verdana" font-size="12.5" lengthAdjust="spacing" textLength="60.6018" x="1148.6667" y="362.4491">Customer</text></g><!--entity payment--><g class="entity" data-entity="payment" data-source-line="34" data-uid="ent0017" id="entity_payment"><rect fill="#ADD8E6" height="46.4417" rx="4.1667" ry="4.1667" style="stroke:#00008B;stroke-width:1.0417;" width="86.1328" x="1523.4063" y="334.2569"/><text fill="#FFFFFF" font-family="Verdana" font-size="12.5" lengthAdjust="spacing" textLength="54.8828" x="1539.0313" y="362.4491">Payment</text></g><!--entity credit--><g class="entity" data-entity="credit" data-source-line="35" data-uid="ent0018" id="entity_credit"><rect fill="#ADD8E6" height="46.4417" rx="4.1667" ry="4.1667" style="stroke:#00008B;stroke-width:1.0417;" width="104.3274" x="992.4375" y="334.2569"/><text fill="#FFFFFF" font-family="Verdana" font-size="12.5" lengthAdjust="spacing" textLength="73.0774" x="1008.0625" y="362.4491">CreditScore</text></g><!--entity loanRepo--><g class="entity" data-entity="loanRepo" data-source-line="36" data-uid="ent0019" id="entity_loanRepo"><rect fill="#ADD8E6" height="46.4417" rx="4.1667" ry="4.1667" style="stroke:#00008B;stroke-width:1.0417;" width="127.9114" x="1260.8542" y="334.2569"/><text fill="#FFFFFF" font-family="Verdana" font-size="12.5" lengthAdjust="spacing" textLength="96.6614" x="1276.4792" y="362.4491">LoanRepository</text></g><!--entity payRepo--><g class="entity" data-entity="payRepo" data-source-line="37" data-uid="ent0020" id="entity_payRepo"><rect fill="#ADD8E6" height="46.4417" rx="4.1667" ry="4.1667" style="stroke:#00008B;stroke-width:1.0417;" width="152.832" x="1646.3021" y="334.2569"/><text fill="#FFFFFF" font-family="Verdana" font-size="12.5" lengthAdjust="spacing" textLength="121.582" x="1661.9271" y="362.4491">PaymentRepository</text></g><!--entity db--><g class="entity" data-entity="db" data-source-line="41" data-uid="ent0022" id="entity_db"><path d="M1427.1146,671.5069 C1427.1146,661.0903 1478.9762,661.0903 1478.9762,661.0903 C1478.9762,661.0903 1530.8377,661.0903 1530.8377,671.5069 L1530.8377,706.4902 C1530.8377,716.9069 1478.9762,716.9069 1478.9762,716.9069 C1478.9762,716.9069 1427.1146,716.9069 1427.1146,706.4902 L1427.1146,671.5069" fill="url(#g1nsbba89gazn71)" style="stroke:#304D6D;stroke-width:1.0417;"/><path d="M1427.1146,671.5069 C1427.1146,681.9236 1478.9762,681.9236 1478.9762,681.9236 C1478.9762,681.9236 1530.8377,681.9236 1530.8377,671.5069" fill="none" style="stroke:#304D6D;stroke-width:1.0417;"/><text fill="#FFFFFF" font-family="Verdana" font-size="12.5" lengthAdjust="spacing" textLength="72.4731" x="1442.7396" y="703.8657">PostgreSQL</text></g><!--entity jpa--><g class="entity" data-entity="jpa" data-source-line="42" data-uid="ent0023" id="entity_jpa"><rect fill="#ADD8E6" height="46.4417" rx="4.1667" ry="4.1667" style="stroke:#00008B;stroke-width:1.0417;" width="113.2568" x="1422.3438" y="508.7361"/><text fill="#FFFFFF" font-family="Verdana" font-size="12.5" lengthAdjust="spacing" textLength="82.0068" x="1437.9688" y="536.9282">JPA Adapters</text></g><!--entity kafka--><g class="entity" data-entity="kafka" data-source-line="43" data-uid="ent0024" id="entity_kafka"><rect fill="#ADD8E6" height="46.4417" rx="4.1667" ry="4.1667" style="stroke:#00008B;stroke-width:1.0417;" width="128.4119" x="1568.9375" y="665.7778"/><text fill="#FFFFFF" font-family="Verdana" font-size="12.5" lengthAdjust="spacing" textLength="97.1619" x="1584.5625" y="693.9699">Kafka Publisher</text></g><!--entity rest--><g class="entity" data-entity="rest" data-source-line="44" data-uid="ent0025" id="entity_rest"><rect fill="#ADD8E6" height="46.4417" rx="4.1667" ry="4.1667" style="stroke:#00008B;stroke-width:1.0417;" width="136.7126" x="1734.5729" y="508.7361"/><text fill="#FFFFFF" font-family="Verdana" font-size="12.5" lengthAdjust="spacing" textLength="105.4626" x="1750.1979" y="536.9282">REST Controllers</text></g><!--entity events--><g class="entity" data-entity="events" data-source-line="45" data-uid="ent0026" id="entity_events"><rect fill="#ADD8E6" height="46.4417" rx="4.1667" ry="4.1667" style="stroke:#00008B;stroke-width:1.0417;" width="126.5503" x="1571.9479" y="508.7361"/><text fill="#FFFFFF" font-family="Verdana" font-size="12.5" lengthAdjust="spacing" textLength="95.3003" x="1587.5729" y="536.9282">Event Handlers</text></g><!--entity loanAPI--><g class="entity" data-entity="loanAPI" data-source-line="50" data-uid="ent0028" id="entity_loanAPI"><ellipse cx="2175.8438" cy="688.9965" fill="#90EE90" rx="8.3333" ry="8.3333" style="stroke:#006400;stroke-width:1.0417;"/><text fill="#333333" font-family="Verdana" font-size="12.5" lengthAdjust="spacing" textLength="55.7007" x="2147.9934" y="724.4803">Loan API</text></g><!--entity payAPI--><g class="entity" data-entity="payAPI" data-source-line="51" data-uid="ent0029" id="entity_payAPI"><ellipse cx="2306.0521" cy="688.9965" fill="#90EE90" rx="8.3333" ry="8.3333" style="stroke:#006400;stroke-width:1.0417;"/><text fill="#333333" font-family="Verdana" font-size="12.5" lengthAdjust="spacing" textLength="80.6213" x="2265.7414" y="724.4803">Payment API</text></g><!--entity assessAPI--><g class="entity" data-entity="assessAPI" data-source-line="52" data-uid="ent0030" id="entity_assessAPI"><ellipse cx="2035.2188" cy="688.9965" fill="#90EE90" rx="8.3333" ry="8.3333" style="stroke:#006400;stroke-width:1.0417;"/><text fill="#333333" font-family="Verdana" font-size="12.5" lengthAdjust="spacing" textLength="100.2197" x="1985.1089" y="724.4803">Assessment API</text></g><!--entity cbPort--><g class="entity" data-entity="cbPort" data-source-line="56" data-uid="ent0032" id="entity_cbPort"><ellipse cx="174.8021" cy="357.4757" fill="#90EE90" rx="8.3333" ry="8.3333" style="stroke:#006400;stroke-width:1.0417;"/><text fill="#333333" font-family="Verdana" font-size="12.5" lengthAdjust="spacing" textLength="116.5039" x="116.5501" y="392.9595">Credit Bureau Port</text></g><!--entity riskPort--><g class="entity" data-entity="riskPort" data-source-line="57" data-uid="ent0033" id="entity_riskPort"><ellipse cx="362.3021" cy="357.4757" fill="#90EE90" rx="8.3333" ry="8.3333" style="stroke:#006400;stroke-width:1.0417;"/><text fill="#333333" font-family="Verdana" font-size="12.5" lengthAdjust="spacing" textLength="134.6863" x="294.9589" y="392.9595">Risk Assessment Port</text></g><!--entity payPort--><g class="entity" data-entity="payPort" data-source-line="58" data-uid="ent0034" id="entity_payPort"><ellipse cx="819.5938" cy="357.4757" fill="#90EE90" rx="8.3333" ry="8.3333" style="stroke:#006400;stroke-width:1.0417;"/><text fill="#333333" font-family="Verdana" font-size="12.5" lengthAdjust="spacing" textLength="84.6619" x="777.2628" y="392.9595">Payment Port</text></g><!--entity docPort--><g class="entity" data-entity="docPort" data-source-line="59" data-uid="ent0035" id="entity_docPort"><ellipse cx="667.5104" cy="357.4757" fill="#90EE90" rx="8.3333" ry="8.3333" style="stroke:#006400;stroke-width:1.0417;"/><text fill="#333333" font-family="Verdana" font-size="12.5" lengthAdjust="spacing" textLength="93.8599" x="620.5805" y="392.9595">Document Port</text></g><!--entity eventPort--><g class="entity" data-entity="eventPort" data-source-line="60" data-uid="ent0036" id="entity_eventPort"><ellipse cx="524.8021" cy="357.4757" fill="#90EE90" rx="8.3333" ry="8.3333" style="stroke:#006400;stroke-width:1.0417;"/><text fill="#333333" font-family="Verdana" font-size="12.5" lengthAdjust="spacing" textLength="65.3625" x="492.1208" y="392.9595">Event Port</text></g><g class="entity" data-entity="GMN69" data-source-line="110" data-uid="ent0070" id="entity_GMN69"><path d="M2171.9896,305.6528 L2171.9896,409.3027 A4.1667,4.1667 0 0 0 2176.1563,413.4693 L2429.7044,413.4693 A4.1667,4.1667 0 0 0 2433.8711,409.3027 L2433.8711,311.9028 L2423.4544,301.4861 L2176.1563,301.4861 A4.1667,4.1667 0 0 0 2171.9896,305.6528" fill="url(#g1nsbba89gazn72)" style="stroke:#246BAA;stroke-width:1.0417;"/><path d="M2423.4544,301.4861 L2423.4544,309.8194 A2.0833,2.0833 0 0 0 2425.5378,311.9028 L2433.8711,311.9028 L2423.4544,301.4861" fill="url(#g1nsbba89gazn72)" style="stroke:#246BAA;stroke-width:1.0417;"/><text fill="#FFFFFF" font-family="Verdana" font-size="12.5" lengthAdjust="spacing" textLength="149.6277" x="2183.4479" y="324.4699">Domain Layer contains:</text><text fill="#FFFFFF" font-family="Verdana" font-size="12.5" lengthAdjust="spacing" textLength="229.5898" x="2183.4479" y="339.6615">- Aggregate Roots (Loan, Customer)</text><text fill="#FFFFFF" font-family="Verdana" font-size="12.5" lengthAdjust="spacing" textLength="213.3667" x="2183.4479" y="354.8532">- Value Objects (LoanId, Amount)</text><text fill="#FFFFFF" font-family="Verdana" font-size="12.5" lengthAdjust="spacing" textLength="115.3137" x="2183.4479" y="370.0448">- Domain Services</text><text fill="#FFFFFF" font-family="Verdana" font-size="12.5" lengthAdjust="spacing" textLength="144.4153" x="2183.4479" y="385.2365">- Repository Interfaces</text><text fill="#FFFFFF" font-family="Verdana" font-size="12.5" lengthAdjust="spacing" textLength="104.7852" x="2183.4479" y="400.4281">- Domain Events</text></g><g class="entity" data-entity="GMN72" data-source-line="119" data-uid="ent0073" id="entity_GMN72"><path d="M2171.7604,480.1319 L2171.7604,583.7818 A4.1667,4.1667 0 0 0 2175.9271,587.9485 L2359.0956,587.9485 A4.1667,4.1667 0 0 0 2363.2623,583.7818 L2363.2623,486.3819 L2352.8456,475.9653 L2175.9271,475.9653 A4.1667,4.1667 0 0 0 2171.7604,480.1319" fill="url(#g1nsbba89gazn72)" style="stroke:#246BAA;stroke-width:1.0417;"/><path d="M2352.8456,475.9653 L2352.8456,484.2986 A2.0833,2.0833 0 0 0 2354.929,486.3819 L2363.2623,486.3819 L2352.8456,475.9653" fill="url(#g1nsbba89gazn72)" style="stroke:#246BAA;stroke-width:1.0417;"/><text fill="#FFFFFF" font-family="Verdana" font-size="12.5" lengthAdjust="spacing" textLength="131.9336" x="2183.2188" y="498.9491">Infrastructure Layer:</text><text fill="#FFFFFF" font-family="Verdana" font-size="12.5" lengthAdjust="spacing" textLength="129.1382" x="2183.2188" y="514.1407">- Database Adapters</text><text fill="#FFFFFF" font-family="Verdana" font-size="12.5" lengthAdjust="spacing" textLength="159.2102" x="2183.2188" y="529.3324">- External Service Clients</text><text fill="#FFFFFF" font-family="Verdana" font-size="12.5" lengthAdjust="spacing" textLength="132.0251" x="2183.2188" y="544.524">- Message Publishers</text><text fill="#FFFFFF" font-family="Verdana" font-size="12.5" lengthAdjust="spacing" textLength="115.5334" x="2183.2188" y="559.7157">- REST Controllers</text><text fill="#FFFFFF" font-family="Verdana" font-size="12.5" lengthAdjust="spacing" textLength="105.3711" x="2183.2188" y="574.9073">- Event Handlers</text></g><!--link loanAPI to las--><g class="link" data-entity-1="loanAPI" data-entity-2="las" data-source-line="64" data-uid="lnk37" id="link_loanAPI_las"><path d="M2172.3542,679.6528 C2164.7083,662.3403 2144.9479,621.9444 2117.5104,597.3298 C2110.5833,591.1007 2104.8229,595.0278 2098.7604,587.9548 C2000.6458,473.309 2116.8438,354.3507 1995.6354,264.4653 C1982.4167,254.6528 1419.0104,259.6632 1402.9271,256.1319 C1380.2604,251.1632 1362.1126,243.9028 1342.8418,234.3715" fill="none" id="loanAPI-to-las" style="stroke:#446E9B;stroke-width:3.125;"/><polygon fill="#446E9B" points="1337.2396,231.6007,1343.7957,239.4917,1341.9081,233.9097,1347.4902,232.0221,1337.2396,231.6007" style="stroke:#446E9B;stroke-width:3.125;"/></g><!--link payAPI to pps--><g class="link" data-entity-1="payAPI" data-entity-2="pps" data-source-line="65" data-uid="lnk38" id="link_payAPI_pps"><path d="M2302.375,679.6423 C2293.6979,661.184 2270.0521,616.8611 2235.2188,597.3298 C2203.5208,579.5486 2181.4167,611.7882 2153.9688,587.9548 C2041.8021,490.5069 2179.6042,364.3403 2069.5938,264.4653 C2034.1563,232.2882 1917.9561,219.092 1828.5603,213.3941" fill="none" id="payAPI-to-pps" style="stroke:#446E9B;stroke-width:3.125;"/><polygon fill="#446E9B" points="1822.3229,212.9965,1831.4139,217.7511,1827.5207,213.3278,1831.944,209.4346,1822.3229,212.9965" style="stroke:#446E9B;stroke-width:3.125;"/></g><!--link assessAPI to cas--><g class="link" data-entity-1="assessAPI" data-entity-2="cas" data-source-line="66" data-uid="lnk39" id="link_assessAPI_cas"><path d="M2034.7708,679.8819 C2031.5,630.4653 2007.0625,367.3194 1852.9271,264.4653 C1837.625,254.2465 1208.4583,259.8507 1190.4271,256.1319 C1166.3854,251.1736 1146.7042,243.7759 1126.0687,234.2342" fill="none" id="assessAPI-to-cas" style="stroke:#446E9B;stroke-width:3.125;"/><polygon fill="#446E9B" points="1120.3958,231.6111,1127.1564,239.3277,1125.1233,233.797,1130.6539,231.7638,1120.3958,231.6111" style="stroke:#446E9B;stroke-width:3.125;"/></g><!--link las to loan--><g class="link" data-entity-1="las" data-entity-2="loan" data-source-line="69" data-uid="lnk40" id="link_las_loan"><path d="M1358.0417,231.5486 C1375.3438,239.9861 1393.2083,250.8923 1407.0938,264.4653 C1427.1563,284.059 1438.6451,307.7997 1446.3534,328.0914" fill="none" id="las-to-loan" style="stroke:#446E9B;stroke-width:3.125;"/><polygon fill="#446E9B" points="1448.5729,333.934,1449.1388,323.6904,1446.7233,329.0651,1441.3486,326.6497,1448.5729,333.934" style="stroke:#446E9B;stroke-width:3.125;"/></g><!--link las to customer--><g class="link" data-entity-1="las" data-entity-2="customer" data-source-line="70" data-uid="lnk41" id="link_las_customer"><path d="M1272.8438,231.6319 C1263.0521,241.3923 1251.8438,253.1319 1242.5104,264.4653 C1224.0104,286.934 1208.752,309.3936 1196.4916,328.4874" fill="none" id="las-to-customer" style="stroke:#446E9B;stroke-width:3.125;"/><polygon fill="#446E9B" points="1193.1146,333.7465,1201.6861,328.1091,1195.9287,329.3639,1194.674,323.6065,1193.1146,333.7465" style="stroke:#446E9B;stroke-width:3.125;"/></g><!--link las to loanRepo--><g class="link" data-entity-1="las" data-entity-2="loanRepo" data-source-line="71" data-uid="lnk42" id="link_las_loanRepo"><path d="M1300.9479,231.3507 C1306.2396,259.0694 1314.0175,299.8674 1319.3196,327.6903" fill="none" id="las-to-loanRepo" style="stroke:#446E9B;stroke-width:3.125;"/><polygon fill="#446E9B" points="1320.4896,333.8298,1322.8276,323.8406,1319.5146,328.7136,1314.6416,325.4005,1320.4896,333.8298" style="stroke:#446E9B;stroke-width:3.125;"/></g><!--link cas to credit--><g class="link" data-entity-1="cas" data-entity-2="credit" data-source-line="72" data-uid="lnk43" id="link_cas_credit"><path d="M1071.9792,231.3507 C1065.9167,259.0694 1056.9704,299.9012 1050.8871,327.7241" fill="none" id="cas-to-credit" style="stroke:#446E9B;stroke-width:3.125;"/><polygon fill="#446E9B" points="1049.5521,333.8298,1055.6251,325.5612,1050.6646,328.7417,1047.4841,323.7812,1049.5521,333.8298" style="stroke:#446E9B;stroke-width:3.125;"/></g><!--link cas to customer--><g class="link" data-entity-1="cas" data-entity-2="customer" data-source-line="73" data-uid="lnk44" id="link_cas_customer"><path d="M1092.6563,231.6319 C1099.6354,241.684 1107.9479,253.6632 1115.4271,264.4653 C1131.7813,288.0798 1146.9173,309.989 1159.7715,328.6036" fill="none" id="cas-to-customer" style="stroke:#446E9B;stroke-width:3.125;"/><polygon fill="#446E9B" points="1163.3229,333.7465,1161.4244,323.6645,1160.3634,329.4607,1154.5672,328.3997,1163.3229,333.7465" style="stroke:#446E9B;stroke-width:3.125;"/></g><!--link pps to payment--><g class="link" data-entity-1="pps" data-entity-2="payment" data-source-line="74" data-uid="lnk45" id="link_pps_payment"><path d="M1674.5104,231.6423 C1658.6146,240.5069 1641.5313,251.6423 1627.9271,264.4653 C1606.4063,284.7465 1591.5138,308.4151 1580.6909,328.4359" fill="none" id="pps-to-payment" style="stroke:#446E9B;stroke-width:3.125;"/><polygon fill="#446E9B" points="1577.7188,333.934,1585.8424,327.6683,1580.1956,329.3523,1578.5116,323.7055,1577.7188,333.934" style="stroke:#446E9B;stroke-width:3.125;"/></g><!--link pps to payRepo--><g class="link" data-entity-1="pps" data-entity-2="payRepo" data-source-line="75" data-uid="lnk46" id="link_pps_payRepo"><path d="M1722.7188,231.3507 C1722.7188,259.0694 1722.7188,299.7569 1722.7188,327.5798" fill="none" id="pps-to-payRepo" style="stroke:#446E9B;stroke-width:3.125;"/><polygon fill="#446E9B" points="1722.7188,333.8298,1726.8854,324.4548,1722.7188,328.6215,1718.5521,324.4548,1722.7188,333.8298" style="stroke:#446E9B;stroke-width:3.125;"/></g><!--link lss to loan--><g class="link" data-entity-1="lss" data-entity-2="loan" data-source-line="76" data-uid="lnk47" id="link_lss_loan"><path d="M1496.6979,231.3507 C1487.6875,259.0694 1474.3671,300.0623 1465.3359,327.8852" fill="none" id="lss-to-loan" style="stroke:#446E9B;stroke-width:3.125;"/><polygon fill="#446E9B" points="1463.4063,333.8298,1470.2638,326.1993,1465.0143,328.8759,1462.3376,323.6264,1463.4063,333.8298" style="stroke:#446E9B;stroke-width:3.125;"/></g><!--link lss to payment--><g class="link" data-entity-1="lss" data-entity-2="payment" data-source-line="77" data-uid="lnk48" id="link_lss_payment"><path d="M1513.4688,231.3507 C1525.2083,259.0694 1542.6672,300.2516 1554.4484,328.0745" fill="none" id="lss-to-payment" style="stroke:#446E9B;stroke-width:3.125;"/><polygon fill="#446E9B" points="1556.8854,333.8298,1557.0668,323.5722,1554.8546,329.0337,1549.393,326.8216,1556.8854,333.8298" style="stroke:#446E9B;stroke-width:3.125;"/></g><!--link loanRepo to jpa--><g class="link" data-entity-1="loanRepo" data-entity-2="jpa" data-source-line="80" data-uid="lnk49" id="link_loanRepo_jpa"><path d="M1355.4583,381.2048 C1374.7813,396.3507 1399.5729,417.3715 1418.5521,438.9444 C1437.7396,460.7465 1452.3107,483.6786 1463.5295,503.0953" fill="none" id="loanRepo-to-jpa" style="stroke:#446E9B;stroke-width:3.125;"/><polygon fill="#446E9B" points="1466.6563,508.5069,1465.5738,498.305,1464.0506,503.9972,1458.3583,502.474,1466.6563,508.5069" style="stroke:#446E9B;stroke-width:3.125;"/></g><!--link payRepo to jpa--><g class="link" data-entity-1="payRepo" data-entity-2="jpa" data-source-line="81" data-uid="lnk50" id="link_payRepo_jpa"><path d="M1695.2917,381.0382 C1677.1771,394.8507 1652.3542,411.8507 1627.9271,422.3611 C1596.9896,435.6944 1582.625,421.2361 1553.9688,438.9444 C1526.2813,456.0694 1507.432,481.7421 1494.5883,502.9816" fill="none" id="payRepo-to-jpa" style="stroke:#446E9B;stroke-width:3.125;"/><polygon fill="#446E9B" points="1491.3542,508.3298,1499.7708,502.4636,1494.0492,503.873,1492.6398,498.1515,1491.3542,508.3298" style="stroke:#446E9B;stroke-width:3.125;"/></g><!--link jpa to db--><g class="link" data-entity-1="jpa" data-entity-2="db" data-source-line="82" data-uid="lnk51" id="link_jpa_db"><path d="M1478.9688,555.5382 C1478.9688,583.4028 1478.9688,624.559 1478.9688,654.4444" fill="none" id="jpa-to-db" style="stroke:#446E9B;stroke-width:3.125;"/><polygon fill="#446E9B" points="1478.9688,660.6944,1483.1354,651.3194,1478.9688,655.4861,1474.8021,651.3194,1478.9688,660.6944" style="stroke:#446E9B;stroke-width:3.125;"/></g><!--link las to eventPort--><g class="link" data-entity-1="las" data-entity-2="eventPort" data-source-line="85" data-uid="lnk52" id="link_las_eventPort"><path d="M1255.6979,231.6007 C1236.2292,241.1319 1212.25,251.1632 1189.3854,256.1319 C1156.8125,263.2153 618.8646,248.8923 589.3854,264.4653 C554.5417,282.8819 536.6328,323.6293 529.7161,342.473" fill="none" id="las-to-eventPort" style="stroke:#446E9B;stroke-width:3.125;"/><polygon fill="#446E9B" points="527.5625,348.3403,534.7044,340.9751,529.3572,343.4509,526.8814,338.1037,527.5625,348.3403" style="stroke:#446E9B;stroke-width:3.125;"/></g><!--link cas to cbPort--><g class="link" data-entity-1="cas" data-entity-2="cbPort" data-source-line="86" data-uid="lnk53" id="link_cas_cbPort"><path d="M981.9688,211.6319 C781.4896,217.8507 328.0625,234.9965 264.3854,264.4653 C223.7292,283.2778 195.0165,323.9569 183.1311,342.8423" fill="none" id="cas-to-cbPort" style="stroke:#446E9B;stroke-width:3.125;"/><polygon fill="#446E9B" points="179.8021,348.1319,188.322,342.4168,182.5762,343.7239,181.2692,337.9781,179.8021,348.1319" style="stroke:#446E9B;stroke-width:3.125;"/></g><!--link cas to riskPort--><g class="link" data-entity-1="cas" data-entity-2="riskPort" data-source-line="87" data-uid="lnk54" id="link_cas_riskPort"><path d="M981.7083,210.0694 C832.6771,213.0694 551.8646,224.0694 461.2604,264.4653 C418.2083,283.6632 385.441,324.3618 371.7639,343.1327" fill="none" id="cas-to-riskPort" style="stroke:#446E9B;stroke-width:3.125;"/><polygon fill="#446E9B" points="368.0833,348.184,376.9717,343.0607,371.1505,343.9746,370.2366,338.1533,368.0833,348.184" style="stroke:#446E9B;stroke-width:3.125;"/></g><!--link pps to payPort--><g class="link" data-entity-1="pps" data-entity-2="payPort" data-source-line="88" data-uid="lnk55" id="link_pps_payPort"><path d="M1677.5313,231.6111 C1656.1146,241.1423 1629.8438,251.1736 1605.0104,256.1319 C1536.4583,269.8298 1043.1771,245.6423 975.8438,264.4653 C914,281.7569 856.3204,325.9142 833.4871,344.7579" fill="none" id="pps-to-payPort" style="stroke:#446E9B;stroke-width:3.125;"/><polygon fill="#446E9B" points="828.6667,348.7361,838.5494,345.9824,832.6837,345.4209,833.2452,339.5552,828.6667,348.7361" style="stroke:#446E9B;stroke-width:3.125;"/></g><!--link las to docPort--><g class="link" data-entity-1="las" data-entity-2="docPort" data-source-line="89" data-uid="lnk56" id="link_las_docPort"><path d="M1255.6875,231.5486 C1236.2188,241.0694 1212.2396,251.1007 1189.3854,256.1319 C1165.3646,261.4132 768.9375,253.9965 746.6771,264.4653 C708.1667,282.5694 683.9935,323.8079 674.306,342.735" fill="none" id="las-to-docPort" style="stroke:#446E9B;stroke-width:3.125;"/><polygon fill="#446E9B" points="671.4583,348.2986,679.4388,341.8516,673.8314,343.6623,672.0207,338.0548,671.4583,348.2986" style="stroke:#446E9B;stroke-width:3.125;"/></g><!--link cbPort to cb--><g class="link" data-entity-1="cbPort" data-entity-2="cb" data-source-line="92" data-uid="lnk57" id="link_cbPort_cb"><path d="M173.0938,366.8298 C167.875,392.2569 153.2476,463.4577 145.2893,502.1869" fill="none" id="cbPort-to-cb" style="stroke:#446E9B;stroke-width:3.125;"/><polygon fill="#446E9B" points="144.0313,508.309,149.9997,499.9645,145.0796,503.2073,141.8369,498.2872,144.0313,508.309" style="stroke:#446E9B;stroke-width:3.125;"/></g><!--link riskPort to risk--><g class="link" data-entity-1="riskPort" data-entity-2="risk" data-source-line="93" data-uid="lnk58" id="link_riskPort_risk"><path d="M358.6875,366.8298 C347.625,392.2569 316.4822,463.8484 299.6385,502.5776" fill="none" id="riskPort-to-risk" style="stroke:#446E9B;stroke-width:3.125;"/><polygon fill="#446E9B" points="297.1458,508.309,304.7058,501.3736,299.223,503.5328,297.0639,498.0501,297.1458,508.309" style="stroke:#446E9B;stroke-width:3.125;"/></g><!--link payPort to pg--><g class="link" data-entity-1="payPort" data-entity-2="pg" data-source-line="94" data-uid="lnk59" id="link_payPort_pg"><path d="M819.5938,366.8298 C819.5938,392.2569 819.5938,463.3298 819.5938,502.059" fill="none" id="payPort-to-pg" style="stroke:#446E9B;stroke-width:3.125;"/><polygon fill="#446E9B" points="819.5938,508.309,823.7604,498.934,819.5938,503.1007,815.4271,498.934,819.5938,508.309" style="stroke:#446E9B;stroke-width:3.125;"/></g><!--link docPort to docs--><g class="link" data-entity-1="docPort" data-entity-2="docs" data-source-line="95" data-uid="lnk60" id="link_docPort_docs"><path d="M666.0521,366.8298 C661.6042,392.2569 649.13,463.4235 642.3488,502.1527" fill="none" id="docPort-to-docs" style="stroke:#446E9B;stroke-width:3.125;"/><polygon fill="#446E9B" points="641.2708,508.309,646.992,499.7931,642.1691,503.1787,638.7835,498.3559,641.2708,508.309" style="stroke:#446E9B;stroke-width:3.125;"/></g><!--link eventPort to kafka--><g class="link" data-entity-1="eventPort" data-entity-2="kafka" data-source-line="96" data-uid="lnk61" id="link_eventPort_kafka"><path d="M519.7396,366.6736 C510.2917,381.0278 488.4583,410.3923 461.2604,422.3611 C420.7604,440.1944 93.9792,407.0173 63.3438,438.9444 C17.5,486.7361 16.6667,540.9757 63.3438,587.9548 C77.8854,602.5903 1529.875,589.0382 1548.7604,597.3298 C1580.4583,611.2361 1602.2462,638.2588 1616.5899,660.29" fill="none" id="eventPort-to-kafka" style="stroke:#446E9B;stroke-width:3.125;"/><polygon fill="#446E9B" points="1620,665.5278,1618.3767,655.3978,1617.1583,661.163,1611.393,659.9446,1620,665.5278" style="stroke:#446E9B;stroke-width:3.125;"/></g><!--link eventPort to notif--><g class="link" data-entity-1="eventPort" data-entity-2="notif" data-source-line="97" data-uid="lnk62" id="link_eventPort_notif"><path d="M521.2917,366.8298 C510.5313,392.2569 480.2686,463.8238 463.8832,502.553" fill="none" id="eventPort-to-notif" style="stroke:#446E9B;stroke-width:3.125;"/><polygon fill="#446E9B" points="461.4479,508.309,468.9382,501.2984,463.4773,503.5123,461.2634,498.0514,461.4479,508.309" style="stroke:#446E9B;stroke-width:3.125;"/></g><!--link rest to loanAPI--><g class="link" data-entity-1="rest" data-entity-2="loanAPI" data-source-line="100" data-uid="lnk63" id="link_rest_loanAPI"><path d="M1871.6979,553.7986 C1913.0104,565.5278 1966.8125,579.4965 2015.4271,587.9548 C2037.875,591.8611 2098.0313,585.5173 2117.5104,597.3298 C2149.5104,616.7361 2165.1342,655.204 2171.3112,673.6936" fill="none" id="rest-to-loanAPI" style="stroke:#446E9B;stroke-width:3.125;"/><polygon fill="#446E9B" points="2173.2917,679.6215,2174.273,669.4093,2171.6413,674.6816,2166.3691,672.0499,2173.2917,679.6215" style="stroke:#446E9B;stroke-width:3.125;"/></g><!--link rest to payAPI--><g class="link" data-entity-1="rest" data-entity-2="payAPI" data-source-line="101" data-uid="lnk64" id="link_rest_payAPI"><path d="M1871.7083,548.7153 C1929.5,561.2986 2014.4167,578.3923 2089.3854,587.9548 C2121.6042,592.059 2206.5,582.1632 2235.2188,597.3298 C2270.7188,616.0694 2291.5506,655.5561 2299.9777,674.1081" fill="none" id="rest-to-payAPI" style="stroke:#446E9B;stroke-width:3.125;"/><polygon fill="#446E9B" points="2302.5625,679.7986,2302.4789,669.5397,2300.4085,675.0565,2294.8916,672.9861,2302.5625,679.7986" style="stroke:#446E9B;stroke-width:3.125;"/></g><!--link rest to assessAPI--><g class="link" data-entity-1="rest" data-entity-2="assessAPI" data-source-line="102" data-uid="lnk65" id="link_rest_assessAPI"><path d="M1836.7083,555.5382 C1891.0625,591.7986 1989.8221,657.6626 2020.9784,678.4543" fill="none" id="rest-to-assessAPI" style="stroke:#446E9B;stroke-width:3.125;"/><polygon fill="#446E9B" points="2026.1771,681.9236,2020.6919,673.2539,2021.8448,679.0325,2016.0662,680.1855,2026.1771,681.9236" style="stroke:#446E9B;stroke-width:3.125;"/></g><!--link events to kafka--><g class="link" data-entity-1="events" data-entity-2="kafka" data-source-line="105" data-uid="lnk66" id="link_events_kafka"><path d="M1634.9167,555.5382 C1634.5208,584.9132 1633.9175,629.7575 1633.5217,659.1429" fill="none" id="events-to-kafka" style="stroke:#446E9B;stroke-width:3.125;"/><polygon fill="#446E9B" points="1633.4375,665.3923,1637.7301,656.0743,1633.5077,660.1845,1629.3975,655.9621,1633.4375,665.3923" style="stroke:#446E9B;stroke-width:3.125;"/></g><!--link events to las--><g class="link" data-entity-1="events" data-entity-2="las" data-source-line="106" data-uid="lnk67" id="link_events_las"><path d="M1648.1979,508.5173 C1662.1042,486.7778 1686.3021,454.809 1716.4688,438.9444 C1743.5104,424.7361 1832.6771,445.2361 1852.9271,422.3611 C1876.1979,396.1007 1877.5104,289.5069 1852.9271,264.4653 C1844.1771,255.5486 1415.1354,258.8403 1402.9271,256.1319 C1380.2708,251.1111 1362.1341,243.8495 1342.8528,234.3182" fill="none" id="events-to-las" style="stroke:#446E9B;stroke-width:3.125;"/><polygon fill="#446E9B" points="1337.25,231.5486,1343.8078,239.4382,1341.919,233.8566,1347.5007,231.9678,1337.25,231.5486" style="stroke:#446E9B;stroke-width:3.125;"/></g><!--link events to pps--><g class="link" data-entity-1="events" data-entity-2="pps" data-source-line="107" data-uid="lnk68" id="link_events_pps"><path d="M1648.125,508.3715 C1661.9792,486.5278 1686.125,454.4861 1716.4688,438.9444 C1749.6042,421.9861 1858.1563,449.9548 1883.1354,422.3611 C1930.2396,370.3403 1923.8438,321.6319 1883.1354,264.4653 C1868.6042,244.059 1851.945,233.1429 1828.2783,224.9137" fill="none" id="events-to-pps" style="stroke:#446E9B;stroke-width:3.125;"/><polygon fill="#446E9B" points="1822.375,222.8611,1829.8615,229.8756,1827.2944,224.5716,1832.5984,222.0045,1822.375,222.8611" style="stroke:#446E9B;stroke-width:3.125;"/></g><!--link domain to GMN69--><g class="link" data-entity-1="domain" data-entity-2="GMN69" data-source-line="110" data-uid="lnk71" id="link_domain_GMN69"><path d="M1845.8815,357.4757 C1846.3178,357.4757 1846.7541,357.4757 1847.1904,357.4757 C1850.681,357.4757 1854.1715,357.4757 1857.6621,357.4757 C1864.6432,357.4757 1871.6243,357.4757 1878.6055,357.4757 C1892.5677,357.4757 1906.5299,357.4757 1920.4922,357.4757 C1948.4167,357.4757 1976.3411,357.4757 2004.2656,357.4757 C2060.1146,357.4757 2115.9635,357.4757 2171.8125,357.4757" fill="none" id="domain-GMN69" style="stroke:#446E9B;stroke-width:3.125;stroke-dasharray:7.0,7.0;"/></g><!--link GMN72 to infra--><g class="link" data-entity-1="GMN72" data-entity-2="infra" data-source-line="119" data-uid="lnk74" id="link_GMN72_infra"><path d="M2210.9479,475.6632 C2186.7813,456.1736 2156.875,437.4965 2125.3229,430.6528 C2087.2604,422.4028 1462.3438,422.4028 1424.2813,430.6528 C1415.5833,432.5382 1411.6667,432.0382 1406.0521,438.9444 C1402.9232,442.7986 1400.2415,447.0268 1397.9453,451.4884 C1397.3713,452.6038 1396.8213,453.7338 1396.2944,454.8762 C1396.2286,455.019 1396.1631,455.162 1396.098,455.3052" fill="none" id="GMN72-infra" style="stroke:#446E9B;stroke-width:3.125;stroke-dasharray:7.0,7.0;"/></g><!--SRC=[VLRDJXin4BxlKxXSsaha1Nge5222j6b9ITLBrSF4wsnCDlRAzbAYYdVlUFmJxse12TYnl_crvnk_Stjn5Cnsm4KBsyf9rmgsqg3OjLPEF3isOtVY6Hgje6Lpm_VI2Uvw8whA7gJgmC2HSNtij1BARTm9zGqYG3MjA21Ru8V6w5xLrxhLXltrXgPCi7yLmv-h4NubcxsxQdiHThMfXGaxDs0EjF5Ic9COlDbXLc-PkpL2g4bxOUUbgh0m1sW4krWyeq5VWyt9Ed6q5mmiy_K9zi_X_xusefQENM6DeF_ZONmxnZn8Us0BrKWb265G7cFMS3hwZrjmuY-S2DSrOzIDvZt1Di8yIHxCrPhRCV2xTd8dEJYfrG2i_COWr_ByAS-MnpGpPDvrRJAsWfCmX8EkYy2HSs-nK2dTjs2dD48LvzOAQtr-fGgVLea5MnlDKKcgfjJfEljQO04smhSsu5_exp3v6tq4MUPTXuLNKmyMyMCoqzuwVHGcf1Q5D_8BwOJlroktuTh4Qf7yMcWFejDMEcrEEKY_z8R_aGP6aXMcYhLKEmFMcPvOeoYQz1j5pMfmi0MBAcjjNMF4viSgL7Sx5SsNzPpDQ-YmBIq5yjZ15Euhx0x0rlssbNOVgtpmQrFWXyNc9zryezis6JR2JfPlyUJ_tO6gCrJufNHnofPQggvtRAsDip5vb6tC_anMeVNcw-L5EWpy7cCICIGOdi04wjmw6GYqvB5bQFUz6yQcQM4Yk06paS95e3V_EGOJnHL1PBZdkYc5b5O6ObvJkCnu6OXqDmKCvvDHT3Q4m-pVit0YN2k5qmevoLQnt6ms-qoi5EfAecUFN3rQyHo4LaeUT9e5PgXGErZnBP-4tDhbBhKEJuZGgNoiWDv35B7f2vdqaQiATtO8nY0ZNs5ymsQiKWIauFidMimo_j8tjY3QAMxAi70nu7E5SmhRWPYFliY0v6GXdIGwomEtyCJS7cTuisSG6xyA3gAlAjdFpghe83XhgcW_-R9L3fcM0YyCry9un8286tppU3x8zHuin4xCyhdXV49q7VUUBd3M12zsxDRcsrU8_lPL60U-hFopXUbTd3Xquyjfv8lbKBAVQ6l6vWqIQOCl2FQWDPhxu0dcagMPyp72VW4-eDZzzX4B7K7B-fBDZ_XYSWaK7SKfQUFgUHpWxOgzPuSQYy2AGjM-cYBcqeeTfK9pW1IcHaLAv2PDXyJvSVtyBWjXiUjMPWwUiMzOVyzocVzps2EcJ-O6d7uE-Jy0]--></g></svg>