<svg xmlns="http://www.w3.org/2000/svg" xmlns:xlink="http://www.w3.org/1999/xlink" contentStyleType="text/css" data-diagram-type="DESCRIPTION" height="481px" preserveAspectRatio="none" style="width:602px;height:481px;background:#FFFFFF;" version="1.1" viewBox="0 0 602 481" width="602px" zoomAndPan="magnify"><title>Enterprise Loan Management System - Core Architecture</title><defs/><g><g class="title" data-source-line="5"><text fill="#000000" font-family="sans-serif" font-size="14" font-weight="bold" lengthAdjust="spacing" textLength="411.3867" x="88.3066" y="23.5352">Enterprise Loan Management System - Core Architecture</text></g><!--cluster Client Applications--><g class="cluster" data-entity="Client Applications" data-source-line="7" data-uid="ent0002" id="cluster_Client Applications"><path d="M23.5,43.4883 L161.1914,43.4883 A3.75,3.75 0 0 1 163.6914,45.9883 L170.6914,65.9766 L460.5,65.9766 A2.5,2.5 0 0 1 463,68.4766 L463,128.4783 A2.5,2.5 0 0 1 460.5,130.9783 L23.5,130.9783 A2.5,2.5 0 0 1 21,128.4783 L21,45.9883 A2.5,2.5 0 0 1 23.5,43.4883" fill="none" style="stroke:#000000;stroke-width:1.5;"/><line style="stroke:#000000;stroke-width:1.5;" x1="21" x2="170.6914" y1="65.9766" y2="65.9766"/><text fill="#000000" font-family="sans-serif" font-size="14" font-weight="bold" lengthAdjust="spacing" textLength="136.6914" x="25" y="59.0234">Client Applications</text></g><!--cluster API Gateway--><g class="cluster" data-entity="API Gateway" data-source-line="13" data-uid="ent0006" id="cluster_API Gateway"><path d="M145.5,154.9783 L235.668,154.9783 A3.75,3.75 0 0 1 238.168,157.4783 L245.168,177.4666 L592.5,177.4666 A2.5,2.5 0 0 1 595,179.9666 L595,239.9583 A2.5,2.5 0 0 1 592.5,242.4583 L145.5,242.4583 A2.5,2.5 0 0 1 143,239.9583 L143,157.4783 A2.5,2.5 0 0 1 145.5,154.9783" fill="none" style="stroke:#000000;stroke-width:1.5;"/><line style="stroke:#000000;stroke-width:1.5;" x1="143" x2="245.168" y1="177.4666" y2="177.4666"/><text fill="#000000" font-family="sans-serif" font-size="14" font-weight="bold" lengthAdjust="spacing" textLength="89.168" x="147" y="170.5134">API Gateway</text></g><!--cluster Core Services--><g class="cluster" data-entity="Core Services" data-source-line="19" data-uid="ent0010" id="cluster_Core Services"><path d="M8.5,266.4583 L106.5908,266.4583 A3.75,3.75 0 0 1 109.0908,268.9583 L116.0908,288.9466 L477.5,288.9466 A2.5,2.5 0 0 1 480,291.4466 L480,351.4483 A2.5,2.5 0 0 1 477.5,353.9483 L8.5,353.9483 A2.5,2.5 0 0 1 6,351.4483 L6,268.9583 A2.5,2.5 0 0 1 8.5,266.4583" fill="none" style="stroke:#000000;stroke-width:1.5;"/><line style="stroke:#000000;stroke-width:1.5;" x1="6" x2="116.0908" y1="288.9466" y2="288.9466"/><text fill="#000000" font-family="sans-serif" font-size="14" font-weight="bold" lengthAdjust="spacing" textLength="97.0908" x="10" y="281.9934">Core Services</text></g><!--cluster Data Layer--><g class="cluster" data-entity="Data Layer" data-source-line="25" data-uid="ent0014" id="cluster_Data Layer"><path d="M44.5,377.9483 L122.4521,377.9483 A3.75,3.75 0 0 1 124.9521,380.4483 L131.9521,400.4366 L425.5,400.4366 A2.5,2.5 0 0 1 428,402.9366 L428,471.9383 A2.5,2.5 0 0 1 425.5,474.4383 L44.5,474.4383 A2.5,2.5 0 0 1 42,471.9383 L42,380.4483 A2.5,2.5 0 0 1 44.5,377.9483" fill="none" style="stroke:#000000;stroke-width:1.5;"/><line style="stroke:#000000;stroke-width:1.5;" x1="42" x2="131.9521" y1="400.4366" y2="400.4366"/><text fill="#000000" font-family="sans-serif" font-size="14" font-weight="bold" lengthAdjust="spacing" textLength="76.9521" x="46" y="393.4834">Data Layer</text></g><!--entity WebApp--><g class="entity" data-entity="WebApp" data-source-line="8" data-uid="ent0003" id="entity_WebApp"><rect fill="#F1F1F1" height="36.4883" rx="2.5" ry="2.5" style="stroke:#181818;stroke-width:0.5;" width="92.0986" x="36.95" y="78.4883"/><text fill="#000000" font-family="sans-serif" font-size="14" lengthAdjust="spacing" textLength="72.0986" x="46.95" y="102.0234">Web Portal</text></g><!--entity MobileApp--><g class="entity" data-entity="MobileApp" data-source-line="9" data-uid="ent0004" id="entity_MobileApp"><rect fill="#F1F1F1" height="36.4883" rx="2.5" ry="2.5" style="stroke:#181818;stroke-width:0.5;" width="123.9131" x="164.04" y="78.4883"/><text fill="#000000" font-family="sans-serif" font-size="14" lengthAdjust="spacing" textLength="103.9131" x="174.04" y="102.0234">Mobile Banking</text></g><!--entity AdminApp--><g class="entity" data-entity="AdminApp" data-source-line="10" data-uid="ent0005" id="entity_AdminApp"><rect fill="#F1F1F1" height="36.4883" rx="2.5" ry="2.5" style="stroke:#181818;stroke-width:0.5;" width="123.2637" x="323.37" y="78.4883"/><text fill="#000000" font-family="sans-serif" font-size="14" lengthAdjust="spacing" textLength="103.2637" x="333.37" y="102.0234">Admin Console</text></g><!--entity Gateway--><g class="entity" data-entity="Gateway" data-source-line="14" data-uid="ent0007" id="entity_Gateway"><rect fill="#F1F1F1" height="36.4883" rx="2.5" ry="2.5" style="stroke:#181818;stroke-width:0.5;" width="134.6729" x="158.66" y="189.9783"/><text fill="#000000" font-family="sans-serif" font-size="14" lengthAdjust="spacing" textLength="114.6729" x="168.66" y="213.5134">Security Gateway</text></g><!--entity RateLimit--><g class="entity" data-entity="RateLimit" data-source-line="15" data-uid="ent0008" id="entity_RateLimit"><rect fill="#F1F1F1" height="36.4883" rx="2.5" ry="2.5" style="stroke:#181818;stroke-width:0.5;" width="101.4434" x="328.28" y="189.9783"/><text fill="#000000" font-family="sans-serif" font-size="14" lengthAdjust="spacing" textLength="81.4434" x="338.28" y="213.5134">Rate Limiter</text></g><!--entity LoadBalancer--><g class="entity" data-entity="LoadBalancer" data-source-line="16" data-uid="ent0009" id="entity_LoadBalancer"><rect fill="#F1F1F1" height="36.4883" rx="2.5" ry="2.5" style="stroke:#181818;stroke-width:0.5;" width="113.9873" x="465.01" y="189.9783"/><text fill="#000000" font-family="sans-serif" font-size="14" lengthAdjust="spacing" textLength="93.9873" x="475.01" y="213.5134">Load Balancer</text></g><!--entity CustomerSvc--><g class="entity" data-entity="CustomerSvc" data-source-line="20" data-uid="ent0011" id="entity_CustomerSvc"><rect fill="#F1F1F1" height="36.4883" rx="2.5" ry="2.5" style="stroke:#181818;stroke-width:0.5;" width="137.708" x="326.15" y="301.4583"/><text fill="#000000" font-family="sans-serif" font-size="14" lengthAdjust="spacing" textLength="117.708" x="336.15" y="324.9934">Customer Service</text></g><!--entity LoanSvc--><g class="entity" data-entity="LoanSvc" data-source-line="21" data-uid="ent0012" id="entity_LoanSvc"><rect fill="#F1F1F1" height="36.4883" rx="2.5" ry="2.5" style="stroke:#181818;stroke-width:0.5;" width="104.2461" x="21.88" y="301.4583"/><text fill="#000000" font-family="sans-serif" font-size="14" lengthAdjust="spacing" textLength="84.2461" x="31.88" y="324.9934">Loan Service</text></g><!--entity PaymentSvc--><g class="entity" data-entity="PaymentSvc" data-source-line="22" data-uid="ent0013" id="entity_PaymentSvc"><rect fill="#F1F1F1" height="36.4883" rx="2.5" ry="2.5" style="stroke:#181818;stroke-width:0.5;" width="129.3408" x="161.33" y="301.4583"/><text fill="#000000" font-family="sans-serif" font-size="14" lengthAdjust="spacing" textLength="109.3408" x="171.33" y="324.9934">Payment Service</text></g><!--entity DB--><g class="entity" data-entity="DB" data-source-line="26" data-uid="ent0015" id="entity_DB"><path d="M177.58,422.9483 C177.58,412.9483 226.0048,412.9483 226.0048,412.9483 C226.0048,412.9483 274.4296,412.9483 274.4296,422.9483 L274.4296,448.4366 C274.4296,458.4366 226.0048,458.4366 226.0048,458.4366 C226.0048,458.4366 177.58,458.4366 177.58,448.4366 L177.58,422.9483" fill="#F1F1F1" style="stroke:#181818;stroke-width:0.5;"/><path d="M177.58,422.9483 C177.58,432.9483 226.0048,432.9483 226.0048,432.9483 C226.0048,432.9483 274.4296,432.9483 274.4296,422.9483" fill="none" style="stroke:#181818;stroke-width:0.5;"/><text fill="#000000" font-family="sans-serif" font-size="14" lengthAdjust="spacing" textLength="76.8496" x="187.58" y="450.4834">PostgreSQL</text></g><!--entity Cache--><g class="entity" data-entity="Cache" data-source-line="27" data-uid="ent0016" id="entity_Cache"><rect fill="#F1F1F1" height="36.4883" rx="35" ry="35" style="stroke:#181818;stroke-width:0.5;" width="102.1543" x="309.92" y="417.4483"/><text fill="#000000" font-family="sans-serif" font-size="14" lengthAdjust="spacing" textLength="82.1543" x="319.92" y="440.9834">Redis Cache</text></g><!--entity Events--><g class="entity" data-entity="Events" data-source-line="28" data-uid="ent0017" id="entity_Events"><path d="M62.57,422.4483 L137.4362,422.4483 C142.4362,422.4483 142.4362,435.6924 142.4362,435.6924 C142.4362,435.6924 142.4362,448.9366 137.4362,448.9366 L62.57,448.9366 C57.57,448.9366 57.57,435.6924 57.57,435.6924 C57.57,435.6924 57.57,422.4483 62.57,422.4483" fill="#F1F1F1" style="stroke:#181818;stroke-width:0.5;"/><path d="M137.4362,422.4483 C132.4362,422.4483 132.4362,435.6924 132.4362,435.6924 C132.4362,448.9366 137.4362,448.9366 137.4362,448.9366" fill="none" style="stroke:#181818;stroke-width:0.5;"/><text fill="#000000" font-family="sans-serif" font-size="14" lengthAdjust="spacing" textLength="64.8662" x="62.57" y="440.9834">Event Bus</text></g><!--link WebApp to Gateway--><g class="link" data-entity-1="WebApp" data-entity-2="Gateway" data-source-line="31" data-uid="lnk18" id="link_WebApp_Gateway"><path d="M105.98,115.3183 C132.66,135.7483 171.6558,165.611 198.3158,186.021" fill="none" id="WebApp-to-Gateway" style="stroke:#181818;stroke-width:1;"/><polygon fill="#181818" points="203.08,189.6683,198.3653,181.0212,199.1099,186.6289,193.5022,187.3735,203.08,189.6683" style="stroke:#181818;stroke-width:1;"/></g><!--link MobileApp to Gateway--><g class="link" data-entity-1="MobileApp" data-entity-2="Gateway" data-source-line="32" data-uid="lnk19" id="link_MobileApp_Gateway"><path d="M226,115.3183 C226,135.7483 226,163.2583 226,183.6683" fill="none" id="MobileApp-to-Gateway" style="stroke:#181818;stroke-width:1;"/><polygon fill="#181818" points="226,189.6683,230,180.6683,226,184.6683,222,180.6683,226,189.6683" style="stroke:#181818;stroke-width:1;"/></g><!--link AdminApp to Gateway--><g class="link" data-entity-1="AdminApp" data-entity-2="Gateway" data-source-line="33" data-uid="lnk20" id="link_AdminApp_Gateway"><path d="M358.16,115.3183 C344.05,124.6283 326.52,136.3183 311,146.9783 C290.43,161.1083 272.2067,174.0129 255.2967,186.1329" fill="none" id="AdminApp-to-Gateway" style="stroke:#181818;stroke-width:1;"/><polygon fill="#181818" points="250.42,189.6283,260.0653,187.6364,254.484,186.7155,255.4049,181.1341,250.42,189.6283" style="stroke:#181818;stroke-width:1;"/></g><!--link Gateway to CustomerSvc--><g class="link" data-entity-1="Gateway" data-entity-2="CustomerSvc" data-source-line="35" data-uid="lnk21" id="link_Gateway_CustomerSvc"><path d="M256.28,226.7683 C271.88,235.9683 291.12,247.5683 308,258.4583 C329.45,272.3083 348.3665,285.4064 365.6465,297.6664" fill="none" id="Gateway-to-CustomerSvc" style="stroke:#181818;stroke-width:1;"/><polygon fill="#181818" points="370.54,301.1383,365.5144,292.6682,366.4621,298.2451,360.8852,299.1928,370.54,301.1383" style="stroke:#181818;stroke-width:1;"/></g><!--link Gateway to LoanSvc--><g class="link" data-entity-1="Gateway" data-entity-2="LoanSvc" data-source-line="36" data-uid="lnk22" id="link_Gateway_LoanSvc"><path d="M193.66,226.9383 C178.23,235.8183 159.75,247.0783 144,258.4583 C125.68,271.6983 110.729,284.5905 97.019,297.1205" fill="none" id="Gateway-to-LoanSvc" style="stroke:#181818;stroke-width:1;"/><polygon fill="#181818" points="92.59,301.1683,101.9319,298.0493,96.2808,297.7951,96.5349,292.144,92.59,301.1683" style="stroke:#181818;stroke-width:1;"/></g><!--link Gateway to PaymentSvc--><g class="link" data-entity-1="Gateway" data-entity-2="PaymentSvc" data-source-line="37" data-uid="lnk23" id="link_Gateway_PaymentSvc"><path d="M226,226.8083 C226,247.2383 226,274.7483 226,295.1583" fill="none" id="Gateway-to-PaymentSvc" style="stroke:#181818;stroke-width:1;"/><polygon fill="#181818" points="226,301.1583,230,292.1583,226,296.1583,222,292.1583,226,301.1583" style="stroke:#181818;stroke-width:1;"/></g><!--link CustomerSvc to DB--><g class="link" data-entity-1="CustomerSvc" data-entity-2="DB" data-source-line="39" data-uid="lnk24" id="link_CustomerSvc_DB"><path d="M357.72,338.3583 C328.86,352.0483 293.53,368.8783 292,369.9483 C274.51,382.1983 261.4407,394.7712 249.0207,408.2812" fill="none" id="CustomerSvc-to-DB" style="stroke:#181818;stroke-width:1;"/><polygon fill="#181818" points="244.96,412.6983,253.9958,408.7798,248.3439,409.0174,248.1063,403.3655,244.96,412.6983" style="stroke:#181818;stroke-width:1;"/></g><!--link LoanSvc to DB--><g class="link" data-entity-1="LoanSvc" data-entity-2="DB" data-source-line="40" data-uid="lnk25" id="link_LoanSvc_DB"><path d="M103.03,338.4183 C115.53,345.8783 130.37,354.5383 144,361.9483 C150.98,365.7483 153.53,365.3283 160,369.9483 C177.25,382.2583 190.1812,394.6879 202.6112,408.0979" fill="none" id="LoanSvc-to-DB" style="stroke:#181818;stroke-width:1;"/><polygon fill="#181818" points="206.69,412.4983,203.5054,403.1785,203.291,408.8313,197.6382,408.6169,206.69,412.4983" style="stroke:#181818;stroke-width:1;"/></g><!--link PaymentSvc to DB--><g class="link" data-entity-1="PaymentSvc" data-entity-2="DB" data-source-line="41" data-uid="lnk26" id="link_PaymentSvc_DB"><path d="M226,338.0183 C226,357.9483 226,384.7283 226,406.5083" fill="none" id="PaymentSvc-to-DB" style="stroke:#181818;stroke-width:1;"/><polygon fill="#181818" points="226,412.5083,230,403.5083,226,407.5083,222,403.5083,226,412.5083" style="stroke:#181818;stroke-width:1;"/></g><!--link CustomerSvc to Cache--><g class="link" data-entity-1="CustomerSvc" data-entity-2="Cache" data-source-line="43" data-uid="lnk27" id="link_CustomerSvc_Cache"><path d="M389.84,338.0183 C383.45,359.4383 374.3467,389.9691 367.9267,411.4691" fill="none" id="CustomerSvc-to-Cache" style="stroke:#181818;stroke-width:1;"/><polygon fill="#181818" points="366.21,417.2183,372.6179,409.739,367.6406,412.4273,364.9523,407.4501,366.21,417.2183" style="stroke:#181818;stroke-width:1;"/></g><!--link LoanSvc to Cache--><g class="link" data-entity-1="LoanSvc" data-entity-2="Cache" data-source-line="44" data-uid="lnk28" id="link_LoanSvc_Cache"><path d="M97.28,338.2583 C110.31,347.0583 127.26,356.8983 144,361.9483 C175.53,371.4683 261.71,357.0083 292,369.9483 C315.41,379.9583 332.0196,396.8948 344.4396,412.4048" fill="none" id="LoanSvc-to-Cache" style="stroke:#181818;stroke-width:1;"/><polygon fill="#181818" points="348.19,417.0883,345.6867,407.5629,345.0647,413.1854,339.4421,412.5634,348.19,417.0883" style="stroke:#181818;stroke-width:1;"/></g><!--link PaymentSvc to Cache--><g class="link" data-entity-1="PaymentSvc" data-entity-2="Cache" data-source-line="45" data-uid="lnk29" id="link_PaymentSvc_Cache"><path d="M250.95,338.3083 C263.53,347.4283 278.85,358.9383 292,369.9483 C310.13,385.1383 325.4105,399.533 339.0605,412.883" fill="none" id="PaymentSvc-to-Cache" style="stroke:#181818;stroke-width:1;"/><polygon fill="#181818" points="343.35,417.0783,339.7126,407.9257,339.7754,413.5822,334.1189,413.6451,343.35,417.0783" style="stroke:#181818;stroke-width:1;"/></g><!--link CustomerSvc to Events--><g class="link" data-entity-1="CustomerSvc" data-entity-2="Events" data-source-line="47" data-uid="lnk30" id="link_CustomerSvc_Events"><path d="M365.09,338.4483 C348.79,347.1783 327.93,356.8983 308,361.9483 C276.07,370.0483 189.82,355.9583 160,369.9483 C136.14,381.1483 120.4823,401.467 110.6523,416.907" fill="none" id="CustomerSvc-to-Events" style="stroke:#181818;stroke-width:1;"/><polygon fill="#181818" points="107.43,421.9683,115.6377,416.5245,110.1153,417.7505,108.8893,412.2281,107.43,421.9683" style="stroke:#181818;stroke-width:1;"/></g><!--link LoanSvc to Events--><g class="link" data-entity-1="LoanSvc" data-entity-2="Events" data-source-line="48" data-uid="lnk31" id="link_LoanSvc_Events"><path d="M77.95,338.0183 C83.23,361.1883 91.1463,395.8684 95.8063,416.3084" fill="none" id="LoanSvc-to-Events" style="stroke:#181818;stroke-width:1;"/><polygon fill="#181818" points="97.14,422.1583,99.0394,412.4943,96.0286,417.2834,91.2395,414.2726,97.14,422.1583" style="stroke:#181818;stroke-width:1;"/></g><!--link PaymentSvc to Events--><g class="link" data-entity-1="PaymentSvc" data-entity-2="Events" data-source-line="49" data-uid="lnk32" id="link_PaymentSvc_Events"><path d="M200.08,338.3783 C187.55,347.3283 172.55,358.6683 160,369.9483 C141.31,386.7483 125.8258,404.0266 114.3258,417.5566" fill="none" id="PaymentSvc-to-Events" style="stroke:#181818;stroke-width:1;"/><polygon fill="#181818" points="110.44,422.1283,119.3165,417.8612,113.6782,418.3185,113.2209,412.6802,110.44,422.1283" style="stroke:#181818;stroke-width:1;"/></g><!--SRC=[RP9DJiCm44RtESMeh7i5fBRy2Ab8XInO81PJPnGi4ZlOJb64k3lZILpSaApiv_VPut7yXpOTEcpXYEgZThOtrSusri7LdNo5FnlAjfqrP48PXeR0aGfeweQA8kZ0uDO4SftJdc1lqS0Z6gofvG2KWm_KmXfsrX5id7hNWUEzut371xC7grsZexlfkaOh3DeQluBl0lWx7mslBtI4WtK1cpT03ppbm5nwj4VD5MtHSFMrY2DQS3TLgmqNPhnjI5GXqVp9gjiS7k0U0ttXi51LIQftEWn9aNscyTnzPWnxtN8Bd7WHo7nkSXihlaI3Harg90bSb2UDBScTjAAbjkrw7snBBZcoMuBbIIqSRIxS21Qy0mxZ2sVgnAATbtY30M6F0xbKNyNaYFo_h0xMXzfH-RHVnHrkjhBErJc9FbEbkLnKxoJhCXBbiwUUXTjJB6BRUrcMcO-7Zxy7hDVNvzSu_mWNDBtv1IocWS2yMJbFZSbPre4YoyaQtssAfEcVdSY_q7ZXF3UIMNI4_z9JF_BuX6RvYVu2]--></g></svg>