<svg xmlns="http://www.w3.org/2000/svg" xmlns:xlink="http://www.w3.org/1999/xlink" contentStyleType="text/css" data-diagram-type="SEQUENCE" height="1739px" preserveAspectRatio="none" style="width:1006px;height:1739px;background:#FFFFFF;" version="1.1" viewBox="0 0 1006 1739" width="1006px" zoomAndPan="magnify"><title>Cross-Platform Data Sharing Architecture</title><defs/><g><text fill="#000000" font-family="sans-serif" font-size="14" font-weight="bold" lengthAdjust="spacing" textLength="302.2646" x="348.1399" y="28.5352">Cross-Platform Data Sharing Architecture</text><rect fill="none" height="261.1055" style="stroke:#000000;stroke-width:1.5;" width="538.9624" x="450.582" y="369.4609"/><rect fill="none" height="223.084" style="stroke:#000000;stroke-width:1.5;" width="805.9878" x="77.9463" y="1016.9141"/><rect fill="none" height="197.1738" style="stroke:#000000;stroke-width:1.5;" width="586.4741" x="297.46" y="1341.9297"/><g><title>Customer</title><rect fill="#000000" fill-opacity="0.00000" height="1539.3691" width="8" x="37.9731" y="118.9766"/><line style="stroke:#181818;stroke-width:0.5;stroke-dasharray:5.0,5.0;" x1="41" x2="41" y1="118.9766" y2="1658.3457"/></g><g><title>Fintech App</title><rect fill="#000000" fill-opacity="0.00000" height="1539.3691" width="8" x="131.3706" y="118.9766"/><line style="stroke:#181818;stroke-width:0.5;stroke-dasharray:5.0,5.0;" x1="134.9463" x2="134.9463" y1="118.9766" y2="1658.3457"/></g><g><title>Open Finance</title><rect fill="#000000" fill-opacity="0.00000" height="1539.3691" width="8" x="356.5786" y="118.9766"/><line style="stroke:#181818;stroke-width:0.5;stroke-dasharray:5.0,5.0;" x1="360.46" x2="360.46" y1="118.9766" y2="1658.3457"/></g><g><title>Data</title><rect fill="#000000" fill-opacity="0.00000" height="1539.3691" width="8" x="501.918" y="118.9766"/><line style="stroke:#181818;stroke-width:0.5;stroke-dasharray:5.0,5.0;" x1="505.582" x2="505.582" y1="118.9766" y2="1658.3457"/></g><g><title>Enterprise</title><rect fill="#000000" fill-opacity="0.00000" height="1539.3691" width="8" x="638.396" y="118.9766"/><line style="stroke:#181818;stroke-width:0.5;stroke-dasharray:5.0,5.0;" x1="642.1138" x2="642.1138" y1="118.9766" y2="1658.3457"/></g><g><title>AmanahFi</title><rect fill="#000000" fill-opacity="0.00000" height="1539.3691" width="8" x="730.2393" y="118.9766"/><line style="stroke:#181818;stroke-width:0.5;stroke-dasharray:5.0,5.0;" x1="733.6782" x2="733.6782" y1="118.9766" y2="1658.3457"/></g><g><title>Masrufi</title><rect fill="#000000" fill-opacity="0.00000" height="1539.3691" width="8" x="825.3672" y="118.9766"/><line style="stroke:#181818;stroke-width:0.5;stroke-dasharray:5.0,5.0;" x1="828.8003" x2="828.8003" y1="118.9766" y2="1658.3457"/></g><g class="participant participant-head" data-participant="Customer"><text fill="#000000" font-family="sans-serif" font-size="14" lengthAdjust="spacing" textLength="65.9463" x="6" y="116.0234">Customer</text><ellipse cx="41.9731" cy="50.9883" fill="#E2E2F0" rx="8" ry="8" style="stroke:#181818;stroke-width:0.5;"/><path d="M41.9731,58.9883 L41.9731,85.9883 M28.9731,66.9883 L54.9731,66.9883 M41.9731,85.9883 L28.9731,100.9883 M41.9731,85.9883 L54.9731,100.9883" fill="none" style="stroke:#181818;stroke-width:0.5;"/></g><g class="participant participant-tail" data-participant="Customer"><text fill="#000000" font-family="sans-serif" font-size="14" lengthAdjust="spacing" textLength="65.9463" x="6" y="1670.8809">Customer</text><ellipse cx="41.9731" cy="1682.334" fill="#E2E2F0" rx="8" ry="8" style="stroke:#181818;stroke-width:0.5;"/><path d="M41.9731,1690.334 L41.9731,1717.334 M28.9731,1698.334 L54.9731,1698.334 M41.9731,1717.334 L28.9731,1732.334 M41.9731,1717.334 L54.9731,1732.334" fill="none" style="stroke:#181818;stroke-width:0.5;"/></g><g class="participant participant-head" data-participant="Fintech"><rect fill="#E2E2F0" height="30.4883" rx="2.5" ry="2.5" style="stroke:#181818;stroke-width:0.5;" width="94.8486" x="87.9463" y="87.4883"/><text fill="#000000" font-family="sans-serif" font-size="14" lengthAdjust="spacing" textLength="80.8486" x="94.9463" y="108.0234">Fintech App</text></g><g class="participant participant-tail" data-participant="Fintech"><rect fill="#E2E2F0" height="30.4883" rx="2.5" ry="2.5" style="stroke:#181818;stroke-width:0.5;" width="94.8486" x="87.9463" y="1657.3457"/><text fill="#000000" font-family="sans-serif" font-size="14" lengthAdjust="spacing" textLength="80.8486" x="94.9463" y="1677.8809">Fintech App</text></g><g class="participant participant-head" data-participant="Gateway"><rect fill="#E2E2F0" height="46.9766" rx="2.5" ry="2.5" style="stroke:#181818;stroke-width:0.5;" width="106.2373" x="307.46" y="71"/><text fill="#000000" font-family="sans-serif" font-size="14" lengthAdjust="spacing" textLength="92.2373" x="314.46" y="91.5352">Open Finance</text><text fill="#000000" font-family="sans-serif" font-size="14" lengthAdjust="spacing" textLength="56.7178" x="332.2197" y="108.0234">Gateway</text></g><g class="participant participant-tail" data-participant="Gateway"><rect fill="#E2E2F0" height="46.9766" rx="2.5" ry="2.5" style="stroke:#181818;stroke-width:0.5;" width="106.2373" x="307.46" y="1657.3457"/><text fill="#000000" font-family="sans-serif" font-size="14" lengthAdjust="spacing" textLength="92.2373" x="314.46" y="1677.8809">Open Finance</text><text fill="#000000" font-family="sans-serif" font-size="14" lengthAdjust="spacing" textLength="56.7178" x="332.2197" y="1694.3691">Gateway</text></g><g class="participant participant-head" data-participant="Aggregator"><rect fill="#E2E2F0" height="46.9766" rx="2.5" ry="2.5" style="stroke:#181818;stroke-width:0.5;" width="90.6719" x="460.582" y="71"/><text fill="#000000" font-family="sans-serif" font-size="14" lengthAdjust="spacing" textLength="31.1855" x="490.3252" y="91.5352">Data</text><text fill="#000000" font-family="sans-serif" font-size="14" lengthAdjust="spacing" textLength="76.6719" x="467.582" y="108.0234">Aggregator</text></g><g class="participant participant-tail" data-participant="Aggregator"><rect fill="#E2E2F0" height="46.9766" rx="2.5" ry="2.5" style="stroke:#181818;stroke-width:0.5;" width="90.6719" x="460.582" y="1657.3457"/><text fill="#000000" font-family="sans-serif" font-size="14" lengthAdjust="spacing" textLength="31.1855" x="490.3252" y="1677.8809">Data</text><text fill="#000000" font-family="sans-serif" font-size="14" lengthAdjust="spacing" textLength="76.6719" x="467.582" y="1694.3691">Aggregator</text></g><g class="participant participant-head" data-participant="Loans"><rect fill="#E2E2F0" height="46.9766" rx="2.5" ry="2.5" style="stroke:#181818;stroke-width:0.5;" width="82.5645" x="601.1138" y="71"/><text fill="#000000" font-family="sans-serif" font-size="14" lengthAdjust="spacing" textLength="68.5645" x="608.1138" y="91.5352">Enterprise</text><text fill="#000000" font-family="sans-serif" font-size="14" lengthAdjust="spacing" textLength="39.6211" x="622.5854" y="108.0234">Loans</text></g><g class="participant participant-tail" data-participant="Loans"><rect fill="#E2E2F0" height="46.9766" rx="2.5" ry="2.5" style="stroke:#181818;stroke-width:0.5;" width="82.5645" x="601.1138" y="1657.3457"/><text fill="#000000" font-family="sans-serif" font-size="14" lengthAdjust="spacing" textLength="68.5645" x="608.1138" y="1677.8809">Enterprise</text><text fill="#000000" font-family="sans-serif" font-size="14" lengthAdjust="spacing" textLength="39.6211" x="622.5854" y="1694.3691">Loans</text></g><g class="participant participant-head" data-participant="Islamic"><rect fill="#E2E2F0" height="46.9766" rx="2.5" ry="2.5" style="stroke:#181818;stroke-width:0.5;" width="81.1221" x="693.6782" y="71"/><text fill="#000000" font-family="sans-serif" font-size="14" lengthAdjust="spacing" textLength="67.1221" x="700.6782" y="91.5352">AmanahFi</text><text fill="#000000" font-family="sans-serif" font-size="14" lengthAdjust="spacing" textLength="57.2988" x="705.5898" y="108.0234">Platform</text></g><g class="participant participant-tail" data-participant="Islamic"><rect fill="#E2E2F0" height="46.9766" rx="2.5" ry="2.5" style="stroke:#181818;stroke-width:0.5;" width="81.1221" x="693.6782" y="1657.3457"/><text fill="#000000" font-family="sans-serif" font-size="14" lengthAdjust="spacing" textLength="67.1221" x="700.6782" y="1677.8809">AmanahFi</text><text fill="#000000" font-family="sans-serif" font-size="14" lengthAdjust="spacing" textLength="57.2988" x="705.5898" y="1694.3691">Platform</text></g><g class="participant participant-head" data-participant="Expense"><rect fill="#E2E2F0" height="46.9766" rx="2.5" ry="2.5" style="stroke:#181818;stroke-width:0.5;" width="89.1338" x="784.8003" y="71"/><text fill="#000000" font-family="sans-serif" font-size="14" lengthAdjust="spacing" textLength="50.5381" x="804.0981" y="91.5352">Masrufi</text><text fill="#000000" font-family="sans-serif" font-size="14" lengthAdjust="spacing" textLength="75.1338" x="791.8003" y="108.0234">Framework</text></g><g class="participant participant-tail" data-participant="Expense"><rect fill="#E2E2F0" height="46.9766" rx="2.5" ry="2.5" style="stroke:#181818;stroke-width:0.5;" width="89.1338" x="784.8003" y="1657.3457"/><text fill="#000000" font-family="sans-serif" font-size="14" lengthAdjust="spacing" textLength="50.5381" x="804.0981" y="1677.8809">Masrufi</text><text fill="#000000" font-family="sans-serif" font-size="14" lengthAdjust="spacing" textLength="75.1338" x="791.8003" y="1694.3691">Framework</text></g><rect fill="#EEEEEE" height="3" style="stroke:#EEEEEE;stroke-width:1;" width="999.5444" x="0" y="149.6318"/><line style="stroke:#000000;stroke-width:1;" x1="0" x2="999.5444" y1="149.6318" y2="149.6318"/><line style="stroke:#000000;stroke-width:1;" x1="0" x2="999.5444" y1="152.6318" y2="152.6318"/><rect fill="#EEEEEE" height="23.3105" style="stroke:#000000;stroke-width:2;" width="215.4873" x="392.0286" y="138.9766"/><text fill="#000000" font-family="sans-serif" font-size="13" font-weight="bold" lengthAdjust="spacing" textLength="197.2026" x="398.0286" y="155.5449">Cross-Platform Data Request</text><g class="message" data-participant-1="Fintech" data-participant-2="Gateway"><polygon fill="#181818" points="348.5786,204.9082,358.5786,208.9082,348.5786,212.9082,352.5786,208.9082" style="stroke:#181818;stroke-width:1;"/><line style="stroke:#181818;stroke-width:1;" x1="135.3706" x2="354.5786" y1="208.9082" y2="208.9082"/><text fill="#000000" font-family="sans-serif" font-size="13" lengthAdjust="spacing" textLength="166.8989" x="142.3706" y="188.8555">Request financial overview</text><text fill="#000000" font-family="sans-serif" font-size="13" lengthAdjust="spacing" textLength="120.1357" x="142.3706" y="204.166">(with access token)</text></g><g class="message" data-participant-1="Gateway" data-participant-2="Gateway"><line style="stroke:#181818;stroke-width:1;" x1="360.5786" x2="402.5786" y1="253.5293" y2="253.5293"/><line style="stroke:#181818;stroke-width:1;" x1="402.5786" x2="402.5786" y1="253.5293" y2="266.5293"/><line style="stroke:#181818;stroke-width:1;" x1="361.5786" x2="402.5786" y1="266.5293" y2="266.5293"/><polygon fill="#181818" points="371.5786,262.5293,361.5786,266.5293,371.5786,270.5293,367.5786,266.5293" style="stroke:#181818;stroke-width:1;"/><text fill="#000000" font-family="sans-serif" font-size="13" lengthAdjust="spacing" textLength="131.3394" x="367.5786" y="233.4766">Validate token scope</text><text fill="#000000" font-family="sans-serif" font-size="13" lengthAdjust="spacing" textLength="101.8354" x="367.5786" y="248.7871">for all platforms</text></g><g class="message" data-participant-1="Gateway" data-participant-2="Aggregator"><polygon fill="#181818" points="493.918,307.1504,503.918,311.1504,493.918,315.1504,497.918,311.1504" style="stroke:#181818;stroke-width:1;"/><line style="stroke:#181818;stroke-width:1;" x1="360.5786" x2="499.918" y1="311.1504" y2="311.1504"/><text fill="#000000" font-family="sans-serif" font-size="13" lengthAdjust="spacing" textLength="120.8721" x="367.5786" y="291.0977">Get comprehensive</text><text fill="#000000" font-family="sans-serif" font-size="13" lengthAdjust="spacing" textLength="84.7222" x="367.5786" y="306.4082">financial data</text></g><rect fill="#EEEEEE" height="3" style="stroke:#EEEEEE;stroke-width:1;" width="999.5444" x="0" y="339.8057"/><line style="stroke:#000000;stroke-width:1;" x1="0" x2="999.5444" y1="339.8057" y2="339.8057"/><line style="stroke:#000000;stroke-width:1;" x1="0" x2="999.5444" y1="342.8057" y2="342.8057"/><rect fill="#EEEEEE" height="23.3105" style="stroke:#000000;stroke-width:2;" width="166.3755" x="416.5845" y="329.1504"/><text fill="#000000" font-family="sans-serif" font-size="13" font-weight="bold" lengthAdjust="spacing" textLength="148.0908" x="422.5845" y="345.7188">Parallel Data Retrieval</text><path d="M450.582,369.4609 L517.748,369.4609 L517.748,376.7715 L507.748,386.7715 L450.582,386.7715 L450.582,369.4609" fill="#EEEEEE" style="stroke:#000000;stroke-width:1.5;"/><rect fill="none" height="261.1055" style="stroke:#000000;stroke-width:1.5;" width="538.9624" x="450.582" y="369.4609"/><text fill="#000000" font-family="sans-serif" font-size="13" font-weight="bold" lengthAdjust="spacing" textLength="22.166" x="465.582" y="383.0293">par</text><g class="message" data-participant-1="Aggregator" data-participant-2="Loans"><polygon fill="#181818" points="630.396,414.7373,640.396,418.7373,630.396,422.7373,634.396,418.7373" style="stroke:#181818;stroke-width:1;"/><line style="stroke:#181818;stroke-width:1;" x1="505.918" x2="636.396" y1="418.7373" y2="418.7373"/><text fill="#000000" font-family="sans-serif" font-size="13" lengthAdjust="spacing" textLength="84.1191" x="512.918" y="413.9951">Get loan data</text></g><path d="M647,391.7715 L647,431.7715 L821,431.7715 L821,401.7715 L811,391.7715 L647,391.7715" fill="#FEFFDD" style="stroke:#181818;stroke-width:0.5;"/><path d="M811,391.7715 L811,401.7715 L821,401.7715 L811,391.7715" fill="#FEFFDD" style="stroke:#181818;stroke-width:0.5;"/><text fill="#000000" font-family="sans-serif" font-size="13" lengthAdjust="spacing" textLength="153.1182" x="653" y="409.3398">Credit history, balances,</text><text fill="#000000" font-family="sans-serif" font-size="13" lengthAdjust="spacing" textLength="121.0498" x="653" y="424.6504">payment schedules</text><g class="message" data-participant-1="Loans" data-participant-2="Aggregator"><polygon fill="#181818" points="516.918,454.7031,506.918,458.7031,516.918,462.7031,512.918,458.7031" style="stroke:#181818;stroke-width:1;"/><line style="stroke:#181818;stroke-width:1;stroke-dasharray:2.0,2.0;" x1="510.918" x2="641.396" y1="458.7031" y2="458.7031"/><text fill="#000000" font-family="sans-serif" font-size="13" lengthAdjust="spacing" textLength="108.1768" x="522.918" y="453.9609">Loan information</text></g><line style="stroke:#000000;stroke-width:1;stroke-dasharray:2.0,2.0;" x1="450.582" x2="989.5444" y1="467.7031" y2="467.7031"/><g class="message" data-participant-1="Aggregator" data-participant-2="Islamic"><polygon fill="#181818" points="722.2393,496.6689,732.2393,500.6689,722.2393,504.6689,726.2393,500.6689" style="stroke:#181818;stroke-width:1;"/><line style="stroke:#181818;stroke-width:1;" x1="505.918" x2="728.2393" y1="500.6689" y2="500.6689"/><text fill="#000000" font-family="sans-serif" font-size="13" lengthAdjust="spacing" textLength="150.8584" x="512.918" y="495.9268">Get Islamic finance data</text></g><path d="M739,473.7031 L739,513.7031 L953,513.7031 L953,483.7031 L943,473.7031 L739,473.7031" fill="#FEFFDD" style="stroke:#181818;stroke-width:0.5;"/><path d="M943,473.7031 L943,483.7031 L953,483.7031 L943,473.7031" fill="#FEFFDD" style="stroke:#181818;stroke-width:0.5;"/><text fill="#000000" font-family="sans-serif" font-size="13" lengthAdjust="spacing" textLength="193.064" x="745" y="491.2715">Sharia-compliant investments,</text><text fill="#000000" font-family="sans-serif" font-size="13" lengthAdjust="spacing" textLength="109.0591" x="745" y="506.582">Zakat obligations</text><g class="message" data-participant-1="Islamic" data-participant-2="Aggregator"><polygon fill="#181818" points="516.918,536.6348,506.918,540.6348,516.918,544.6348,512.918,540.6348" style="stroke:#181818;stroke-width:1;"/><line style="stroke:#181818;stroke-width:1;stroke-dasharray:2.0,2.0;" x1="510.918" x2="733.2393" y1="540.6348" y2="540.6348"/><text fill="#000000" font-family="sans-serif" font-size="13" lengthAdjust="spacing" textLength="134.1069" x="522.918" y="535.8926">Islamic portfolio data</text></g><line style="stroke:#000000;stroke-width:1;stroke-dasharray:2.0,2.0;" x1="450.582" x2="989.5444" y1="549.6348" y2="549.6348"/><g class="message" data-participant-1="Aggregator" data-participant-2="Expense"><polygon fill="#181818" points="817.3672,578.6006,827.3672,582.6006,817.3672,586.6006,821.3672,582.6006" style="stroke:#181818;stroke-width:1;"/><line style="stroke:#181818;stroke-width:1;" x1="505.918" x2="823.3672" y1="582.6006" y2="582.6006"/><text fill="#000000" font-family="sans-serif" font-size="13" lengthAdjust="spacing" textLength="109.7065" x="512.918" y="577.8584">Get expense data</text></g><path d="M834,555.6348 L834,595.6348 L974,595.6348 L974,565.6348 L964,555.6348 L834,555.6348" fill="#FEFFDD" style="stroke:#181818;stroke-width:0.5;"/><path d="M964,555.6348 L964,565.6348 L974,565.6348 L964,555.6348" fill="#FEFFDD" style="stroke:#181818;stroke-width:0.5;"/><text fill="#000000" font-family="sans-serif" font-size="13" lengthAdjust="spacing" textLength="119.1772" x="840" y="573.2031">Spending patterns,</text><text fill="#000000" font-family="sans-serif" font-size="13" lengthAdjust="spacing" textLength="113.9595" x="840" y="588.5137">budget adherence</text><g class="message" data-participant-1="Expense" data-participant-2="Aggregator"><polygon fill="#181818" points="516.918,618.5664,506.918,622.5664,516.918,626.5664,512.918,622.5664" style="stroke:#181818;stroke-width:1;"/><line style="stroke:#181818;stroke-width:1;stroke-dasharray:2.0,2.0;" x1="510.918" x2="828.3672" y1="622.5664" y2="622.5664"/><text fill="#000000" font-family="sans-serif" font-size="13" lengthAdjust="spacing" textLength="144.3647" x="522.918" y="617.8242">Financial wellness data</text></g><rect fill="#EEEEEE" height="3" style="stroke:#EEEEEE;stroke-width:1;" width="999.5444" x="0" y="658.2217"/><line style="stroke:#000000;stroke-width:1;" x1="0" x2="999.5444" y1="658.2217" y2="658.2217"/><line style="stroke:#000000;stroke-width:1;" x1="0" x2="999.5444" y1="661.2217" y2="661.2217"/><rect fill="#EEEEEE" height="23.3105" style="stroke:#000000;stroke-width:2;" width="127.6294" x="435.9575" y="647.5664"/><text fill="#000000" font-family="sans-serif" font-size="13" font-weight="bold" lengthAdjust="spacing" textLength="109.3447" x="441.9575" y="664.1348">Data Integration</text><g class="message" data-participant-1="Aggregator" data-participant-2="Aggregator"><line style="stroke:#181818;stroke-width:1;" x1="505.918" x2="547.918" y1="721.6533" y2="721.6533"/><line style="stroke:#181818;stroke-width:1;" x1="547.918" x2="547.918" y1="721.6533" y2="734.6533"/><line style="stroke:#181818;stroke-width:1;" x1="506.918" x2="547.918" y1="734.6533" y2="734.6533"/><polygon fill="#181818" points="516.918,730.6533,506.918,734.6533,516.918,738.6533,512.918,734.6533" style="stroke:#181818;stroke-width:1;"/><text fill="#000000" font-family="sans-serif" font-size="13" lengthAdjust="spacing" textLength="122.478" x="512.918" y="701.6006">Integrate data from</text><text fill="#000000" font-family="sans-serif" font-size="13" lengthAdjust="spacing" textLength="91.9712" x="512.918" y="716.9111">all 3 platforms</text></g><path d="M646.478,685.877 L646.478,740.877 L867.478,740.877 L867.478,695.877 L857.478,685.877 L646.478,685.877" fill="#FEFFDD" style="stroke:#181818;stroke-width:0.5;"/><path d="M857.478,685.877 L857.478,695.877 L867.478,695.877 L857.478,685.877" fill="#FEFFDD" style="stroke:#181818;stroke-width:0.5;"/><text fill="#000000" font-family="sans-serif" font-size="13" lengthAdjust="spacing" textLength="168.0225" x="652.478" y="703.4453">- Calculate unified metrics</text><text fill="#000000" font-family="sans-serif" font-size="13" lengthAdjust="spacing" textLength="200.5605" x="652.478" y="718.7559">- Apply cross-platform insights</text><text fill="#000000" font-family="sans-serif" font-size="13" lengthAdjust="spacing" textLength="162.9824" x="652.478" y="734.0664">- Ensure data consistency</text><rect fill="#EEEEEE" height="3" style="stroke:#EEEEEE;stroke-width:1;" width="999.5444" x="0" y="767.4639"/><line style="stroke:#000000;stroke-width:1;" x1="0" x2="999.5444" y1="767.4639" y2="767.4639"/><line style="stroke:#000000;stroke-width:1;" x1="0" x2="999.5444" y1="770.4639" y2="770.4639"/><rect fill="#EEEEEE" height="23.3105" style="stroke:#000000;stroke-width:2;" width="135.1133" x="432.2156" y="756.8086"/><text fill="#000000" font-family="sans-serif" font-size="13" font-weight="bold" lengthAdjust="spacing" textLength="116.8286" x="438.2156" y="773.377">Unified Response</text><g class="message" data-participant-1="Aggregator" data-participant-2="Gateway"><polygon fill="#181818" points="371.5786,848.7061,361.5786,852.7061,371.5786,856.7061,367.5786,852.7061" style="stroke:#181818;stroke-width:1;"/><line style="stroke:#181818;stroke-width:1;stroke-dasharray:2.0,2.0;" x1="365.5786" x2="504.918" y1="852.7061" y2="852.7061"/><text fill="#000000" font-family="sans-serif" font-size="13" lengthAdjust="spacing" textLength="97.5952" x="377.5786" y="832.6533">Comprehensive</text><text fill="#000000" font-family="sans-serif" font-size="13" lengthAdjust="spacing" textLength="112.3408" x="377.5786" y="847.9639">financial overview</text></g><path d="M510,795.1191 L510,881.1191 L704,881.1191 L704,805.1191 L694,795.1191 L510,795.1191" fill="#FEFFDD" style="stroke:#181818;stroke-width:0.5;"/><path d="M694,795.1191 L694,805.1191 L704,805.1191 L694,795.1191" fill="#FEFFDD" style="stroke:#181818;stroke-width:0.5;"/><text fill="#000000" font-family="sans-serif" font-size="13" lengthAdjust="spacing" textLength="130.0698" x="516" y="812.6875">Combined response:</text><text fill="#000000" font-family="sans-serif" font-size="13" lengthAdjust="spacing" textLength="160.8496" x="516" y="827.998">- Total assets &amp; liabilities</text><text fill="#000000" font-family="sans-serif" font-size="13" lengthAdjust="spacing" textLength="173.5767" x="516" y="843.3086">- Islamic compliance status</text><text fill="#000000" font-family="sans-serif" font-size="13" lengthAdjust="spacing" textLength="162.4302" x="516" y="858.6191">- Financial wellness score</text><text fill="#000000" font-family="sans-serif" font-size="13" lengthAdjust="spacing" textLength="126.5596" x="516" y="873.9297">- Predictive insights</text><g class="message" data-participant-1="Gateway" data-participant-2="Fintech"><polygon fill="#181818" points="146.3706,919.293,136.3706,923.293,146.3706,927.293,142.3706,923.293" style="stroke:#181818;stroke-width:1;"/><line style="stroke:#181818;stroke-width:1;stroke-dasharray:2.0,2.0;" x1="140.3706" x2="359.5786" y1="923.293" y2="923.293"/><text fill="#000000" font-family="sans-serif" font-size="13" lengthAdjust="spacing" textLength="107.8086" x="152.3706" y="903.2402">Unified customer</text><text fill="#000000" font-family="sans-serif" font-size="13" lengthAdjust="spacing" textLength="98.3442" x="152.3706" y="918.5508">financial profile</text></g><rect fill="#EEEEEE" height="3" style="stroke:#EEEEEE;stroke-width:1;" width="999.5444" x="0" y="951.9482"/><line style="stroke:#000000;stroke-width:1;" x1="0" x2="999.5444" y1="951.9482" y2="951.9482"/><line style="stroke:#000000;stroke-width:1;" x1="0" x2="999.5444" y1="954.9482" y2="954.9482"/><rect fill="#EEEEEE" height="23.3105" style="stroke:#000000;stroke-width:2;" width="147.4277" x="426.0583" y="941.293"/><text fill="#000000" font-family="sans-serif" font-size="13" font-weight="bold" lengthAdjust="spacing" textLength="129.1431" x="432.0583" y="957.8613">Real-Time Updates</text><path d="M5,979.6035 L5,1004.6035 L867,1004.6035 L867,989.6035 L857,979.6035 L5,979.6035" fill="#FEFFDD" style="stroke:#181818;stroke-width:0.5;"/><path d="M857,979.6035 L857,989.6035 L867,989.6035 L857,979.6035" fill="#FEFFDD" style="stroke:#181818;stroke-width:0.5;"/><text fill="#000000" font-family="sans-serif" font-size="13" lengthAdjust="spacing" textLength="210.1646" x="326.8848" y="997.1719">Real-time updates via WebSocket</text><path d="M77.9463,1016.9141 L140.085,1016.9141 L140.085,1024.2246 L130.085,1034.2246 L77.9463,1034.2246 L77.9463,1016.9141" fill="#EEEEEE" style="stroke:#000000;stroke-width:1.5;"/><rect fill="none" height="223.084" style="stroke:#000000;stroke-width:1.5;" width="805.9878" x="77.9463" y="1016.9141"/><text fill="#000000" font-family="sans-serif" font-size="13" font-weight="bold" lengthAdjust="spacing" textLength="17.1387" x="92.9463" y="1030.4824">alt</text><text fill="#000000" font-family="sans-serif" font-size="11" font-weight="bold" lengthAdjust="spacing" textLength="87.3125" x="155.085" y="1029.5488">[Loan Payment]</text><g class="message" data-participant-1="Loans" data-participant-2="Gateway"><polygon fill="#181818" points="371.5786,1051.5352,361.5786,1055.5352,371.5786,1059.5352,367.5786,1055.5352" style="stroke:#181818;stroke-width:1;"/><line style="stroke:#181818;stroke-width:1;" x1="365.5786" x2="641.396" y1="1055.5352" y2="1055.5352"/><text fill="#000000" font-family="sans-serif" font-size="13" lengthAdjust="spacing" textLength="156.9204" x="377.5786" y="1050.793">Loan payment processed</text></g><g class="message" data-participant-1="Gateway" data-participant-2="Fintech"><polygon fill="#181818" points="146.3706,1080.8457,136.3706,1084.8457,146.3706,1088.8457,142.3706,1084.8457" style="stroke:#181818;stroke-width:1;"/><line style="stroke:#181818;stroke-width:1;" x1="140.3706" x2="359.5786" y1="1084.8457" y2="1084.8457"/><text fill="#000000" font-family="sans-serif" font-size="13" lengthAdjust="spacing" textLength="193.0449" x="152.3706" y="1080.1035">Update: Loan balance changed</text></g><line style="stroke:#000000;stroke-width:1;stroke-dasharray:2.0,2.0;" x1="77.9463" x2="883.9341" y1="1093.8457" y2="1093.8457"/><text fill="#000000" font-family="sans-serif" font-size="11" font-weight="bold" lengthAdjust="spacing" textLength="115.1025" x="82.9463" y="1104.4805">[Islamic Investment]</text><g class="message" data-participant-1="Islamic" data-participant-2="Gateway"><polygon fill="#181818" points="371.5786,1125.1113,361.5786,1129.1113,371.5786,1133.1113,367.5786,1129.1113" style="stroke:#181818;stroke-width:1;"/><line style="stroke:#181818;stroke-width:1;" x1="365.5786" x2="733.2393" y1="1129.1113" y2="1129.1113"/><text fill="#000000" font-family="sans-serif" font-size="13" lengthAdjust="spacing" textLength="162.6841" x="377.5786" y="1124.3691">Investment value updated</text></g><g class="message" data-participant-1="Gateway" data-participant-2="Fintech"><polygon fill="#181818" points="146.3706,1154.4219,136.3706,1158.4219,146.3706,1162.4219,142.3706,1158.4219" style="stroke:#181818;stroke-width:1;"/><line style="stroke:#181818;stroke-width:1;" x1="140.3706" x2="359.5786" y1="1158.4219" y2="1158.4219"/><text fill="#000000" font-family="sans-serif" font-size="13" lengthAdjust="spacing" textLength="201.208" x="152.3706" y="1153.6797">Update: Portfolio value changed</text></g><line style="stroke:#000000;stroke-width:1;stroke-dasharray:2.0,2.0;" x1="77.9463" x2="883.9341" y1="1167.4219" y2="1167.4219"/><text fill="#000000" font-family="sans-serif" font-size="11" font-weight="bold" lengthAdjust="spacing" textLength="86.0879" x="82.9463" y="1178.0566">[Expense Alert]</text><g class="message" data-participant-1="Expense" data-participant-2="Gateway"><polygon fill="#181818" points="371.5786,1198.6875,361.5786,1202.6875,371.5786,1206.6875,367.5786,1202.6875" style="stroke:#181818;stroke-width:1;"/><line style="stroke:#181818;stroke-width:1;" x1="365.5786" x2="828.3672" y1="1202.6875" y2="1202.6875"/><text fill="#000000" font-family="sans-serif" font-size="13" lengthAdjust="spacing" textLength="172.2437" x="377.5786" y="1197.9453">Budget threshold exceeded</text></g><g class="message" data-participant-1="Gateway" data-participant-2="Fintech"><polygon fill="#181818" points="146.3706,1227.998,136.3706,1231.998,146.3706,1235.998,142.3706,1231.998" style="stroke:#181818;stroke-width:1;"/><line style="stroke:#181818;stroke-width:1;" x1="140.3706" x2="359.5786" y1="1231.998" y2="1231.998"/><text fill="#000000" font-family="sans-serif" font-size="13" lengthAdjust="spacing" textLength="168.708" x="152.3706" y="1227.2559">Alert: Budget limit reached</text></g><rect fill="#EEEEEE" height="3" style="stroke:#EEEEEE;stroke-width:1;" width="999.5444" x="0" y="1267.6533"/><line style="stroke:#000000;stroke-width:1;" x1="0" x2="999.5444" y1="1267.6533" y2="1267.6533"/><line style="stroke:#000000;stroke-width:1;" x1="0" x2="999.5444" y1="1270.6533" y2="1270.6533"/><rect fill="#EEEEEE" height="23.3105" style="stroke:#000000;stroke-width:2;" width="166.1533" x="416.6956" y="1256.998"/><text fill="#000000" font-family="sans-serif" font-size="13" font-weight="bold" lengthAdjust="spacing" textLength="147.8687" x="422.6956" y="1273.5664">Customer Data Export</text><g class="message" data-participant-1="Customer" data-participant-2="Gateway"><polygon fill="#181818" points="348.5786,1322.9297,358.5786,1326.9297,348.5786,1330.9297,352.5786,1326.9297" style="stroke:#181818;stroke-width:1;"/><line style="stroke:#181818;stroke-width:1;" x1="41.9731" x2="354.5786" y1="1326.9297" y2="1326.9297"/><text fill="#000000" font-family="sans-serif" font-size="13" lengthAdjust="spacing" textLength="112.6265" x="48.9731" y="1306.877">Request complete</text><text fill="#000000" font-family="sans-serif" font-size="13" lengthAdjust="spacing" textLength="120.1865" x="48.9731" y="1322.1875">data export (GDPR)</text></g><path d="M297.46,1341.9297 L364.626,1341.9297 L364.626,1349.2402 L354.626,1359.2402 L297.46,1359.2402 L297.46,1341.9297" fill="#EEEEEE" style="stroke:#000000;stroke-width:1.5;"/><rect fill="none" height="197.1738" style="stroke:#000000;stroke-width:1.5;" width="586.4741" x="297.46" y="1341.9297"/><text fill="#000000" font-family="sans-serif" font-size="13" font-weight="bold" lengthAdjust="spacing" textLength="22.166" x="312.46" y="1355.498">par</text><g class="message" data-participant-1="Gateway" data-participant-2="Loans"><polygon fill="#181818" points="630.396,1376.5508,640.396,1380.5508,630.396,1384.5508,634.396,1380.5508" style="stroke:#181818;stroke-width:1;"/><line style="stroke:#181818;stroke-width:1;" x1="360.5786" x2="636.396" y1="1380.5508" y2="1380.5508"/><text fill="#000000" font-family="sans-serif" font-size="13" lengthAdjust="spacing" textLength="103.9873" x="367.5786" y="1375.8086">Export loan data</text></g><g class="message" data-participant-1="Loans" data-participant-2="Gateway"><polygon fill="#181818" points="371.5786,1405.8613,361.5786,1409.8613,371.5786,1413.8613,367.5786,1409.8613" style="stroke:#181818;stroke-width:1;"/><line style="stroke:#181818;stroke-width:1;stroke-dasharray:2.0,2.0;" x1="365.5786" x2="641.396" y1="1409.8613" y2="1409.8613"/><text fill="#000000" font-family="sans-serif" font-size="13" lengthAdjust="spacing" textLength="124.9727" x="377.5786" y="1405.1191">Encrypted loan data</text></g><line style="stroke:#000000;stroke-width:1;stroke-dasharray:2.0,2.0;" x1="297.46" x2="883.9341" y1="1418.8613" y2="1418.8613"/><g class="message" data-participant-1="Gateway" data-participant-2="Islamic"><polygon fill="#181818" points="722.2393,1437.1719,732.2393,1441.1719,722.2393,1445.1719,726.2393,1441.1719" style="stroke:#181818;stroke-width:1;"/><line style="stroke:#181818;stroke-width:1;" x1="360.5786" x2="728.2393" y1="1441.1719" y2="1441.1719"/><text fill="#000000" font-family="sans-serif" font-size="13" lengthAdjust="spacing" textLength="120.8594" x="367.5786" y="1436.4297">Export Islamic data</text></g><g class="message" data-participant-1="Islamic" data-participant-2="Gateway"><polygon fill="#181818" points="371.5786,1466.4824,361.5786,1470.4824,371.5786,1474.4824,367.5786,1470.4824" style="stroke:#181818;stroke-width:1;"/><line style="stroke:#181818;stroke-width:1;stroke-dasharray:2.0,2.0;" x1="365.5786" x2="733.2393" y1="1470.4824" y2="1470.4824"/><text fill="#000000" font-family="sans-serif" font-size="13" lengthAdjust="spacing" textLength="141.8447" x="377.5786" y="1465.7402">Encrypted Islamic data</text></g><line style="stroke:#000000;stroke-width:1;stroke-dasharray:2.0,2.0;" x1="297.46" x2="883.9341" y1="1479.4824" y2="1479.4824"/><g class="message" data-participant-1="Gateway" data-participant-2="Expense"><polygon fill="#181818" points="817.3672,1497.793,827.3672,1501.793,817.3672,1505.793,821.3672,1501.793" style="stroke:#181818;stroke-width:1;"/><line style="stroke:#181818;stroke-width:1;" x1="360.5786" x2="823.3672" y1="1501.793" y2="1501.793"/><text fill="#000000" font-family="sans-serif" font-size="13" lengthAdjust="spacing" textLength="129.5747" x="367.5786" y="1497.0508">Export expense data</text></g><g class="message" data-participant-1="Expense" data-participant-2="Gateway"><polygon fill="#181818" points="371.5786,1527.1035,361.5786,1531.1035,371.5786,1535.1035,367.5786,1531.1035" style="stroke:#181818;stroke-width:1;"/><line style="stroke:#181818;stroke-width:1;stroke-dasharray:2.0,2.0;" x1="365.5786" x2="828.3672" y1="1531.1035" y2="1531.1035"/><text fill="#000000" font-family="sans-serif" font-size="13" lengthAdjust="spacing" textLength="150.5601" x="377.5786" y="1526.3613">Encrypted expense data</text></g><g class="message" data-participant-1="Gateway" data-participant-2="Gateway"><line style="stroke:#181818;stroke-width:1;" x1="360.5786" x2="402.5786" y1="1582.7246" y2="1582.7246"/><line style="stroke:#181818;stroke-width:1;" x1="402.5786" x2="402.5786" y1="1582.7246" y2="1595.7246"/><line style="stroke:#181818;stroke-width:1;" x1="361.5786" x2="402.5786" y1="1595.7246" y2="1595.7246"/><polygon fill="#181818" points="371.5786,1591.7246,361.5786,1595.7246,371.5786,1599.7246,367.5786,1595.7246" style="stroke:#181818;stroke-width:1;"/><text fill="#000000" font-family="sans-serif" font-size="13" lengthAdjust="spacing" textLength="93.4502" x="367.5786" y="1562.6719">Consolidate all</text><text fill="#000000" font-family="sans-serif" font-size="13" lengthAdjust="spacing" textLength="85.7188" x="367.5786" y="1577.9824">platform data</text></g><g class="message" data-participant-1="Gateway" data-participant-2="Customer"><polygon fill="#181818" points="52.9731,1636.3457,42.9731,1640.3457,52.9731,1644.3457,48.9731,1640.3457" style="stroke:#181818;stroke-width:1;"/><line style="stroke:#181818;stroke-width:1;stroke-dasharray:2.0,2.0;" x1="46.9731" x2="359.5786" y1="1640.3457" y2="1640.3457"/><text fill="#000000" font-family="sans-serif" font-size="13" lengthAdjust="spacing" textLength="134.2974" x="58.9731" y="1620.293">Secure download link</text><text fill="#000000" font-family="sans-serif" font-size="13" lengthAdjust="spacing" textLength="157.46" x="58.9731" y="1635.6035">for complete data export</text></g><!--SRC=[VLNBZkCu3BpxAuW-B6Q0pcbl0Ng0JFg11dQnGVSyW44kZCpOGcJ98yd9vk-NaYL7pcJsvWT95OkiafTU4QojSMwnKUZtndRmY1xXlKKhTGChArhfIVZ1KbMXyCR2tNfmtdHaxm0Tv9UgH-kba3rg3tVFKdDM2wk-Zr7fVHxqJqyw_44jQAjVqDC9pp4yFGFC4mAqhLurZQK66KgClRpEWv_uHDjRwRZsNmQrYz7nQHwuwb1Z-ootEdCG8r-TmawAUUpVwEomvz1dYnsTZ3t4sAT_kHN733qytAJpZNuEv3myF5IPcSMdtELo-hsFN4XKO8vaZv9EM_tX97qBA0Gv1zuSI7-iCZrbZM-ePCqlOmmuONfkd240AWLzWkEgClb2tH9Uo8CmNM-fvLRaCIHFSBWmnkOsQBaSgToMjvAE7C2DCKyL52N30P7jiRRYnx4EW3QCqygczKkcYshfePMyHlPy3pjKOH_S_LRtUEw8MNUYfNfGv3WrLeJ55VZm5MJejaClZQv8yJIkqQI9ZdZII-AS8ZJUjpcuA0DS15wK30iWzP475L05W3_mW1xCJiac7Xi0vhhN4FFttbYUX99c9ECcqBHE8r0QNsvnzyv_wY3J7ZqlkmwOTaFTS1RMBLdYnZWbbVi5qlCqtnCffSE2ZPXq7OSTP_pAwzhOs5wOyXpehC4KcAZSMzDjTTYzFuljAz4lO8rA32ga35hk9TNGXOqIRgiNmJhK6KHKKox0_BkG70EUj6DN6ayJJ3vl43TyZj2_fdflv7eJUh-2NYfd_RkjpoASeURedTHSsgRIou3bY_6SWCwHT_07yBBif99UKaIQPv_tYDVDUVH3_7bZ2YnUI-7V9eX3UCOrTLu8c9j8RhAS6XR9Zii-UclsKetkz4Qe5bzaH_2r3tRX0ZEnlz3jvERtbnsC6Jva32dZA16-q-xTY0DvlXMK7mMu6VLwKMb1SWp8WcP0mSwevj32ZYxDn8DIKZ8442tgXbE2OYP6NoSzbj8hphq40FlKa9keezJ_x-pDfDCnRtPyLjHAaVMbmegJFuz2z2qlIcjKpK8MHFLlcuwrfZGbEtP5InYyRr9a7iyeJJwLGOO1JjzltIfnwyZpGaMfq9ZruULny_QnIhPT04gUdOgNjdtntkcC9otikGzyNWAJfHKb9-DDHVEWKjtICczKBgDvRB-MdrOrbRzopDB-RfIVHKUYRrslQvQwIJSicnfVJjcIObwfoJmCzcSIqQ7CIJCzp97KX_5EpZE1OYJLVm00]--></g></svg>