<?xml version="1.0" encoding="us-ascii" standalone="no"?><svg xmlns="http://www.w3.org/2000/svg" xmlns:xlink="http://www.w3.org/1999/xlink" contentStyleType="text/css" height="510px" preserveAspectRatio="none" style="width:736px;height:510px;background:#FFFFFF;" version="1.1" viewBox="0 0 736 510" width="736px" zoomAndPan="magnify"><defs/><g><text fill="#000000" font-family="sans-serif" font-size="14" font-weight="bold" lengthAdjust="spacing" textLength="241" x="246.75" y="27.9951">Loan Application Process Flow</text><line style="stroke:#181818;stroke-width:0.5;stroke-dasharray:5.0,5.0;" x1="61" x2="61" y1="118.5938" y2="429.9219"/><line style="stroke:#181818;stroke-width:0.5;stroke-dasharray:5.0,5.0;" x1="240.5" x2="240.5" y1="118.5938" y2="429.9219"/><line style="stroke:#181818;stroke-width:0.5;stroke-dasharray:5.0,5.0;" x1="399" x2="399" y1="118.5938" y2="429.9219"/><line style="stroke:#181818;stroke-width:0.5;stroke-dasharray:5.0,5.0;" x1="544.5" x2="544.5" y1="118.5938" y2="429.9219"/><line style="stroke:#181818;stroke-width:0.5;stroke-dasharray:5.0,5.0;" x1="690.5" x2="690.5" y1="118.5938" y2="429.9219"/><text fill="#000000" font-family="sans-serif" font-size="14" lengthAdjust="spacing" textLength="107" x="5" y="115.292">Bank Customer</text><ellipse cx="61.5" cy="50.7969" fill="#E2E2F0" rx="8" ry="8" style="stroke:#181818;stroke-width:0.5;"/><path d="M61.5,58.7969 L61.5,85.7969 M48.5,66.7969 L74.5,66.7969 M61.5,85.7969 L48.5,100.7969 M61.5,85.7969 L74.5,100.7969 " fill="none" style="stroke:#181818;stroke-width:0.5;"/><text fill="#000000" font-family="sans-serif" font-size="14" lengthAdjust="spacing" textLength="107" x="5" y="441.917">Bank Customer</text><ellipse cx="61.5" cy="453.7188" fill="#E2E2F0" rx="8" ry="8" style="stroke:#181818;stroke-width:0.5;"/><path d="M61.5,461.7188 L61.5,488.7188 M48.5,469.7188 L74.5,469.7188 M61.5,488.7188 L48.5,503.7188 M61.5,488.7188 L74.5,503.7188 " fill="none" style="stroke:#181818;stroke-width:0.5;"/><rect fill="#E2E2F0" height="30.2969" rx="2.5" ry="2.5" style="stroke:#181818;stroke-width:0.5;" width="88" x="196.5" y="87.2969"/><text fill="#000000" font-family="sans-serif" font-size="14" lengthAdjust="spacing" textLength="74" x="203.5" y="107.292">Web Portal</text><rect fill="#E2E2F0" height="30.2969" rx="2.5" ry="2.5" style="stroke:#181818;stroke-width:0.5;" width="88" x="196.5" y="428.9219"/><text fill="#000000" font-family="sans-serif" font-size="14" lengthAdjust="spacing" textLength="74" x="203.5" y="448.917">Web Portal</text><rect fill="#E2E2F0" height="30.2969" rx="2.5" ry="2.5" style="stroke:#181818;stroke-width:0.5;" width="101" x="349" y="87.2969"/><text fill="#000000" font-family="sans-serif" font-size="14" lengthAdjust="spacing" textLength="87" x="356" y="107.292">Loan Service</text><rect fill="#E2E2F0" height="30.2969" rx="2.5" ry="2.5" style="stroke:#181818;stroke-width:0.5;" width="101" x="349" y="428.9219"/><text fill="#000000" font-family="sans-serif" font-size="14" lengthAdjust="spacing" textLength="87" x="356" y="448.917">Loan Service</text><rect fill="#E2E2F0" height="30.2969" rx="2.5" ry="2.5" style="stroke:#181818;stroke-width:0.5;" width="136" x="476.5" y="87.2969"/><text fill="#000000" font-family="sans-serif" font-size="14" lengthAdjust="spacing" textLength="122" x="483.5" y="107.292">Customer Service</text><rect fill="#E2E2F0" height="30.2969" rx="2.5" ry="2.5" style="stroke:#181818;stroke-width:0.5;" width="136" x="476.5" y="428.9219"/><text fill="#000000" font-family="sans-serif" font-size="14" lengthAdjust="spacing" textLength="122" x="483.5" y="448.917">Customer Service</text><rect fill="#E2E2F0" height="30.2969" rx="2.5" ry="2.5" style="stroke:#181818;stroke-width:0.5;" width="80" x="650.5" y="87.2969"/><text fill="#000000" font-family="sans-serif" font-size="14" lengthAdjust="spacing" textLength="66" x="657.5" y="107.292">Database</text><rect fill="#E2E2F0" height="30.2969" rx="2.5" ry="2.5" style="stroke:#181818;stroke-width:0.5;" width="80" x="650.5" y="428.9219"/><text fill="#000000" font-family="sans-serif" font-size="14" lengthAdjust="spacing" textLength="66" x="657.5" y="448.917">Database</text><polygon fill="#181818" points="228.5,145.7266,238.5,149.7266,228.5,153.7266,232.5,149.7266" style="stroke:#181818;stroke-width:1.0;"/><line style="stroke:#181818;stroke-width:1.0;" x1="61.5" x2="234.5" y1="149.7266" y2="149.7266"/><text fill="#000000" font-family="sans-serif" font-size="13" lengthAdjust="spacing" textLength="155" x="68.5" y="144.6606">Submit Loan Application</text><polygon fill="#181818" points="387.5,174.8594,397.5,178.8594,387.5,182.8594,391.5,178.8594" style="stroke:#181818;stroke-width:1.0;"/><line style="stroke:#181818;stroke-width:1.0;" x1="240.5" x2="393.5" y1="178.8594" y2="178.8594"/><text fill="#000000" font-family="sans-serif" font-size="13" lengthAdjust="spacing" textLength="124" x="247.5" y="173.7935">Process Application</text><polygon fill="#181818" points="532.5,203.9922,542.5,207.9922,532.5,211.9922,536.5,207.9922" style="stroke:#181818;stroke-width:1.0;"/><line style="stroke:#181818;stroke-width:1.0;" x1="399.5" x2="538.5" y1="207.9922" y2="207.9922"/><text fill="#000000" font-family="sans-serif" font-size="13" lengthAdjust="spacing" textLength="119" x="406.5" y="202.9263">Validate Customer</text><polygon fill="#181818" points="678.5,233.125,688.5,237.125,678.5,241.125,682.5,237.125" style="stroke:#181818;stroke-width:1.0;"/><line style="stroke:#181818;stroke-width:1.0;" x1="544.5" x2="684.5" y1="237.125" y2="237.125"/><text fill="#000000" font-family="sans-serif" font-size="13" lengthAdjust="spacing" textLength="122" x="551.5" y="232.0591">Check Credit Score</text><polygon fill="#181818" points="555.5,262.2578,545.5,266.2578,555.5,270.2578,551.5,266.2578" style="stroke:#181818;stroke-width:1.0;"/><line style="stroke:#181818;stroke-width:1.0;" x1="549.5" x2="689.5" y1="266.2578" y2="266.2578"/><text fill="#000000" font-family="sans-serif" font-size="13" lengthAdjust="spacing" textLength="119" x="561.5" y="261.1919">Return Credit Data</text><polygon fill="#181818" points="410.5,291.3906,400.5,295.3906,410.5,299.3906,406.5,295.3906" style="stroke:#181818;stroke-width:1.0;"/><line style="stroke:#181818;stroke-width:1.0;" x1="404.5" x2="543.5" y1="295.3906" y2="295.3906"/><text fill="#000000" font-family="sans-serif" font-size="13" lengthAdjust="spacing" textLength="121" x="416.5" y="290.3247">Credit Assessment</text><polygon fill="#181818" points="678.5,320.5234,688.5,324.5234,678.5,328.5234,682.5,324.5234" style="stroke:#181818;stroke-width:1.0;"/><line style="stroke:#181818;stroke-width:1.0;" x1="399.5" x2="684.5" y1="324.5234" y2="324.5234"/><text fill="#000000" font-family="sans-serif" font-size="13" lengthAdjust="spacing" textLength="126" x="406.5" y="319.4575">Create Loan Record</text><polygon fill="#181818" points="410.5,349.6563,400.5,353.6563,410.5,357.6563,406.5,353.6563" style="stroke:#181818;stroke-width:1.0;"/><line style="stroke:#181818;stroke-width:1.0;" x1="404.5" x2="689.5" y1="353.6563" y2="353.6563"/><text fill="#000000" font-family="sans-serif" font-size="13" lengthAdjust="spacing" textLength="86" x="416.5" y="348.5903">Loan Created</text><polygon fill="#181818" points="251.5,378.7891,241.5,382.7891,251.5,386.7891,247.5,382.7891" style="stroke:#181818;stroke-width:1.0;"/><line style="stroke:#181818;stroke-width:1.0;" x1="245.5" x2="398.5" y1="382.7891" y2="382.7891"/><text fill="#000000" font-family="sans-serif" font-size="13" lengthAdjust="spacing" textLength="135" x="257.5" y="377.7231">Application Approved</text><polygon fill="#181818" points="72.5,407.9219,62.5,411.9219,72.5,415.9219,68.5,411.9219" style="stroke:#181818;stroke-width:1.0;"/><line style="stroke:#181818;stroke-width:1.0;" x1="66.5" x2="239.5" y1="411.9219" y2="411.9219"/><text fill="#000000" font-family="sans-serif" font-size="13" lengthAdjust="spacing" textLength="117" x="78.5" y="406.856">Loan Confirmation</text><!--SRC=[PP9DReGm38NtEKKqNVS2NLGQGBFgOZH8qxK9RXi12N8ClNvD-0ibgyJ-R3y_9JJMzK3GwGfCyqr-S7NkMq_wvHQFKcovHVtXmUbhtxVM05llz9symH3qhVM_Ie5XgRbau1gT3u5zXtJH4BQ7aYbiZUt1iRvyOgNldXZQ2CtN8n87baYZDHYXAL2EvaYjxG_a6ZpH1J1K46Qgo9JQob_V5n7wJPT3rLa-RQmMGD15Yh2h2octPWLCb0ZyXDRMmBYRakO5BpAXyXyqOY9XBI9AumcLn4_D7iW3kPMRDllVRLUvGDSGH6k7ZbEDyr32ILZS-O4oj5w6xarYRkRgj7xpBVqTSYS_2hYRjdczjlBkor8tU_O7]--></g></svg>